<svg viewBox="0 0 1080 1080" xmlns="http://www.w3.org/2000/svg" id="we_give_bonus"><defs><style>.cls-1{fill:#f9f1cb;}.cls-2{fill:#aac3da;}.cls-3{fill:#9a702d;}.cls-4{fill:#89574f;}.cls-5{fill:#f37a81;}.cls-6{fill:#fed251;}.cls-7{fill:#efca87;}.cls-8{fill:#f2d0b9;}.cls-9{fill:#e8a1a4;}.cls-10{fill:#483613;}</style></defs><title>we give bonus</title><path d="M1031.12,874.91c0,11.83-95.84,22.73-250.25,28.45s-343,5.37-492.39-.92-236-17.54-226.15-29.35l484,1.82Z" class="cls-1" id="path1414"></path><path d="M499.89,608.16a39.86,39.86,0,0,0-14.75,2.59s-21.79-8.52-24.44,6.06.95,164.79.95,180.89,3.79,53.79,1.13,58.71-7.57,4.55-9.09,2.84-8.33-88.07-8.33-88.07l-25.95-.57v52.28c0,19.32,4.55,50,4.55,50l68.18.19,33.53.38s-.19-39.59-.38-55.88c-.09-7.29-.94-38.06-2-71.22l-.48.2s-25.75-2.27-27.08,1.51-.95,20.84-.95,20.84l-9.28.38-1.7-34.48L523,736.54c-1.23-37.95-2.62-76.5-3.39-85.44-1.52-17.62-1.14-40.53-13.26-42.43a44,44,0,0,0-6.46-.51Z" class="cls-1" id="path1482"></path><path d="M199.32,309s-1.93,1.62-4.73,3.9c-1.23,8.25-2.39,18.1-1.75,23,1.2,9.24,12.59,24,21.29,36,3.72,5.15,11.62,17.73,19.45,30.38-6.27-20-20.66-71.36-20.66-71.36ZM186,319.78c-10.24,8.09-24.09,18.53-33.24,23.37-15.94,8.44-14.73,14.6-24.77,36.43s-20.5,54.77-23.17,67.5-5.36,26.11-.4,33.21,28.12,17.41,46.87,7.37a35.24,35.24,0,0,0,6.64-4.77c6.45-8.27,17-22.8,21.42-28.95,5-8.9,8.1-16,8.1-16s7.64-11,4.29-16.47-5.49-7.37-5.49-7.37.4,10.31-8.31,13.13-21.29-1.08-27.45-7.91-5.76-11-5.76-11-13.53,22-20.09,36-12.46,17.28-12.46,17.28,14.47-41.12,19.29-47.42,11-10,14.86-12.58,8.44-6.3,11.79-1.08,2.41-7.36-2-16.2-11.38-25.58-1.47-28.66,20.89-1.07,22.63,1.07.8,6.83,7.9,8.7,7.37,8.58,4.29,20.23-3.62,22.9-2.55,25.85,7.9,8,7.23,16.2c-.44,5.45-9.22,20.42-15.06,29.87-3.57,9.44-9.94,25.72-13.12,30.36-4.55,6.63-3.6,22.54-10.8,36s-15.53,27.09-17,34.86,8.33,15.15,14.39,18.93a14.4,14.4,0,0,1,5.9,7.06A115.75,115.75,0,0,0,179,589c24.91,3,51.56-7.77,53.44-8.3s4.55-.14,7-14.73,9.11-38.44,5.76-71.79c-2.13-21.25-3.83-46.05-5.75-63.77l-2.28-.65s-20-37.5-28.53-52.1-21.43-30.8-23.3-38.3c-.88-3.49-.24-11.76.69-19.62Zm-18.71,197C181.52,530.26,210.5,528,210.5,528s-13.26,9.09-27.27,6.06S167.32,516.81,167.32,516.81Z" class="cls-2" id="path1453"></path><path d="M263.15,192.62s-29.46-18.75-47.81-5.9-13.66,16.47-14.73,18.75-11.39,3.21-11.39,3.21-7.1,5.63-4.42,22.11S191.37,253,191.37,253s6.69,1.53,6.83,5.69.67,7.7-1.68,8.64a27.64,27.64,0,0,1-6.76,1.14s.8,10.64,2.94,13.39,7.7,7.36,8,6.49.33-14.93.33-14.93,9.24,9.58,13-.07,5.25-35.17,5.25-35.17-11.65-1.23-16.2-10.52-2.55-10.89-2.55-10.89,7,13.17,21.78,13.83,29-17.52,33.52-20.36,7.1,8.62,7.1,8.62,6.16,5.58,6.44,16.1.76,23.1.76,23.1,10.61-19.32,9.19-31.72-16.2-33.75-16.2-33.75Z" class="cls-3" id="path1449"></path><path d="M760.56,227.57s3.48,4.56-6.16,4.56-12.32,1.6-11.92,5.08,10.58,17.28,2.68,34.42-21.43,21.57-26.38,39.51-2.15,27.19-2.15,27.19l6,10.72,3.88,2.54L741,336.06a16,16,0,0,1,5.09-13.13c6.16-5.76,14.6-6.43,14.6-6.43s-5.9-14.73-5.76-30.53-1.74-38.58.53-43.8,6.16-1.07,11-4.42,9.78-13.26,20-10.18,7.5,26.65,12.32,28,20.49,1.07,20.49,1.07-13.66,2.41-13,12.33,6.43,4.14,5.22,17.14-3.61,23.3-.67,32.54,5.76,14.47,6.83,16.21,4.69,13.12,10.85,11,17.68-9.37,24.11-5.09,9.51-2.68,14.06,6.16,6.7,27.86,7.23,27.32,14.33-11.38,12.86-30.67-7.37-27.85-24.51-40-23.84-18.89-22-37.1,5.09-27.46-6.16-40.72-29.33-24.1-48.48-21.56-25.44,9.65-25,23.44Z" class="cls-3" id="path1451"></path><path d="M241.37,316.42s8.25,19.1,14.15,27.27S274.27,378.11,274.4,379s4.42,51.83,4.29,58.13,2.14,45.13,2.14,45.13a346.23,346.23,0,0,1,2.28,36.43c0,17.81.13,33.62,2.27,41.25s4.82,6.7,12.46,4.42,17.27-16.61,17.27-16.61l-16.34-34.95s-6-21-8.7-34.29,9.24-61.6,9.24-61.6l2.14-26s6.3,7.5,6.43,14.46,17.41,18.75,25.72,26.12,31.47,25.58,43.26,29.33,20.22-10.72,23.84-20.23,2.14-14.73,2.14-15.27-25.58-24.5-47.55-36.16-47.4-39.91-47.4-39.91l-31.48-15.8-4.29-1.34s5.23,14.46,6.57,27.05S276.14,379,276.14,379l-14.06-54.77Z" class="cls-2" id="path1464"></path><path d="M236.64,579.12s-1.14,12.69-21.59,16.29-47.17-2.08-48.49,2.84,5.87,33.91,7.95,54.36,4.93,45.65,4,76.14.76,80.5,4,83.34,32.77,2.27,41.86-3.22,10.6-23.49,10.6-23.49,2.65-103,2.46-104.93,3.41-38.26,3.41-38.26.38-5.11,4.36-7,11.74,21.4,18.56,40.34,12.5,33,15.91,48.3,5.87,77.84,8.15,80.11,42.8,4.74,46.4-5.3-8.71-66.1-8.71-66.1l-10.23-107-4.64-30.21s-7.2,5.12-16.1-4.45S281,576.28,277.93,575.81s-12.13,1.7-13.45,2.36-22.45,1-22.45,1Z" class="cls-4" id="path1466"></path><path d="M850.61,339.05c-6.92.1-15.23,5.91-19.72,6.73-6.25,1.14-10.32.09-10.23,4.54s-10.13,15.15-10.13,15.15L823.6,409l4.92-36s4.36,3.79,4.93,6.82.57,18.56-2.27,28.41-.48,20.83,3.69,28.69,2.27,25-7.48,27.65-14.4,1.43-20.08-3.31S792.73,403,792.92,387.25s-3.79-18.94-3.79-18.94-10,8.91-13.64,9.85-7-5.68-7-5.68-3.78,9.66-4.35,10.42-14.87,49.62-14.87,49.62-7-1-7.46-1.77c0,.17-.26.91-.26.93,0,.53-2.67,18.08-19.95,16.6S704,430.47,704,430.47l29.2-63.08,11.13-22.86c-1.12-2.46-1.74-4.34-1.74-4.34-6.28-2.16-16.09,11.4-20.24,22.91s-7,28.4-8.43,36.43S703.38,429.8,700.83,431s-4.69,3.61-5.09,8.17,3.88,9,5.76,14.19S715,468.91,715,468.91l17.94-2s-1.6,13-3.35,22-2.27,25.18-1.74,33.62,1.61,8.17,21.43,9.91,40.85-4.55,50.63-8.71,38.9-13.31,40.71-20.89c.9-3.83-1.14-9.23-3.38-13.64-5,.59-12.7.07-23.67-4.31-22-8.79-19.29-24.24-19.29-24.24s1.48,5.09,16.34,14.6a34.71,34.71,0,0,0,25.27,4.8,58.9,58.9,0,0,0,13.82-10.16c8.9-8.72,8.14-12.22,14.39-35.61s1-56.16,1-56.16-.38-27.56-7.38-35.89a8.69,8.69,0,0,0-7.18-3.14h0Zm-88.65,22c-4.06,13.94-16.33,56.1-19.6,67.69,1.25-4.12,4.63-15.53,5.67-18.56,1.23-3.6,14.86-43.28,14.86-43.28l.38-4.73S762.79,361.72,762,361.05Z" class="cls-5" id="path1468"></path><path d="M829.19,517.85S816,535.28,793.29,541s-47.44,5.3-49.9,7.1-3.32,27.56-2.85,41.2,3.7,59.19,6.16,72.25,4.92,37.7,8,54.36,4.73,84.1,5.49,90S767,841.07,787,835s4.17-59.66,3.79-80.5,1.33-69.32,2.09-76.52,3.78-40.15,3.78-40.91-8.33-29.17-8.33-29.17,8.33,7.39,16.29,22.73,35.61,74.25,41.67,82.2S870,750.72,875.5,764s18.75,46.41,25,53.41,24.62,4,25.57-4-13.26-54.36-13.45-56.07-26.07-47.3-27.84-57.39-5.88-30.11-8.91-54.74-8.14-62.69-11-72.16-10.23-27.46-17.61-37.69-15.73-20.64-15.73-20.64Z" class="cls-6" id="path1476"></path><path d="M450.1,602s-26.33-2.84-28.23,18.18-3.22,108-3.22,108v6.44l25.19-.37s1.71-65,1.71-81.45S450.1,602,450.1,602Z" class="cls-1" id="path1478"></path><path d="M447.63,745.42s-26.89-4-27.84,4-.38,21.21-.38,21.21l25.95.57Z" class="cls-1" id="path1480"></path><path d="M551.13,562.83c-7.72,0-14,0-18.46.19-9.64.31-29,.73-48.13,1.2-1,6.35-2.56,17.79-1.88,19.33.94,2.15-5.76,4.82-8.44-2.41-1.72-4.65-.62-11.77.74-16.67-12.57.33-24.47.67-31.87,1-20.27.94-22.73,8-23.3,14.2s-2.84,16.48,15,16.48,71.22-4.93,91.11-4.74,81.82-.56,97.54,1.14,59.48,4.91,59.48,4.91c.54-.4,18-9.51,15.4-17.68s.5-15.07-50.07-15.83c-20.9-.31-40.65-.6-58.55-.82,1.3,6.78-.93,18.37-.93,18.93s-8.84.54-7.64-5.76c.73-3.8-.35-9.41-1.31-13.3-10.77-.11-20.56-.19-28.65-.19Z" class="cls-1" id="path1487"></path><path d="M625,609.8s-18.49-5.35-18.75,8,11,136.61,11.25,173,3.21,82.77,3.21,82.77H648.6l.53-72.85-6.69-90.27Z" class="cls-1" id="path1495"></path><path d="M523.3,746.36l79.64-2.83,4,21-83.52,3.79Z" class="cls-1" id="path1497"></path><path d="M700.11,744.28c-4.36,0-53.79-1.51-53.79-1.51v23.67L702.19,768Z" class="cls-1" id="path1499"></path><path d="M643.51,549s25.44-21,4.42-31.88S600,524,596,526.77s-10.18,9.77-10.18,9.77,19.15-2.94,19.69,1.08-22.1,12.72-22.1,12.72h-9.24s5-19.69,4.29-21.16S566,529,564.89,539.62,560.74,552,560.74,552s-3.75-1.21-4.42-1.08,2.81-19.15-.8-27-14.87-7.5-16.21,5.49a77.59,77.59,0,0,0,1.21,23.57L530.2,551s-1.2-11.12-1.74-12.86-9.77-12.59-27.45-20.36-33.08,4-33.35,15.54,9.51,21.7,9.51,21.7,106.34-2.41,110.49-2.15S641.1,554,641.1,554Z" class="cls-1" id="path1379"></path><path d="M63.21,808.43a7.71,7.71,0,0,0-4.62,2.05c-2.66,2.1-2.74,2.43-2.3,9.75a67.49,67.49,0,0,0,3.93,17.69c2.78,8.06,3.17,10,1.92,9.71a5.11,5.11,0,0,0-3.56,1c-2.92,2.14-2.41,8.12,1.33,15.47l4.33,8.19,6.35.06h0l-4.48-9.14c-1.89-3.84-3-7.32-2.68-7.65s3.25,2.19,6.5,5.57c5.23,5.43,9.13,7.71,9.13,5.33A29.12,29.12,0,0,0,76,860.85c-5.66-8.93-15.77-40.27-14.39-44.62,2-6.25,11.34,2.92,23,22.54L93.06,853l-.58,5.89c-.43,4.31-.2,6.4.85,7.79,2.1,2.79,3.42,1.31,4.16-4.68.9-7.15,3.82-18.23,6.27-23.73l2-4.5-.1,18.25h0l-.09,18.25h0l7.19,1.84c-1.76-.29-1.26-3-1.81-4-.91-1.71-.89-6.49.07-20.88,1.36-20.4,1-22.92-3.44-22.92-3.23,0-7,5-10.5,14.15l-2.81,7.21-3.74-7.43c-7.1-14.11-15.35-24.8-21.58-28-2.44-1.25-4.19-1.86-5.74-1.83Z" class="cls-7" id="path1383"></path><path d="M1011.18,789.53a7.63,7.63,0,0,0-1.85.25c-4.63,1.16-11.08,9.22-16.83,21-5.28,10.86-10.43,25-10.43,28.63,0,3.35-1.44,1.95-4.5-4.37-1.73-3.57-4.09-6.81-5.57-7.63-3.4-1.9-7.29-.83-8.76,2.4-2.83,6.22-.46,22,5.26,34.92l2,7.54h7.15l-2-6.93c-3.28-11.18-9.73-32.06-6.61-32.06,2.32,0,10.08,17,10.08,22.07s1.2,8.93,2.91,8.93c1.34,0,2-2,3.32-10.25a191.62,191.62,0,0,1,4.26-19.25c3.3-11.38,12.15-29.77,16.82-35l3.58-4-.55,4c-.3,2.2-2.28,12.1-4.41,22-3.23,15-5.27,26.17-7.14,39-.57,3.85,2.77,2.57,7.23-2.77,4.32-5.18,10.94-11.06,11.65-10.35.19.19-1.46,4.2-3.66,8.9s-4.48,11.72-4.48,13.15v2.6l3.87-.5,6.09-12.93c5.94-12.62,6.89-16.37,2.35-18-3.11-1.09-7.58.46-12,4.16-1.68,1.42-2.86,1.89-2.86,1.15s2-10.6,4.5-22c5.66-26.11,6-34.65.61-34.67Z" class="cls-7" id="path1394"></path><path d="M566.77,347.81c-6.89,0-13.43,3.44-16.43,9.5-6.42,12.95-12.3,50.82-12.33,79.28,0,15.87,1.11,21.94,4.46,24.29,3.12,2.19,11.8,1.85,14.89-.58s3.6-3.69,9.74-31.49c7.31-33,9.53-41.36,14.12-52.81,6.18-15.43,5.52-19.86-3.75-25.3a21.07,21.07,0,0,0-10.69-2.89Zm-.2,6.5c6.35,0,11.84,3.19,12.3,7.14.17,1.41-1.46,7-3.62,12.46-5.24,13.23-6.07,16.28-13.63,50.33-3.58,16.12-7,29.93-7.65,30.69-1.67,2-9.79,1.83-10.58-.23-.95-2.48.44-32.25,2.23-47.39,1.71-14.61,5.61-36.78,7.72-44C555.11,357.28,559.46,354.31,566.57,354.31Zm-90,22.57a19.93,19.93,0,0,0-4.46.52,29.64,29.64,0,0,0-16.49,10.36c-7.3,8.92-6.78,13.52,2.59,22.81,6.92,6.86,14.69,17.51,28,38.35,10,15.62,12.09,18.14,15.71,18.66,4.37.63,7.5-.33,10-3.07,2.17-2.38,2.33-3.22,1.82-9.65-1.29-16.56-8.2-39.88-17.21-58.12-7-14.2-12.39-19.81-20-19.86Zm-.49,5.9h.63c2.73.08,4.81,1.33,7,3.89,4,4.69,12.64,23.6,16.77,36.64,3.77,11.89,8.12,34.1,7.16,36.59-.3.79-1.88,1.41-3.6,1.41-2.56,0-3.49-.73-5.78-4.57-13.08-22-30.06-46.05-37.65-53.37-2-1.9-3.57-4.44-3.57-5.64,0-3.7,8.37-12.05,13.92-13.89A18,18,0,0,1,476.12,382.78Zm180.1,25c-5.32.17-13.39,4-24.15,11.59-7.94,5.57-24.79,22-30.11,29.06-4.46,5.94,0,10,0,10a24.77,24.77,0,0,0,5.42,5.57c2.92,1.61,3.7,1.35,20.9-6.81,9.93-4.71,18-7.78,25-9.48,12.86-3.14,14.81-4.09,16.49-8.11,4.07-9.75-2-28.17-10.26-31.32a8.22,8.22,0,0,0-3.24-.48Zm-.54,6.68c.24,0,.46,0,.67,0,2.6.25,3.53,1.11,5.63,5.2a28.73,28.73,0,0,1,2.91,11.16c.36,5.71.19,6.38-2,7.72-1.3.81-5.29,2-8.86,2.7-9.19,1.73-13.67,3.36-29.14,10.62-7.51,3.52-13.84,6.4-14.07,6.4a19.24,19.24,0,0,1-3.35-3.07l-2.94-3.07,10-9.75C631,426.4,648.43,414.59,655.68,414.48Zm-18.81,70.3c-7.76-.15-16.53,2.74-26.48,8.68-6.71,4-21.29,17.49-25.45,23.54-1.64,2.37-3.32,4.31-3.76,4.31s-1.4-1.16-2.16-2.58a11.54,11.54,0,0,0-9.46-5.42c-3.4,0-8.16,2.51-9.5,5-1.46,2.72-2.23,2.48-4-1.22a23.35,23.35,0,0,0-5.35-6.22c-3.33-2.7-4.54-3.07-10.12-3.07s-6.69.33-9.34,2.87a21,21,0,0,0-4.14,5.63l-1.14,2.77-8.18-8.23c-12.86-13-26.72-19.64-41.18-19.9-6.77-.11-8.88.27-13.74,2.55-12.43,5.83-21.65,19.42-22.53,33.2-.54,8.59.63,13.33,5.16,20.85l3.43,5.71-3.15.47c-1.74.27-9.91,1-18.16,1.56-17.55,1.26-21.88,2.79-25.32,8.91-1.74,3.09-2.19,5.49-2.17,11.75,0,12.53,4.15,19.08,13.56,21.6l4.15,1.11-3.36,4.4c-1.85,2.42-3.44,5.39-3.52,6.58s-.25,3.3-.35,4.67-.73,16.45-1.39,33.5-2.09,53.28-3.19,80.5c-2.89,71.39-2.75,101.61.66,138.23l.59,6.25h6.18l-.06-2.75c0-1.51-.78-16-1.66-29.23-1.68-25.08-2.05-49.2-.95-60.85l.65-6.85,11.09.64c6.11.35,13.23.88,15.85,1.19l4.75.56v4.65c0,9.34,6.41,81.53,7.56,85.32a2.93,2.93,0,0,0,4.41,1.85c1.05-.65.87-5.2-1-24.15-1.24-12.85-2.43-23.66-2.64-24-1-1.69-3.44-59.27-4-94.34-.78-48.42,1.5-107.34,4.58-118,.48-1.65,1.13-4.19,1.45-5.63.57-2.61.67-2.64,12.34-3.3,6.47-.36,13-.9,14.48-1.19l2.73-.53-.17,87.32c-.2,104.6,1.44,168.38,4.83,185.62h0l.54,2.75,7-.52c-.81-.17-1.15-.41-1.17-.72,0-.7-.46-6.19-1-10.32s-1.37-19.64-1.91-34.5-1.27-33.18-1.63-40.75l-.66-13.75,14.86,0c8.18,0,15.37.35,16,.75,1.76,1.14,4.6,53.33,4.21,77.24l-.33,22.62,6.63.54.08-28.4c.05-15.48-.59-35.47-1.56-48.69-.91-12.33-1.65-23-1.65-23.59,0-.81,4.17-1.39,13.25-1.86,7.29-.38,18.87-1.08,25.75-1.56,4.29-.3,10.25-.47,15.76-.48,3.31,0,6.45.05,9,.16l12.23.56.49,3.1c.7,4.5,2.46,53.68,2.77,77.6l.28,22.17,6.5.5,0-8.43c-.09-21.7-1-55.39-1.94-72.75-3.27-59.52-6.84-110.36-9.57-136.5-1.77-17-7.43-57.09-8.23-58.41-.21-.34,1.33-.5,4.09-.48h0c1.66,0,3.75.09,6.17.23,5.94.37,12.22.67,14,.67,3,0,3.19.23,4.4,5.75,5.06,23.1,12.26,68.46,15.58,98.25,4.75,42.54,9.94,147.84,8.08,163.87l-.7,7.8,7.34-.68c-.08,0-.13,0-.13-.07.16-6.38-1.36-75.49-1.93-86.93-.42-8.52-.69-15.6-.61-15.72a9.43,9.43,0,0,1,2-.06c8.81.11,43.34,1.85,45.14,2.35,2,.56,2.2,1.49,2.78,11.27.34,5.86.83,27.48,1.09,48,.31,25.81.79,37.46.79,38.69a.8.8,0,0,1-.37.73l6.57-.23a.89.89,0,0,1-.28-.71c0-3.35-.85-94.19-3.74-144.36-4-69.25-7.8-104.38-13-119.76-1.36-4-2.47-7.42-2.47-7.63a9.42,9.42,0,0,1,3-1.61c3.93-1.63,8.47-6.87,10-11.57,1.64-5,.55-16.38-2.06-21.49-4.09-8-12.28-10.92-30.85-11-5.84,0-12.91-.28-15.71-.62l-5.09-.61,4.37-4.5c11.31-11.63,16.12-28.68,11.73-41.56a32.13,32.13,0,0,0-6.25-9.62c-5.87-6.26-12.6-9.46-20.36-9.61h0Zm65.62,3.34a24.7,24.7,0,0,0-9.42,2c-4.57,2-13.32,9.07-14.91,12.07-1.26,2.35.36,9.42,2.46,11.74,2,2.15,1.8,4.79,15.58,1.1,9.81-2.62,13.54-4.7,14.92-8.31,2.09-5.5.37-14.14-3.44-17.29C706.65,488.55,704.75,488.13,702.49,488.12Zm-327.21,1.19c-3.72,0-8,3.37-9.83,7.64-1.69,4-1.79,11.37-.21,14.84,1.81,4,6.09,6,22.33,10.43,8.25,2.27,17.7,5,21,6,9.07,2.93,10.56,2.64,12.49-2.43,1.32-3.47.47-9.84-1.85-13.85C415,504.71,385.17,489.31,375.28,489.31Zm260.45,1.92h0a21.81,21.81,0,0,1,15.06,5.57c12.84,11,10.22,30.14-6.32,46.2-7.41,7.2-7.6,7.31-12.79,7.31-2.9,0-5.56-.28-5.89-.62s-11.07-.9-23.82-1.25l-23.2-.63,2.7-3.2c4-4.74,12.66-8.69,17.62-8,4.78.64,5.61-.28,3.08-3.41-2.41-3-7.78-3-14.4-.06l-4.7,2.08V533c0-7.91,21-29.51,35.84-36.91,6.28-3.12,11.83-4.73,16.82-4.81ZM702.84,494h0a2.44,2.44,0,0,1,1.15.27c.68.42,1.48,2.64,1.79,4.93.78,5.81-1.14,7.57-10.52,9.66-4.21.94-8.22,1.92-8.92,2.19-1.25.47-4.51-5.54-3.71-6.83a53,53,0,0,1,5.73-4.3c4.74-3.27,10.81-5.75,14-5.92h.52Zm-329.11,1.37c1.73-.05,4.42.78,8.91,2.31a110.1,110.1,0,0,1,24.2,11.89c6.88,4.35,8.23,6.1,8.23,10.69,0,3.47.09,3.45-6,1.48-2.48-.8-11.19-3.23-19.35-5.39s-15.9-4.61-17.18-5.45c-3.21-2.1-3.85-4.85-2.46-10.63.8-3.32,1.42-4.83,3.65-4.9Zm102.71,2c6.87,0,14.51,2.26,22.63,6.74,7.47,4.12,18.63,14.43,23,21.25,3.94,6.13,3.78,7.13-.75,4.9-8.94-4.39-32.42-6-38.65-2.69-3.6,1.93.81,3.78,9,3.78,8.85,0,22.52,2.5,27.48,5,3.55,1.81,8.94,7.22,8.94,9a8.27,8.27,0,0,0,.55,2.26c.45,1.18-2.27,1.54-15.89,2.07-9,.36-21.77,1.07-28.3,1.59-29.42,2.34-28.59,2.36-31.1-.85-4.56-5.82-6.59-12.09-6.68-20.59-.07-7.14.28-8.75,3.21-14.71,5.81-11.79,15.12-17.81,26.58-17.75Zm64.15,16.28h0a11.64,11.64,0,0,1,7.7,3.44c4.26,4.05,6.13,11.1,5.52,20.83-.28,4.54-.82,8.74-1.19,9.34s-4.21,1.1-9.54,1.1h-8.87l-1.2-5.76c-1.64-7.89-1.69-20.07-.09-23.91a7.91,7.91,0,0,1,7.67-5Zm28.95,5.87H570c1.71.12,3.37,1.42,4.76,4.1,2,3.93,1.92,13.5-.23,20l-1.57,4.75h-7.54c-7.34,0-7.52-.06-6.87-2.25a65,65,0,0,0,1.27-8.16c1.13-11,5.54-18.27,9.77-18.43Zm22.3,35h0c2.47,0,8.1.18,14.54.46l15.62.67,1.66,7.47c1.88,8.48,1.53,17.66-.92,23.47-1.4,3.35-1.93,3.73-4.87,3.54-1.82-.12-8.82-.36-15.56-.53s-12.25-.47-12.25-.66a42.47,42.47,0,0,1,1.65-4.22c2.07-4.85,2.07-16.75,0-24.38a27.92,27.92,0,0,1-1.22-5.76,6.52,6.52,0,0,1,1.34-.06Zm-6.83.19,1.24,5.57c1.62,7.3,1.61,19.6,0,24.31l-1.3,3.75H567.65c-9.49,0-25.36.3-35.26.65l-18,.66-.65-2.41c-1.86-7,.42-25.62,3.66-30,1.05-1.42,5.33-1.68,34.4-2.07Zm-72.93,1.25h0c0,.07-1,2.32-2.24,5-1.9,4.16-2.25,6.61-2.25,16.63l0,11.75h-4.11a74.59,74.59,0,0,0-8.53.61c-5.11.7-6.08-.07-7.74-6.11-1.4-5.1-1.4-12.14,0-20.17.6-3.48,1.17-6.37,1.25-6.42.24-.15,23.65-1.42,23.65-1.29Zm115.22.38h8.83c4.85,0,18,.48,29.13,1.07,22.38,1.18,24.67,1.82,28.15,7.78,1.37,2.34,2,5.37,2,10.6.13,8.24-.27,9-8.72,15.7h0c-5.32,4.24-4.75,4.17-19.74,2.35-5.82-.7-15.94-1.58-22.5-1.94s-13.12-.9-14.59-1.18l-2.68-.5,1.63-3.69c2.17-4.91,2.18-20.09,0-25.94Zm-146,1.52a6,6,0,0,1,1.61.1c.22.18-.23,1.79-1,3.6-2.07,4.91-1.86,21.41.33,25.41l1.71,3.12-4.71.6c-2.59.33-10,.9-16.39,1.27l-11.68.67-2-3.36c-3.06-5-3.59-11-1.79-20.2.87-4.41,1.94-8.36,2.38-8.77C450.45,559.62,474.76,557.84,481.34,557.83Zm-41.41,2.48h3.94l-1.48,4.75c-2.06,6.59-2.05,18.77,0,23.63.9,2.13,1.65,4,1.65,4.17,0,.68-15.19.9-19.66.28-10.48-1.46-13.66-3-16.09-7.81-4.51-8.91-2.1-19.64,4.92-21.87,3.67-1.16,20.48-3.15,26.69-3.15Zm78.11,35h69.74l2.2,16.25c3.7,27.32,5.87,48,8,76.25,1.12,14.86,2.29,29.82,2.59,33.25l.55,6.25H587.85c-7.31,0-22.06.67-32.78,1.49s-21.6,1.75-24.18,2.08l-4.67.6-.53-4.33c-.3-2.39-.77-19-1.05-36.84-.53-33.68-2.7-66.17-6.09-91.25Zm-10,.15a15.1,15.1,0,0,1,3.68.15c.73.73,4.07,32.6,5.37,51.2.61,8.8,1.38,31.66,1.71,50.79l.59,34.78-15.68-.22L488,731.94l.29-67.71.28-67.7,11.32-.71C503,595.62,505.88,595.5,508,595.46ZM626.76,597l12.41.66c6.82.37,19.44,1.4,28,2.3l15.64,1.63,1.71,3.59c2,4.24,6.85,36.69,8.42,56.59,1.53,19.45,4.08,59.23,4.08,63.75,0,4.28.15,4.25-13.49,2.65-3.85-.45-13.75-.75-22-.66l-15,.16-.26-4c-2-30.34-13.14-103.93-18.87-124.33Zm-179.88,1.6h0a3.34,3.34,0,0,1,.9.05c.16.15-.36,2.49-1.15,5.2-2.55,8.77-4.67,43.49-5.27,86.17l-.59,41.25H412.06l.54-9.75c1-18.93,2.47-66.89,2.53-84.71.07-20.5.79-26.52,3.65-30.35,3.6-4.84,7.76-6.47,18.64-7.31,4.16-.32,7.82-.53,9.46-.55ZM646.83,733l17.37.69c15.49.61,32.69,2.08,33.39,2.85.15.15.44,6.47.65,14l.39,13.75H696a7.28,7.28,0,0,1-3-.43c-.24-.24-10.18-.58-22.09-.75l-21.65-.32-.6-8c-.34-4.4-.88-11.11-1.2-14.91Zm-45.84.82.5,5c.28,2.75.77,8.94,1.1,13.75l.59,8.75H585.39c-9.79,0-25.45.71-34.81,1.57s-18.41,1.93-20.13,2.38l-3.12.82-.63-6c-.35-3.31-.63-9.93-.63-14.7v-8.67l23.75-1.34c13.06-.74,29.92-1.38,37.46-1.43Zm-188.62,3.5h28.5l.43,4.75c.24,2.62.53,9.59.65,15.5l.23,10.75-6.8-.2c-3.74-.11-10.74-.36-15.56-.54l-8.75-.33v-3.71c0-2,.3-8.78.66-15Zm75.7.29,14.75.43c8.11.24,15.31.61,16,.83.91.28,1.24,3.82,1.24,13.17h0v12.78l-16,.3-16,.29V737.6Z" class="cls-7" id="path1402"></path><path d="M222.43,296.53s-1.89,12.31,6.06,22.54,14.21,7.77,13.26,6.06-3-18.94-3-18.94Z" class="cls-8" id="path1473"></path><path d="M765.25,325.74l18.21,14.46-2.27-14.06Z" class="cls-8" id="path1475"></path><path d="M740.74,349.31c2.42,2.86.27,14.87,9,22.5S760,374.09,760,374.09l1.93-13Z" class="cls-8" id="path1477"></path><path d="M810.53,365.48c-2.42,1.78-10.19,5.8-10.19,5.8l14.19,7.77Z" class="cls-8" id="path1479"></path><path d="M160.5,390.57a21.81,21.81,0,0,0,11.08,6.82c6.91,1.61-9.47,6.53-9.47,6.53S158,397.49,160.5,390.57Z" class="cls-8" id="path1485"></path><path d="M755.82,287.66h-.3l1.42,15a7.55,7.55,0,0,0-1.07-15Z" class="cls-9" id="path7004-5-5-1-7-6-7-2"></path><path d="M796.5,294.8a7.55,7.55,0,0,1-7.55,7.55h0a7.55,7.55,0,1,1,7.55-7.55Z" class="cls-9" id="path7004-5-5-1-7-6-7-12"></path><path d="M241,269.78a7.55,7.55,0,0,1-7.55,7.55h0a7.55,7.55,0,1,1,7.55-7.55Z" class="cls-9" id="path7004-5-5-1-7-6-7-12-4"></path><path d="M828,426.46s.75,13.45-9.1,21.41-18-7.58-18-7.58,5.78,30.31,24.81,25.67,8-32.87,8-32.87Z" class="cls-8" id="path2840"></path><path d="M714.88,409.23s-6.72,21.88,8.24,24S745,417.47,745,417.47s-3.32,24.62-12.69,29-31.15-2-28.27-16S714.88,409.23,714.88,409.23Z" class="cls-8" id="path2842"></path><path d="M228.24,172.59H226.9c-15.38.29-28,8.63-35.05,23.7-1.81,3.84-3.87,7-4.58,7-3,0-6.88,3.09-9.21,7.17s-2.48,5.31-2.48,17.35c0,11.77.26,13.59,2.65,19.28,2.2,5.27,2.47,6.81,1.61,9.6-1.25,4.08,1,9.64,4.77,11.64,1.9,1,2.47,2.12,2.47,4.9,0,4.62,5,13.39,9,15.73,2.91,1.72,3,2,3,8.82l-.06,7-10.69,9.77c-11.95,10.91-18.37,17-40.58,29.77-14.2,8.2-19.4,15.7-21,17.75-8,10.38-22.07,45.42-29.81,74.21-2.48,9.18-3.13,13.64-3.22,22.09-.1,10.24,0,10.83,3.4,17.47,5.59,11,16.39,17.49,31.72,19.15,5.76.62,16.17-1.08,20.61-3.38,1.57-.81,3-1.29,3.27-1.06.74.74-2.39,16.57-4.56,23.1a103.38,103.38,0,0,1-7.7,15.74c-10,16.85-11.34,20.28-11.34,29.69,0,5.36.52,9.31,1.47,11.15,2.07,4,8.54,9.28,16.47,13.45l6.76,3.55.59,8.77a195.75,195.75,0,0,0,3.14,21.1c8.85,43,9.6,52.9,10,132.68.36,68.09.44,68.93,6.8,73.71a27.51,27.51,0,0,0,4.85,3c1,.37,1.84,2.32,2.24,5.22.6,4.39.44,4.8-3,7.84-4,3.62-18.09,11.67-20.38,11.7-2.89,0-13.68,5.79-15.75,8.42a17.45,17.45,0,0,0-2.76,6.62l-.67,4H125.51c-6.58,0-9.93,0-11.8-.34l-26.25.34H69.36L63,870.26l-11.72.28-11.72.28s-4.64.18-4.64,2.5,4.64,2.5,4.64,2.5l60.5.5c92.33.76,882.78.89,913.5.15l27-.65s4.5-.16,4.5-2.53-4.5-2.47-4.5-2.47l-13.81-.5-13.81-.5-3.88.5H942.52l-1.8-8.75c-1.92-9.31-7.94-28.9-10.31-33.53-.46-.91.62-3.68.33-6.24s-2-5.21-2.07-9.76c-.66-26.76-5.87-42.2-31.75-94.19l-13.92-28-3-35c-1.64-19.27-3.89-41.24-5-48.83-4.6-31.7-14.32-58.27-26-71-7.22-7.93-12.84-19.15-10.44-21.63,6.94-7.2,7-11.44,2-21.88-1.93-4-3.5-7.88-3.5-8.58s1.81-2.08,4-3.08c6.67-3,13.52-10.66,18.48-20.63,8-16.06,11-33.13,10.91-62.85l0-16.36a38.85,38.85,0,0,0,17.27-18c2.59-5.59,2.83-7.1,2.83-17.61s-.23-12-2.76-17.12c-4-8.08-9.72-14.14-22.24-23.42-12.68-9.4-18.29-15.14-22-22.55L840.85,276l2.86-9.08c4-12.73,4-24.47,0-33a56,56,0,0,0-29.44-28c-15-6.11-34.27-7.1-44-2.25-5.73,2.86-10.18,8.78-11,14.61-.56,4.13-.63,4.2-3.68,3.47-13.37-3.21-21.77,8.42-15.48,21.42,4.44,9.18,1.09,19.16-11.87,35.22C716.45,293,711.18,301.19,709,308.13c-2.35,7.63-2.53,16.93-.46,23.9,2,6.8,8.81,16.82,12.52,18.46,1.63.72,3,1.54,3,1.82s-1.36,4.1-3,8.5-5.24,16.78-8,27.5c-8.61,33.94-10.75,39.65-15.64,41.88a10.7,10.7,0,0,0-4,4.57c-1.4,2.94-1.47,4.11-.47,7.47a16.22,16.22,0,0,0,2.72,5.51c.84.84,2.21,3.84,3,6.67,2.22,7.5,9.26,14.25,17.29,16.61,7.37,2.17,7.16.57,3.39,26.08-3,20.61-2.73,26.24,2,36.65,2.2,4.81,2.66,6.51,5.08,6.51,5.36,0,5.76-.47,4.62,13.53-1.72,21.14-1.24,45.35,1.51,76.83,2.51,28.68,8,72.41,10.93,86.19,2.43,11.59,3.41,22.49,5,55.5,2.22,46.89,4.2,55.46,14.68,63.69,7.76,6.09,7.85,8.33.61,14.24-6.16,5-15.52,9.89-25,13-3.74,1.23-8.07,3.31-9.65,4.64-2.61,2.2-3.08,1.87-12.35,1.87-5.78,0-148.4.3-148.4.3l-179.26.24H371l.59-2.37c.76-3-1.19-10.31-3.71-13.85-1.15-1.62-4-3.46-7-4.51-5-1.76-22.19-14.61-28.35-21.2-2.63-2.81-3-3.93-3-9.09s.29-6,2.2-6.89c2.72-1.24,5-5.56,5.9-11,.66-4.09.3-7-5.66-46.56-5.18-34.35-7.59-55.63-10.89-96C320,645.06,318.6,628.2,318,621.34c-1.14-14-5-34.11-8.31-43.4l-2.19-6.13,7.26-7c5.48-5.29,7.26-7.67,7.26-9.7,0-1.48-.56-3.05-1.25-3.49s-2.54-3.27-4.11-6.3-4.8-9.1-7.18-13.5c-5-9.22-10.44-26.41-13.91-43.87-4-20-4.11-23.76-1.09-34.13,1.44-4.95,3.6-14.29,4.79-20.75,1.36-7.38,2.62-11.75,3.38-11.75,2.16,0,15.95,10.2,28.28,20.91,6.59,5.73,15.95,13.28,20.79,16.78,9.12,6.6,24.57,14.71,29.8,15.65,3.47.62,10.24-1,12.69-3.11,1.47-1.24,2-1.22,4,.17a10.29,10.29,0,0,0,5,1.6c2.1,0,3.43,1,5.72,4.35,7.84,11.39,19,16.86,29.1,14.24a24.31,24.31,0,0,0,15.21-12.5l2.3-4.83,7-.71c11.48-1.17,16.53-4.2,16.5-9.87s-.9-6.12-12.69-6.77c-5.93-.33-12.66-1.18-15-1.88l-4.15-1.29,1.9-3.12c2.45-4,2.42-7.11-.09-9.62s-6.51-2.53-17.5.53l-9,2.49-2.5-2.9a27.91,27.91,0,0,0-5.13-4.55,7.89,7.89,0,0,1-3.23-4.6c-.32-1.63-1.23-3-2-3s-1.71-1.18-2.08-2.63-4.58-6.51-9.37-11.25c-8.61-8.52-10.16-9.58-37.68-25.79a191.44,191.44,0,0,1-41-31.79c-6.05-6.14-13.11-12.6-15.69-14.36-6.77-4.6-20.93-11.47-31.05-15-9.22-3.25-23.16-9.87-27.92-13.26-3.18-2.26-3.76-4.87-1.09-4.91,3.57,0,10.28-4,14.76-8.65,6.94-7.24,10.24-15.07,12-28.51,1.16-8.68,2.42-13.42,5.4-20.31,8.69-20.16,8.94-26.38,1.72-41-2.45-4.95-5.86-12-7.56-15.63-5.42-11.54-16.25-19.1-32.21-22.49a48.88,48.88,0,0,0-9.72-1.11Zm-.81,6.33h0c14.55,0,27.41,5.53,34.69,15,4.66,6,12.22,21.12,14.48,28.89,1.77,6.08,1.54,8.41-1.83,18.54l-2.16,6.5L272,238c-.53-7.76-1.12-10.47-2.78-12.71-1.53-2.08-2.1-4.32-2.1-8.32,0-8.5-2.12-8.38-11.16.62a65.08,65.08,0,0,1-14.84,11.29c-7.37,3.91-7.68,4-18,4-9.4,0-10.84-.24-13.77-2.33-4.59-3.27-7.58-9.49-6.93-14.4.44-3.22.25-3.83-1.11-3.57-4.47.86-5,9.76-1.06,16.83,2.36,4.2,8.71,8.66,13.61,9.58,2.61.49,3.23,1,2.71,2.26-1.6,3.91-2.42,8.27-3.28,17.63-.51,5.5-1.42,11.24-2,12.75-1.41,3.52-4.36,3.57-7.07.12-2.51-3.19-4.41-9.76-3.58-12.38,1.39-4.37-5.88-10.4-11.83-9.81-3.07.31-3.24.12-5.44-6.18-1.91-5.48-2.22-8.18-2-17.2s.61-11.13,2.38-13.5,2.86-2.82,6.93-2.89c5.4-.1,6.6-1.48,3.87-4.5-1.72-1.89-1.71-2.1.19-5.42,4.24-7.43,11.27-14.31,18-17.63,5.8-2.85,7.59-3.26,14.74-3.26Zm559.49,27.51c27.59-.21,51.46,17.78,52.91,40.38.34,5.36-.18,9.54-2.22,17.79L835,275.39l3.43,7.21c4.48,9.44,10.4,15.86,23.62,25.62,15.88,11.72,20.77,18,23.06,29.66,2.13,10.79-1.75,23.5-9.82,32.25-2.12,2.3-4.32,4.18-4.88,4.18s-1.32-3-1.7-6.75c-1.16-11.52-6.21-24.65-7.81-26.25-7.66-7.66-19.9-5.93-30,.65-4.07,2.66-7.6,1-9.77-4.57-1.9-4.88-7-10.08-9.93-10.08-1.27,0-2.43-1.37-3.6-4.25-2.83-7-3-15-.48-27.12,2.14-10.4,2.24-14.09.75-27.48-.21-1.91.5-2.66,3.78-4,5.69-2.32,10.74-5.67,12.24-8.13,2.09-3.41.4-4.15-3.65-1.6a36.44,36.44,0,0,1-18.08,5.58c-4.21,0-5.22-.41-7.46-3.07s-2.59-4-2.59-9.79c0-14.93-9-22-20.42-16.18a17.62,17.62,0,0,0-5.24,4c-1.17,1.68-1.85,1.84-4.06,1a7.17,7.17,0,0,0-9.11,3.92c-1.81,4.84-3.49,26.74-2.78,36.38.92,12.57,3.25,26.79,5.47,33.36l1.83,5.42h-2.22c-3.67,0-9.07,2.73-11.78,6s-3.23,4.45-4.15,11c-.55,3.91-1.17,4.83-4.72,7a30.12,30.12,0,0,0-6.6,6.28l-2.22,2.88s-5-3.32-8.81-11.08c-3.48-7.05-3.69-8-3.69-17.08,0-8.88.25-10.08,3.29-16.05,1.81-3.55,6.92-10.95,11.36-16.45,9.38-11.6,15.42-20.25,16.93-24.2,3.39-8.85,3-20.33-.79-24.53-1.35-1.49-1.42-2.38-.44-5.65.64-2.13,1.84-4.44,2.67-5.13,2.15-1.78,8.68-1.56,11.67.4,3.23,2.12,4.2,1,5.73-6.41,2.39-11.7,6.75-15.1,20.25-15.78C785.14,206.47,786,206.44,786.92,206.43ZM260.81,221.35c.73-.07,1.27.9,1.27,2.71a14,14,0,0,0,1.71,5.75c1.41,2.47,1.78,6.37,2.07,21.73.32,16.39.11,19.74-1.7,26.9-3.07,12.13-9.4,21-17.33,24.33-6.41,2.68-13,.12-22.48-8.77-2.72-2.56-3.31-2.77-3.84-1.37-1.32,3.43,7.22,13.09,13.78,15.58,2,.74,2.65,1.9,3.17,5.28a45.31,45.31,0,0,0,7,18.6c3.63,5.27,3.49,7.76-.59,10.62-2.95,2.06-5.39,2-10.35-.27-9.3-4.26-22.24-17.69-27.94-29-2.61-5.18-2.66-5.6-1.52-12.36a61.17,61.17,0,0,0,.5-14.2l-.67-7.2,3.56.42c3,.35,4-.1,6.45-2.68,3.08-3.29,4.52-9.12,5.53-22.39a63.41,63.41,0,0,1,1.69-10.68c1.16-3.88,1.25-3.94,7.94-5.06a57.87,57.87,0,0,0,12.61-3.93c5.79-2.75,16.1-10.2,17.64-12.75C259.87,221.81,260.38,221.39,260.81,221.35Zm518.87,13.22a5.5,5.5,0,0,1,2.86,1.13c2.83,1.86,3.25,3.31,3.82,13.12.23,3.87,1.17,8.48,2.1,10.3,2,3.84,7,7.19,10.74,7.19,1.89,0,2.81.65,3.24,2.25,1.27,4.73.55,18.51-1.38,26.57a75.45,75.45,0,0,0-2,14.21v5.89l-4.54,2.66a61.76,61.76,0,0,1-10.59,4.54,43.72,43.72,0,0,1-6.71,1.75l-3-.59c-1.31-.25-5-3.08-8.15-6.3l-5.78-5.85-1.82-11.81c-1.92-12.4-2.62-49.81-1.05-55.69.71-2.64,1.06-2.82,4.34-2.29,3,.48,4,.13,6.38-2.23a19.79,19.79,0,0,1,7.36-4.08A13.93,13.93,0,0,1,779.68,234.57ZM189.89,255.31c3.81,0,6.18,2.82,6.18,7.33,0,4-.76,4.35-5.5,2.29s-6-4.18-4.67-7.15a3.78,3.78,0,0,1,4-2.47Zm60.07,2c-4.14,0-4.83,6.17-1.16,10.25a5.69,5.69,0,0,0,9.8-3.4C258.76,262,252.84,257.31,250,257.31Zm-57.08,13.07a6,6,0,0,1,1.29.1c2.09.29,2.54,1.14,3.56,6.83.63,3.58,1,6.66.83,6.84-.73.75-5.48-7.57-6.11-10.69-.46-2.31-.5-3,.43-3.08Zm581.22,10a5.92,5.92,0,0,0-2.79.94,34.58,34.58,0,0,1-4.49,2c-3.14,1.11-3.64,4-1.12,6.51,4,4,12.41-1.21,11-6.9C776.26,281.2,775.39,280.35,774.1,280.37ZM199.35,313.81l2.61,5.57c5.39,11.5,6.34,13.64,9.77,21.93,4.36,10.58,8.55,22.55,12.4,35.41,2.94,9.87,3.38,13.49.9,7.51-2-4.82-10.7-18.27-19.14-29.58-10-13.42-11.56-17.45-10-26.21.64-3.64,1.68-8.43,2.32-10.63Zm600.25,4.71,2.53,5.37c1.86,3.92,2.2,5.49,1.3,5.84-.69.27-1.72,2.23-2.29,4.36-.83,3.06-2.12,4.57-6.14,7.18-5.31,3.44-10.55,9.69-11.59,13.84a10.31,10.31,0,0,0,1.07,5.93c1.56,3.27,1.56,3.68,0,6.14a45.72,45.72,0,0,1-4.23,5.39c-1.41,1.51-3,2.75-3.64,2.75-2.22,0-5.22-3-7-6.9l-1.83-4,3.14-2.93c2.72-2.54,3.14-3.61,3.14-8,0-5.58-2.91-14-6.44-18.64a7.48,7.48,0,0,1-1.8-6.27c.39-2.71.72-3.07,1.91-2.08a21.42,21.42,0,0,0,6.14,2.37c3.8.95,5,1.82,6.39,4.58a17.6,17.6,0,0,1,1.77,5.9c.08,3.33,1.51,5.45,3,4.51,1.27-.79,1-10.39-.44-13.68-.55-1.29.27-2.1,3.66-3.6a36.62,36.62,0,0,0,7.84-5Zm-608.44,1.67-.8,5.31c-2,13.15-.51,17.31,11.74,33.82,10.07,13.56,14.3,20.6,23.57,39.24,7.45,15,7.65,15.56,10.4,31.26,3,17.3,4,24.85,6.63,51,2,20,1.13,38.9-3.15,68.25-4.11,28.22-3.44,26.44-11.29,30a81.43,81.43,0,0,1-13.19,4.57c-11.28,2.58-31,2.82-44.85.54-10.86-1.78-24.9-7.61-32.73-13.58-3.21-2.44-3.41-3-3.41-8.51,0-7.53,2.5-14.61,9-25.29,9.65-16,13.71-27.68,14.74-42.49.52-7.38.66-7.71,5.25-12.58,6.45-6.84,9.76-11.39,16.38-22.5,3.11-5.22,7.44-12.35,9.62-15.85,5.7-9.17,7.59-15.38,6.14-20.22a23,23,0,0,0-3.74-6.91c-3.67-4.37-3.72-12.9-.11-22.65,6.4-17.35,3.85-30-6.49-32.06-2.53-.51-2.74-.86-2.2-3.75.94-5-.89-5.8-15.09-6.34-12.43-.48-12.31-.22-16.59,2.38-4.53,2.74-3.93,6.59-3.61,10.38.71,8.36,3.54,18.17,7.26,24.06,2.54,4,2.41,7-.32,7a20.73,20.73,0,0,0-5.64,1.89,43.21,43.21,0,0,1-6.8,2.52c-7.62,1.73-14.43,13.15-25.08,42.09-6.43,17.47-7.64,22.5-5.42,22.5,1.61,0,2.09-1,12.64-26.76,8.8-21.48,11.08-26,15.11-29.74l3.21-3-.47,4c-.59,5,.92,8.07,6.31,12.94,11.33,10.24,29.81,11.44,37.4,2.42l2.52-3,1.17,2.56c1.81,4-.09,8.6-10.72,26.2-17.65,29.22-27,37.7-43.3,39.06-13,1.09-25.81-4.05-31.44-12.58-4.07-6.16-5-10.62-4.39-20.54C100.71,435,118,386.05,131.44,365c2-3.13,8.47-10.11,14.38-13.42,14.41-8.07,30.48-18.74,38.65-25.68Zm564.17.2c2.66,0,4.85,1.77,6.06,5.17.75,2.12-.16,2.19-2.76.23s-7.19-1.89-8,.19c-.62,1.63.87,3.29,3,3.32S763,337.86,766,343.67c3.39,6.47,3.87,10.69,1.49,13.07-3,3-9.81,1.34-15.27-3.74-4.34-4-6.47-9.64-6.94-18.23l-.44-8,3.65-3.2c2.4-2.12,4.76-3.15,6.83-3.13Zm-509,3.41h.13a37.43,37.43,0,0,1,6.32,2.67c5.83,2.89,6.3,3.4,9.29,10.1a132.09,132.09,0,0,1,5.67,16.49c1.38,5.19,2.36,9.58,2.18,9.77s-2-3.35-4.1-7.84a104.16,104.16,0,0,0-14-21.68c-2.14-2.53-6-9.08-5.57-9.49l.07,0Zm21.47,9.09a22.17,22.17,0,0,1,4.45,1.3c13.17,4.54,35.82,17.72,38.84,22.61,2.86,4.61,17.08,18,27,25.37,7.86,5.85,12.28,8.61,34.61,21.63a140.37,140.37,0,0,1,28.17,21.33c6.36,6.33,6.41,6.42,5.76,10.75-.36,2.4-3.05,9.25-6,15.23-6.05,12.33-10.78,17.2-16.7,17.2-3.78,0-12.84-4-21.54-9.55-9.43-6-31.15-22.61-40.31-30.83-4.68-4.19-10.2-8.47-12.27-9.5L306,416.55l4.77-3a93.47,93.47,0,0,1,8.52-4.8c2.06-1,3.75-2.36,3.75-3.08,0-2.42-6.12-1.4-13.16,2.19L303,411.34l.65-7.9c.83-9.9-.06-15.38-2.41-14.93-1.31.24-1.87,1.92-2.47,7.31-1.68,15.06-7.86,53.66-9.87,61.58-1.63,6.44-2,10-1.51,15.51,1.34,15.87,9.54,47.21,15.4,58.9,1.38,2.75,5,9.19,8,14.3s5.21,9.94,4.91,10.72c-.91,2.39-12.36,10.24-17.9,12.28a53.08,53.08,0,0,1-9.5,2.47c-4.15.53-4.32.44-5.84-3.11-2.62-6.13-4.15-18.12-3.27-25.76,1.15-10.05,2.88-55.92,2.88-76.34a559.58,559.58,0,0,0-3.53-61.72c-.81-6.69-1.47-16.81-1.47-22.5a131.36,131.36,0,0,0-9.51-48.07C267.24,333.28,267.15,332.87,267.77,332.89Zm542.06.74h0c5.33-.12,9.47,12.84,5.43,22-1.68,3.78-3.38,5.51-9.22,9.28-5.19,3.36-6.85,4.93-6.06,5.73s2.23.8,5.12,0c2.21-.59,4.17-.79,4.36-.45s1.56,5.34,3,11.12c7,27.24,14,48.45,17,52,2.16,2.49,4.51,10.77,4.51,15.9,0,6.09-2.52,9.5-9.42,12.71h0c-6.38,3-7.33,3-11.36-.22-6.62-5.22-12-21.43-13.67-41.39-2-24.07-7.12-56.47-9.57-61-1.52-2.85,1-7.15,7.13-12,2.79-2.2,5.45-4,5.91-4a5.5,5.5,0,0,0,2.44-1.61c1.27-1.27,1.36-1.9.41-3.05s-.8-1.86.85-3.5a4.45,4.45,0,0,1,3-1.52Zm-592.69,5a14.53,14.53,0,0,1,3.39,2.5c6.88,6.05,12.48,8.61,18.86,8.65,5.61,0,6.07-.17,9.19-3.77l3.29-3.8,3.62,6c4.89,8.05,9,18.23,13.14,32.63,2.8,9.71,3.78,15.64,5.12,31,2.06,23.69,2.27,78.05.42,112-1,18.49-1,26.2-.16,33.43l1.15,9.4-2.8,2.37a45.16,45.16,0,0,1-7.79,4.82c-3.95,1.93-6.46,2.41-12,2.33-7.26-.11-10.48-.59-11.72-1.74-.39-.37,0-3.14.76-6.16,2-7.5,5.12-27,6.54-41.33,1.82-18.33.68-46.86-3-74.33-5.8-43.62-12.5-72.14-24.22-103.07-2.14-5.65-3.89-10.53-3.89-10.86,0,0,0-.06.08-.06Zm522.45,3.61c.32,0,.55.23.66.65.33,1.24-3.8,10.76-11.24,25.94-6.47,13.19-11.8,23.51-11.85,22.94-.12-1.4,7.37-25.39,10.54-33.76,2.71-7.14,9.61-15.94,11.89-15.77Zm107.32.22c.68,0,1.35.06,2,.13,3.74.42,5.22,1.22,7.74,4.13,2.84,3.28,3.28,4.75,4.86,16.35,5,36.51,1.9,78.81-6.94,94.45-4.17,7.38-11.45,14.84-17,17.43a30.16,30.16,0,0,1-20.79.83c-5.51-2-16.69-10.58-17.39-13.31a4,4,0,0,1,.86-3.8c1.28-1.28,1.8-1,4.18,2.45,4.07,5.88,7.84,7.51,16.29,7,8.06-.45,14-3.56,17.37-9.14,3.69-6.06,1.8-21.77-3.31-27.41-1.1-1.21-3.25-6.68-4.78-12.14-2.19-7.8-2.61-10.75-1.94-13.72,1.26-5.59,2.35-27.68,1.57-31.84-.67-3.57-2.88-4.86-3.88-2.27a115.37,115.37,0,0,0-1.24,12.57c-.4,6.18-1.08,10.87-1.5,10.42s-2.53-7-4.67-14.46l-3.88-13.64,3.19-3.49a19.23,19.23,0,0,0,4.44-9.05c1.21-5.4,1.34-5.55,4.11-5,2.08.42,3.9-.12,6.61-1.95a24.44,24.44,0,0,1,14.08-4.57Zm-103.75,9.7,4.06,4.06a22.11,22.11,0,0,0,8.21,5.26,42.94,42.94,0,0,1,4.49,1.44c.2.14-1.26,4.45-3.23,9.57-5.71,14.82-17.55,53.35-19.17,62.38-.84,4.71-2.84,7.24-7.17,9.07a19.09,19.09,0,0,1-13.7-.09c-4.78-2.11-10.58-8.51-10.58-11.69,0-1.55,6.43-15.86,14.59-32.5,13.46-27.4,17.17-35.2,21.06-44.19Zm-577.88,5.14h0c8.33,0,10.88.29,10,1.14-.62.62-2.8,1.27-4.83,1.43-3.94.31-6,1.65-5.06,3.23.32.53,4.84,1.73,10,2.66s10.18,2.24,11.09,2.91c2.91,2.12,2.91,8.38,0,20.57-1.95,8.14-3.4,12.08-5.06,13.74-1.86,1.86-3.38,2.31-7.62,2.28-5.77,0-11.51-2-12.38-4.31-.3-.79,0-3.34.58-5.66,1-3.74.92-4.45-.83-6.35-2.47-2.67-4.56-7.69-7.7-18.53-2.24-7.73-2.32-8.68-.94-10.79s2.12-2.32,12.69-2.32Zm598.69,14c.19,0,.36.17.52.46,6,10.24,13.57,12.1,20.13,4.94,3.16-3.45,3.21-3.47,3.79-1.16.7,2.78,6.56,46.92,7.28,54.78.62,6.87,2.25,16.48,3.24,19.16.58,1.54,0,2.82-2.55,5.34-4.32,4.31-4.48,8.57-.45,12.33,9.32,8.71,11.6,10.48,16.33,12.67a44.59,44.59,0,0,0,11.93,3.08l6.69.66,4.74,10.09c3.74,6.24,2.88,10.79-.15,14.55-12.5,11.4-30,20.23-50.9,25.77-8.64,2.28-12.36,2.67-27.5,2.93-17.16.28-28.46-.64-30.3-2.47-1.56-1.57-3.66-12.28-3.66-18.61a177.49,177.49,0,0,1,2-19,175.8,175.8,0,0,0,2-19.17c0-6,.1-6.19,3-6.81,4.43-1,10.54-5.86,12.08-9.65a30.79,30.79,0,0,1,5.51-7.62c4-4.15,6.46-9.54,6.46-14.36,0-3.52-3.57-8.74-6.46-9.47-1.4-.35-2.54-.9-2.54-1.22,0-.55,4.27-14.23,14.23-45.65C762.07,374.14,763.18,371.25,764,371.29ZM154.11,400.08l2.23,3.31c3.54,5.24,7.93,7.26,16.13,7.4,3.9.06,7.91-.28,8.9-.74,1.65-.79,1.78-.35,1.5,4.95-.29,5.53-.47,5.88-3.8,7.51-6.13,3-18.32,1.82-23.76-2.28-9.32-7-10.43-10.93-4.72-16.64Zm591.08,34.34c.54-.05,1.16.55,1.85,1.83,2.34,4.38-.15,11-6.38,17-2,1.89-3.59,4.24-3.59,5.21s-1.82,2.83-4.33,4.3c-6.69,3.92-12.1,4.22-18.39,1-5.56-2.81-11.53-9.67-10.58-12.15.3-.79-.35-2.44-1.45-3.65-4.28-4.7-5.56-10.36-2.86-12.6,1.1-.91,1.5-.68,2,1.13,1,3.87,6.61,9.72,11.93,12.42,12.19,6.17,28,.37,30.14-11.07C743.91,435.65,744.49,434.49,745.19,434.42Zm-333.36,6.82,2.62,3.11c1.44,1.72,2.6,3.65,2.6,4.29-.05,2.82-4.12,9.78-8.2,14-4.39,4.58-5.09,4.95-7.53,4-1.81-.73-1.56-1.88,1.44-6.61a106.18,106.18,0,0,0,5.89-11.51Zm32.45,4.22a.63.63,0,0,1,.32.05c1.3,1.3-1.13,3.87-6.1,6.47-4.16,2.17-5.43,3.37-5.43,5.12,0,3.88-3.73,9.87-8.93,14.34-2.72,2.35-4.72,4.63-4.45,5.07s1.85.8,3.5.8c4.55,0,13.59-9.34,14.49-15,.37-2.3,1.31-4.43,2.1-4.73s3.54.42,6.11,1.6c5.69,2.62,13.48,4.12,21.31,4.12,5.77,0,7.56,1.09,4.11,2.51-1,.4-4.76,1.49-8.46,2.44-5.46,1.39-6.8,1.46-7.21.38-1.07-2.78-3.18-1.1-6.08,4.84a30,30,0,0,1-6.74,9.17c-2.85,2.29-5,3.08-9,3.35-6.27.42-9.25-1-16.08-7.54-7.28-7-7.35-7.34-2.83-13.07A52.71,52.71,0,0,0,421,455.12l2.21-5.34,10.42-2.39a78.14,78.14,0,0,1,10.62-1.93Zm-278.48,67c-.55.06-.73.64-.73,1.74,0,2.17,7.24,9.15,12.14,11.71a69.59,69.59,0,0,0,8.86,3.53c6.69,2.16,19.75,2.44,24.28.52,3.63-1.53,7.4-5.29,6.36-6.33-.38-.37-2.81.08-5.41,1-11,3.93-28.45-.21-41.17-9.73C167.82,513.17,166.51,512.37,165.8,512.45Zm666.6,6.15c.48-.06.67.17.67.62,0,3.34,7.09,16.06,10.32,18.53a22.9,22.9,0,0,1,5,5.46l1.78,3L846,549a18.73,18.73,0,0,1-9.79,3.12c-5.18.36-6.08.09-10.55-3.12-5.65-4.05-10.5-10.93-11.14-15.79-.43-3.28-.2-3.52,9.05-9.57C828.79,520.2,831.32,518.72,832.4,518.6ZM808,532.75c.74.15,1.22,1.21,1.86,3.77,1.6,6.34,6.51,13.09,12.58,17.27,8.7,6,16.69,6,25.52.08l5-3.37,4,10.33c7.09,18.14,11.52,38.39,14,64,6.56,67.67,7.15,70.88,15.81,85.5,3.09,5.22,22.71,47.41,26.51,57,4.47,11.27,7.74,24,10.09,39.3l2.28,14.82-4.08,2.38c-7.79,4.56-16.25,4.94-21.9,1-4.12-2.88-13.9-21.71-24.84-47.81-9.16-21.86-12.64-29-17.93-36.81-6.07-8.95-24.11-41.32-37-66.36-13.31-25.91-26.15-54.66-30.52-68.36-.36-1.13-.7-1.14-2-.05-2.1,1.75-1.3,6.6,3,18.11l3.34,8.92-3.36,36.19c-1.85,19.9-3.66,41.81-4,48.69-.74,14.06.72,36.7,3.65,56.75,1.07,7.28,2.46,19.8,3.1,27.8,1.77,22.27-.41,29-10.38,31.93-7,2.06-10.54,1.89-15.26-.75-8.4-4.69-10.74-14.93-13-56.73-1.66-30.69-3.43-47.83-6.52-62.94-4.55-22.24-12-102.61-12-129.51,0-14,.23-16.55,1.5-16.55,4.3,0,13.58-12.44,15-20.11l.67-3.61,10.16-.55a138.2,138.2,0,0,0,43.79-10.15,1.46,1.46,0,0,1,.84-.14Zm-67.74,9.94c.68,0,1.51.15,2.54.29a31.82,31.82,0,0,1,5.08.9c.19.16-.87,3-2.34,6.24a35.73,35.73,0,0,1-6,9.21l-3.35,3.25.5-7.89c.65-10.38.65-12.1,3.59-12Zm-463,28.72,2.95,3c1.88,1.88,4,2.95,5.79,2.95,2.37,0,3.19.74,5,4.52,2.51,5.18,8.78,9.48,13.83,9.48,1.74,0,3.16.19,3.16.41s.65,3.82,1.45,8c2,10.34,3.31,23.71,4.55,45.61,1.42,25.25,3.58,49.66,6.51,73.57,2.42,19.82,7.07,48.94,8.07,50.56.28.46,1.16,7.61,2,15.91,1.24,12.89,1.25,15.56.07,18.4a11.45,11.45,0,0,1-2.48,4c-.6.37-5.71,1.58-11.36,2.69-11.71,2.29-25.62,2.74-30.91,1-4.32-1.43-4.25-1.11-5.88-30.12-.6-10.72-2.23-27.37-3.63-37s-2.7-19.09-2.89-21c-.9-9-17-55.15-25-71.78-2.49-5.13-4.38-10.22-4.21-11.3.22-1.38,2.53-2.92,7.8-5.19,4.64-2,7.62-3.88,7.82-5,.49-2.54-2.85-2.22-12.71,1.21-8.52,3-10.34,4.27-9.39,6.74.67,1.75-1.43,22.41-3.33,32.81-1.12,6.11-1.59,20.63-2,61.5-.52,55-1.8,75.88-4.92,80.67-1.72,2.62-10.4,6-20.32,7.92a51.07,51.07,0,0,1-20.77.32c-7.85-1.31-10.05-2.44-10.84-5.59-.39-1.55-1.09-27.57-1.55-57.82s-1.35-64-2-75c-1-16.92-4.07-43-6.62-55.25-.63-3.08-.52-3.25,2.26-3.25,9.35,0,24.32-17.77,24.32-28.89v-2.81l9.75-.61c12.3-.78,19.61-2.66,29.88-7.69,7.29-3.57,8.46-3.86,11.31-2.87,1.82.63,6.94.93,11.94.69,9.39-.45,14.87-2.69,20-8.18Zm25.71,2,1,3.68c.53,2,1.26,4.92,1.63,6.43s.5,2.73.3,2.69c-3.52-.62-9.16-4.79-10.94-8.1-.73-1.36-.09-1.93,3.57-3.18Zm-143,15.6a20.84,20.84,0,0,1,4.1.86,100,100,0,0,0,13.5,2c8.37.68,8.47.72,8.47,3.39,0,4.72-5.76,14.65-11.3,19.51-5.19,4.54-10.21,6-11.22,3.26-.74-2-4.48-24.72-4.48-27.2C159.07,589.62,159.1,589.07,160,589.05Zm638.49,55.31,9.1,18.73c13.17,27.08,31.57,59.87,41.93,74.73,5.27,7.55,10.54,18.44,20,41.41,8.22,19.87,12.34,28.49,16.53,34.6,1.52,2.21,4.09,6.49,5.71,9.5,2.41,4.46,3.92,5.95,8.06,8,2.8,1.38,5.12,2.93,5.15,3.46s-2.57,5-5.79,10-6.72,10.48-7.77,12.23a21.48,21.48,0,0,1-5.39,5.56c-2.57,1.74-5.52,3.09-5.49,5.07l0,2.69H799.27l-1.08-4.75c-1.58-6.91-4.12-23.73-4.12-27.3a20,20,0,0,1,2.17-7.26c1.2-2.31,2.46-4.87,2.81-5.69,1.13-2.65-.72-35-2.86-50-5-35.18-5.14-46.56-.94-94.23ZM243.1,653.31c1.54,0,19.14,49.26,22.4,62.7,3.95,16.26,7.11,40.87,8.56,66.59.55,9.78,1.72,21,2.61,24.84,1.54,6.78,1.77,7.14,5.75,8.95a21.85,21.85,0,0,0,5.78,1.9c2.56,0,3,3.35,2.93,20.52-.09,14.89.8,25.58,2.46,29.75.65,1.65-1.49,1.75-36.77,1.75H219.36l.47-4.81c.25-2.64-.28-9.06-1.19-14.25s-1.91-13-2.24-17.44l-.59-8,5.38-2.38c3-1.32,5.74-2.32,6.17-2.24,1.7.33,4.85-2.12,5.74-4.47.52-1.35,1.82-8.64,2.89-16.19,1.67-11.76,2-21.34,2.42-67.22.38-43.51.8-56,2.24-66.75C241.63,659.28,242.73,653.31,243.1,653.31Zm80.22,162.22c.71.12.77,1.11.56,4-.29,4-.52,4.35-3.31,4.53-1.65.11-7.05-.83-12-2.09l-9-2.28,5-.73c6.49-.95,15.51-2.59,17.81-3.25A2.2,2.2,0,0,1,323.32,815.53Zm-25,10.09a2,2,0,0,1,.53.1c11,3.41,22.85,4.92,26.25,3.38,1-.45,2.33.37,4,2.44,2.4,3,2.41,3.13.52,4.19-3.71,2.06-9.35,8.23-10,11-1.06,4.22,1.19,5.79,3.6,2.52,2.82-3.86,9.35-8,12.7-8.12,1.88-.06,4.63,1.15,7.57,3.31,5,3.66,5.71,4.9,2.91,4.9-5.48,0-24.22,12-24.22,15.56,0,2.8,2.27,2.46,7.72-1.16,7.16-4.76,18.65-9.32,23.56-9.37s10.25,2.22,11.7,4.93a24.23,24.23,0,0,1,1.68,6.59l.55,4.45H298.37l-.65-10.66c-.36-5.86-.65-16-.65-22.56,0-9.53.12-11.47,1.22-11.48Zm-112.13,2.19h12c7.52,0,11.83.38,11.62,1s-3.14,2.47-6.59,4.25c-10.12,5.26-14.68,4.5-16.39-2.75Zm737.3,1.76c1.2,0,.5,1.94-1.84,4.29-2.61,2.6-6,3.07-8.71,1.21-1.4-1-1-1.37,3-2.79,2.56-.91,5.45-2,6.41-2.42a2.78,2.78,0,0,1,1.14-.29Zm-712.92,6.74c.29,0,.53,1.31.53,2.9,0,2.66,3.27,23.57,4.51,28.85l.53,2.25H144l.66-2.75c.94-4,2.26-5.27,7.88-7.89,7.34-3.43,12.69-3.07,27.15,1.81,6.79,2.3,12.68,3.83,13.1,3.42,1.42-1.42-5.52-6.35-13.65-9.67s-8.14-3.34-5.52-4.71c3.57-1.87,8.21-.86,13.41,2.91,2.74,2,4.58,2.72,5.21,2.09,1.53-1.54-1.69-6.73-5.72-9.22-5.31-3.28-4-4.44,5.1-4.5,6.62,0,8.78-.49,13.14-2.77a47.83,47.83,0,0,1,5.75-2.72Zm716.88,1.14.13,0c1.66,1.75,8.76,30.64,7.88,32.06-.26.43-11.76.78-25.54.78-21.24,0-24.89-.21-23.91-1.38,1.31-1.59,11.21-4.26,19.33-5.22,6.9-.81,8.78-1.78,7-3.61-.8-.8-3.88-1.29-8.14-1.29s-6.64-.37-6.27-1,3-4.76,5.95-9.35c4.74-7.39,5.62-8.27,7.56-7.59,4.34,1.5,9.6.9,12.77-1.44a12.88,12.88,0,0,1,3.29-2Zm-141.15,2c.5,0,.53.39.23,1.16a8.08,8.08,0,0,1-2.76,3c-3.34,2.18-6,2.73-7.92,1.62-3.08-1.78-2-3.62,2.5-4.22a54.87,54.87,0,0,0,6.52-1.25A4.5,4.5,0,0,1,786.27,839.47Zm2.69,7.75.51,3.3c2,13,2.73,17,3.23,18.28s-2.72,1.51-26.27,1.45c-19.64,0-26.19-.35-24.36-1.11,11.25-4.69,21.12-10.27,25-14.12,4.4-4.34,4.66-4.44,9.68-4,4.13.4,5.86.06,8.68-1.67Z" class="cls-10" id="path1431"></path></svg>