<svg viewBox="0 0 1024 1024" xmlns="http://www.w3.org/2000/svg"><defs><style>.cls-1{fill:none;}.cls-2{fill:#ccdeff;}.cls-3{fill:#80adff;}.cls-4{fill:#101129;}.cls-5{fill:#fff;}.cls-6{fill:#81e6c1;}.cls-7{fill:#ffdc8a;}</style></defs><g id="图层_2"><g id="缺省页"><g id="找不到页面"><rect height="1024" width="1024" class="cls-1"></rect><path d="M328.66,114,335,139.7a8,8,0,0,0,5.85,5.85l25.74,6.35a2,2,0,0,1,0,3.88l-25.74,6.34A8,8,0,0,0,335,168l-6.34,25.74a2,2,0,0,1-3.89,0L318.43,168a8,8,0,0,0-5.86-5.86l-25.74-6.34a2,2,0,0,1,0-3.88l25.74-6.35a8,8,0,0,0,5.86-5.85L324.77,114A2,2,0,0,1,328.66,114Z" class="cls-2"></path><path d="M732.62,801.94l-2,21.28a6.46,6.46,0,0,0,2.92,6l17.93,11.62a1.61,1.61,0,0,1-1,2.95l-21.28-1.94a6.46,6.46,0,0,0-6,2.91l-11.61,17.93a1.61,1.61,0,0,1-3-1l2-21.28a6.43,6.43,0,0,0-2.91-6l-17.93-11.62a1.61,1.61,0,0,1,1-2.95l21.27,1.95a6.47,6.47,0,0,0,6-2.92l11.62-17.93A1.61,1.61,0,0,1,732.62,801.94Z" class="cls-2"></path><path d="M131.36,192.69l16.13,18.46a7.39,7.39,0,0,0,7.29,2.32l23.84-5.7a1.85,1.85,0,0,1,1.64,3.19l-18.45,16.13a7.39,7.39,0,0,0-2.33,7.29l5.71,23.83a1.85,1.85,0,0,1-3.19,1.65l-16.13-18.45a7.4,7.4,0,0,0-7.29-2.33l-23.84,5.7a1.85,1.85,0,0,1-1.65-3.19l18.46-16.13a7.41,7.41,0,0,0,2.33-7.29l-5.71-23.83A1.85,1.85,0,0,1,131.36,192.69Z" class="cls-2"></path><circle r="24" cy="840" cx="856" class="cls-2"></circle><path d="M278.71,892.1c20.78,0,37.68-17.21,37.68-38.36A38.58,38.58,0,0,0,310,832.37a37,37,0,0,0-21-6.52c-.85,0-1.75,0-2.82.11a3.4,3.4,0,0,1-3.36-2,35.37,35.37,0,0,0-5.58-8.54l-1.34.08a3.4,3.4,0,0,1-3.36-2,34,34,0,0,0-2.68-4.77C260.48,802,247.8,798,234.18,798c-28.33,0-51.38,17.21-51.38,38.36a3.45,3.45,0,0,1-3.42,3.48c-20.78,0-37.68,14.08-37.68,31.39a27.08,27.08,0,0,0,4.06,14.15,42.5,42.5,0,0,0,23.34,6.77Z" class="cls-3"></path><path d="M278.71,899.59H265a4,4,0,1,1,0-8h13.7c20.46,0,37.1-17,37.1-37.85s-16.64-37.84-37.1-37.84c-.83,0-1.71,0-2.77.11a4,4,0,0,1-3.94-2.32C265,798.33,245.63,788,223.91,788c-28,0-50.81,17-50.81,37.85a4,4,0,0,1-4,4c-20.46,0-37.1,13.84-37.1,30.87s16.64,30.87,37.1,30.87h68.51a4,4,0,0,1,0,8H169.1c-24.87,0-45.1-17.44-45.1-38.87,0-20.34,18.21-37.07,41.31-38.74,2.52-23.48,27.84-42,58.6-42,23.66,0,45,11.11,54.13,27.9h.67c24.87,0,45.1,20.56,45.1,45.84S303.58,899.59,278.71,899.59Z" class="cls-4"></path><path d="M873.73,217.13c20.79,0,37.71-19.74,37.71-44A49.13,49.13,0,0,0,905,148.61a33.87,33.87,0,0,0-21-7.48c-.85,0-1.74,0-2.82.14a3.39,3.39,0,0,1-3.36-2.3,42.07,42.07,0,0,0-5.58-9.8l-1.35.1a3.39,3.39,0,0,1-3.36-2.3,42,42,0,0,0-2.68-5.47,56.18,56.18,0,0,0-35.71-12.37c-28.35,0-51.42,19.74-51.42,44a3.75,3.75,0,0,1-3.43,4c-20.8,0-37.72,16.15-37.72,36a34.5,34.5,0,0,0,4.07,16.23A38.64,38.64,0,0,0,764,217.13Z" class="cls-3"></path><path d="M873.73,225.13H860a4,4,0,0,1,0-8h13.72c20.48,0,37.14-19.74,37.14-44s-16.66-44-37.14-44c-.82,0-1.69,0-2.74.13a4,4,0,0,1-4-2.5c-7.09-17.72-26.41-29.63-48.07-29.63-28,0-50.86,19.74-50.86,44a4,4,0,0,1-4,4c-20.48,0-37.14,16.15-37.14,36s16.66,36,37.14,36h68.57a4,4,0,0,1,0,8H764c-24.89,0-45.14-19.74-45.14-44,0-23,18.2-41.94,41.3-43.84,2.23-26.89,27.71-48.16,58.7-48.16,23.82,0,45.26,12.75,54.34,32h.52c24.89,0,45.14,23.33,45.14,52S898.62,225.13,873.73,225.13Z" class="cls-4"></path><circle r="288" cy="512" cx="512" class="cls-5"></circle><path d="M512.47,804.12a293.68,293.68,0,0,1-76.05-10.07,290.38,290.38,0,1,1,76.05,10.07Zm-.93-576.24a284.06,284.06,0,0,0-73,558.44c151.26,40.53,307.29-49.55,347.82-200.82l3.87,1-3.87-1c40.53-151.26-49.55-307.29-200.82-347.82A285.37,285.37,0,0,0,511.54,227.88Z" class="cls-4"></path><circle r="208" cy="592" cx="496" class="cls-3"></circle><path d="M446.07,795.31a37.2,37.2,0,0,1-9.65-1.26c-26.56-7.12-43.14-43.58-46.69-102.67-3.46-57.66,5.66-130.55,25.68-205.26S464,343.72,495.8,295.52c32.62-49.4,65.21-72.69,91.78-65.57s43.14,43.58,46.69,102.67c3.46,57.66-5.66,130.55-25.68,205.26S560,680.28,528.2,728.48C499.43,772.05,470.68,795.31,446.07,795.31ZM578,236.71c-21.6,0-48.62,22.46-75.53,63.22-31.37,47.5-59.54,114.36-79.35,188.26S394.31,634.08,397.72,690.9c3.27,54.58,18.14,89.36,40.78,95.42s52.9-16.62,83-62.25c31.37-47.5,59.54-114.36,79.35-188.26s28.82-145.89,25.41-202.71c-3.27-54.58-18.14-89.36-40.78-95.42A28.65,28.65,0,0,0,578,236.71Z" class="cls-4"></path><path d="M471.66,798.67a136,136,0,0,1-35.24-4.62c-50.87-13.63-90.66-56-112.06-119.2-21.19-62.67-21.79-138.52-1.68-213.58s58.55-140.45,108.25-184.12c50.14-44.07,105.77-60.83,156.65-47.2s90.66,56,112.06,119.2c21.19,62.67,21.79,138.52,1.68,213.58h0c-20.11,75.06-58.56,140.45-108.25,184.12C554.3,780.92,512.25,798.67,471.66,798.67Zm80.72-565.33c-38.66,0-78.9,17.07-116.17,49.82-48.52,42.64-86.1,106.63-105.8,180.18s-19.17,147.76,1.53,209c20.51,60.62,58.35,101.12,106.56,114,100.12,26.83,214.56-74.4,255.09-225.66l3.87,1-3.87-1c40.53-151.26-8-296.15-108.09-323A127.28,127.28,0,0,0,552.38,233.34Z" class="cls-4"></path><path d="M717,686.8c-74.56,0-160.3-12.2-247.41-35.54-110.43-29.59-210-73.57-280.3-123.84-71.41-51-104.39-102.81-92.88-145.77,7.15-26.69,31.52-48.3,70.47-62.49,36.92-13.45,87-20.34,144.77-19.91a4,4,0,0,1,0,8h0c-116.86-.89-194.39,27.73-207.45,76.47-5.27,19.69,0,41.73,15.73,65.52,15.54,23.53,40.46,47.65,74.07,71.67,69.57,49.73,168.2,93.27,277.72,122.62s216.7,41,301.82,32.67c41.12-4,74.75-12.42,100-25,25.5-12.75,41.1-29.2,46.38-48.89,6.3-23.53-2.33-50.13-25.66-79.06-22.77-28.24-59.27-57.62-105.56-85a4,4,0,1,1,4.07-6.88c47.1,27.83,84.35,57.86,107.72,86.84,25,31,34.16,60,27.16,86.15-11.52,43-66,71.31-153.32,79.81C756.1,685.93,737,686.8,717,686.8Z" class="cls-4"></path><circle r="32" cy="576" cx="928" class="cls-6"></circle><path d="M928,612a36,36,0,1,1,36-36A36,36,0,0,1,928,612Zm0-64a28,28,0,1,0,28,28A28,28,0,0,0,928,548Z" class="cls-4"></path><circle r="32" cy="544" cx="224" class="cls-7"></circle><path d="M224,580a36,36,0,1,1,36-36A36,36,0,0,1,224,580Zm0-64a28,28,0,1,0,28,28A28,28,0,0,0,224,516Z" class="cls-4"></path><path d="M736,740a4,4,0,0,1,0-8c73.72,0,132.19-14,173.79-41.68a4,4,0,1,1,4.42,6.66C871.28,725.53,811.32,740,736,740Z" class="cls-4"></path><path d="M938.21,676a4,4,0,0,1-2.88-6.78c16.06-16.65,20.83-30.36,20.88-30.5a4,4,0,0,1,7.58,2.54c-.2.63-5.27,15.45-22.7,33.52A4,4,0,0,1,938.21,676Z" class="cls-4"></path></g></g></g></svg>