<?xml version="1.0" standalone="no"?><!DOCTYPE svg PUBLIC "-//W3C//DTD SVG 1.1//EN" "http://www.w3.org/Graphics/SVG/1.1/DTD/svg11.dtd"><svg height="1080" legacy-metrics="false" node-id="1" sillyvg="true" template-height="1080" template-width="1080" version="1.1" viewBox="0 0 1080 1080" width="1080" xmlns="http://www.w3.org/2000/svg" xmlns:xlink="http://www.w3.org/1999/xlink"><defs node-id="31"></defs><path d="M 309.87 375.74 C 295.54 375.47 277.19 388.06 276.79 388.86 C 276.39 389.66 261.12 407.48 261.12 407.48 C 264.57 411.43 267.28 415.96 269.12 420.87 C 271.93 428.64 272.20 435.60 271.26 448.06 C 270.32 460.52 277.46 466.00 277.46 466.00 L 293.80 484.08 L 293.80 481.53 C 293.80 481.53 293.13 450.06 296.21 439.48 C 299.29 428.90 300.50 441.35 302.91 454.34 C 305.32 467.33 301.30 491.44 301.30 491.44 L 305.59 496.44 L 311.48 507.44 C 311.48 507.44 308.40 509.71 302.91 506.77 C 297.42 503.83 285.10 487.77 285.10 487.77 C 280.78 490.11 276.25 492.04 271.57 493.53 C 263.67 496.00 254.00 500.00 254.00 500.00 C 254.00 500.00 257.88 508.57 258.41 509.51 C 258.94 510.45 272.26 540.29 290.48 551.33 C 287.56 549.92 284.80 548.20 282.25 546.21 C 271.54 537.64 252.12 503.49 248.25 492.50 C 244.38 481.51 245.59 474.00 245.59 474.00 C 245.59 474.00 232.86 462.48 230.18 454.00 C 227.50 445.52 234.07 436.18 238.75 432.43 C 239.56 431.82 240.17 430.99 240.51 430.03 C 239.57 427.91 238.94 425.67 238.62 423.38 L 238.35 423.06 L 238.49 422.44 C 238.12 419.20 238.34 415.91 239.16 412.75 C 241.70 402.97 243.71 399.22 243.71 399.22 C 243.71 399.22 231.39 402.03 219.34 390.78 C 219.34 390.78 200.86 393.73 195.10 404.58 C 189.34 415.43 185.59 456.41 185.59 456.41 L 183.44 492.17 L 171.19 470.17 C 172.02 471.78 174.71 478.51 166.30 485.75 C 156.66 494.05 140.19 493.38 140.99 495.26 C 141.79 497.14 158.27 533.96 172.06 541.06 C 185.85 548.16 198.98 546.55 205.27 539.72 C 211.56 532.89 219.34 502.72 219.34 502.72 C 219.34 502.72 209.43 474.59 209.16 473.79 C 208.89 472.99 204.60 453.30 204.60 453.30 C 210.54 456.87 214.90 462.56 216.79 469.23 C 219.87 480.35 234.87 512.23 243.71 525.23 C 252.55 538.23 269.43 560.31 269.43 560.31 L 258.43 555.36 C 258.43 555.36 254.55 566.36 251.20 571.03 C 247.85 575.70 258.00 592.00 275.05 591.90 C 292.10 591.80 298.62 594.71 317.51 586.90 C 336.40 579.09 353.94 564.90 358.22 561.90 C 362.50 558.90 370.81 543.42 370.81 543.42 L 356.00 487.57 L 348.58 454.00 L 346.89 464.82 C 346.89 452.82 346.97 442.08 346.97 442.08 C 346.97 442.08 339.34 399.36 334.52 387.84 C 329.70 376.32 324.20 376.00 309.87 375.74 Z M 323.48 552.19 C 319.59 554.97 314.89 556.40 310.11 556.27 C 314.81 555.90 319.37 554.51 323.48 552.19 Z" fill="#aac3da" fill-rule="nonzero" id="path1560" node-id="7" stroke="none" target-height="216.60614" target-width="229.81999" target-x="140.99" target-y="375.74"></path><path d="M 228.53 263.90 C 226.88 263.80 226.20 267.18 223.62 275.56 C 219.87 287.75 229.78 306.23 229.78 306.23 L 237.78 294.91 L 229.07 281.59 C 229.07 281.59 239.32 290.16 245.01 292.10 C 250.70 294.04 251.17 284.53 251.17 284.53 C 251.17 284.53 257.40 300.53 261.01 305.22 C 264.62 309.91 278.60 318.87 280.18 323.46 C 282.18 323.12 285.74 322.96 286.59 326.12 C 287.80 330.54 280.17 344.60 279.23 350.89 C 278.67 355.85 278.38 360.84 278.36 365.84 L 284.79 365.16 L 281.57 384.16 L 313.31 374.25 C 310.36 369.07 304.81 365.94 298.85 366.08 C 288.40 366.08 285.32 360.99 285.32 360.99 C 285.32 360.99 289.61 354.43 295.23 351.99 C 300.85 349.55 308.00 351.00 308.00 351.00 C 308.00 351.00 309.60 344.71 308.94 341.63 C 308.28 338.55 315.77 331.98 318.18 324.63 C 320.59 317.28 318.04 310.03 313.62 302.79 C 309.20 295.55 305.18 292.21 281.35 283.24 C 257.52 274.27 236.21 270.38 231.66 266.10 C 230.24 264.71 229.28 264.00 228.53 263.90 Z" fill="#9a702d" fill-rule="nonzero" id="path1555" node-id="8" stroke="none" target-height="120.26001" target-width="96.31886" target-x="222.78734" target-y="263.9"></path><path d="M 369.56 550.47 C 369.56 550.47 365.78 573.77 338.69 587.59 C 311.60 601.41 293.00 604.45 277.13 602.94 C 261.26 601.43 255.92 597.63 255.92 597.63 L 243.00 611.08 L 226.00 660.32 C 226.00 660.32 210.85 703.89 206.12 717.52 C 201.39 731.15 198.73 752.75 202.33 774.91 C 205.93 797.07 215.59 851.62 218.05 852.38 C 220.51 853.14 241.91 858.25 244.19 848.02 C 246.47 837.79 245.51 756.54 248.73 747.26 C 251.95 737.98 262.56 711.46 279.80 695.55 C 297.04 679.64 310.67 664.68 310.67 664.68 L 300.05 648.20 C 300.05 648.20 307.82 651.20 321.83 668.85 C 335.84 686.50 370.13 747.64 375.62 755.41 C 381.11 763.18 410.10 788.41 422.41 804.65 C 434.72 820.89 443.81 832.87 448.54 834.20 C 453.27 835.53 467.49 830.60 459.72 814.88 C 451.95 799.16 410.66 724.00 410.66 724.00 C 410.66 724.00 387.56 676.09 385.09 649.38 C 382.62 622.67 379.00 585.70 379.00 585.70 C 379.00 585.70 380.33 574.90 381.84 569.60 C 383.35 564.30 383.36 546.49 369.53 550.47 Z" fill="#c2dc82" fill-rule="nonzero" id="path1570" node-id="9" stroke="none" target-height="304.3755" target-width="261.33356" target-x="200.6615" target-y="549.9458"></path><path d="M 811.57 229.08 C 811.57 229.08 789.87 217.83 778.35 228.68 C 766.83 239.53 752.51 264.17 750.35 267.79 C 748.19 271.41 745.93 292.70 747.54 306.09 C 749.15 319.48 751.54 341.85 744.46 357.25 C 737.38 372.65 723.57 395.83 720.46 403.86 C 717.35 411.89 711.39 424.00 711.39 424.00 L 706.70 449.00 L 709.11 454.76 C 709.11 454.76 714.21 449.76 718.62 459.71 C 723.03 469.66 754.38 491.05 754.38 491.05 C 754.38 491.05 754.65 486.63 751.57 474.98 C 748.49 463.33 747.28 440.16 751.70 424.98 C 756.12 409.80 765.76 395.12 778.22 385.61 C 790.68 376.10 800.05 362.17 799.11 357.08 C 798.17 351.99 786.93 325.47 786.93 325.47 L 784.25 322.39 C 784.25 322.39 777.25 329.89 773.40 328.96 C 769.55 328.03 763.22 322.39 762.01 319.58 C 760.80 316.77 760.94 306.06 760.94 306.06 C 760.94 306.06 775.94 304.99 784.51 299.63 C 793.08 294.27 795.23 273.63 797.10 260.39 C 798.97 247.15 806.75 240.57 806.75 240.57 C 806.75 240.57 815.05 251.42 822.15 253.69 C 829.25 255.96 832.73 249.00 836.48 264.00 C 840.23 279.00 849.20 313.42 846.26 323.87 C 843.32 334.32 839.16 340.21 833.40 343.82 C 827.64 347.43 819.07 347.58 819.07 347.58 C 819.07 347.58 822.42 358.58 836.61 362.31 C 850.80 366.04 864.87 368.60 864.87 368.60 C 864.87 368.60 869.69 354.14 868.09 341.68 C 866.49 329.22 850.27 289.58 849.87 280.48 C 849.47 271.38 850.14 238.29 847.87 230.66 C 845.60 223.03 836.87 222.89 828.99 225.43 C 823.30 227.13 817.48 228.34 811.58 229.04 Z" fill="#9a702d" fill-rule="nonzero" id="path1572" node-id="10" stroke="none" target-height="267.09842" target-width="161.71106" target-x="706.7" target-y="223.95157"></path><path d="M 798.84 534.58 C 796.99 542.97 794.02 551.08 790.01 558.68 C 783.44 571.00 752.64 589.35 726.01 584.26 C 699.38 579.17 690.25 557.34 689.44 535.38 C 688.63 513.42 695.60 493.59 695.60 493.59 C 695.60 493.59 735.00 534.17 752.24 541.00 C 769.48 547.83 778.49 546.90 787.59 539.26 C 796.69 531.62 798.84 534.58 798.84 534.58 Z" fill="#9a702d" fill-rule="nonzero" id="path1574" node-id="11" stroke="none" target-height="91.5347" target-width="109.400024" target-x="689.44" target-y="493.59"></path><path d="M 782.24 393.55 C 782.24 393.55 766.00 408.70 760.30 425.18 C 754.60 441.66 756.89 457.95 757.30 463.35 C 757.71 468.75 759.39 480.68 759.39 480.68 C 762.79 480.32 766.23 480.61 769.52 481.53 C 774.06 483.04 773.52 484.84 773.52 484.84 C 773.52 484.84 763.10 485.32 758.17 487.02 C 753.24 488.72 739.80 483.61 736.01 479.63 C 733.63 477.17 730.94 475.04 728.01 473.29 C 728.01 473.29 725.17 481.29 714.37 486.74 C 703.57 492.19 702.63 490.43 702.63 490.43 C 702.63 490.43 720.24 508.00 733.00 517.61 C 745.76 527.22 761.60 536.93 772.30 538.25 C 783.00 539.57 790.77 536.65 791.62 535.89 C 792.47 535.13 796.73 529.35 796.73 529.35 C 796.73 529.35 795.60 505.30 795.60 504.92 C 795.60 504.54 787.93 468.92 787.83 467.98 C 787.73 467.04 784.52 450.98 784.52 450.98 C 784.52 450.98 795.60 458.72 800.29 484.44 C 804.98 510.16 808.05 533.32 805.78 543.90 C 803.51 554.48 790.91 560.24 796.94 566.80 C 802.97 573.36 818.23 579.93 843.41 580.86 C 868.59 581.79 881.72 578.18 881.72 578.18 C 881.72 578.18 894.57 569.18 887.34 557.56 C 880.11 545.94 889.62 516.56 889.34 515.64 C 889.06 514.72 896.84 475.46 896.84 475.46 C 896.84 475.46 874.00 471.00 861.79 460.38 C 849.58 449.76 845.72 440.15 845.72 440.15 L 841.00 435.20 C 841.00 435.20 831.89 434.40 834.44 421.81 C 836.99 409.22 844.75 404.53 851.98 405.87 C 859.21 407.21 865.64 414.97 865.64 414.97 L 872.88 419.12 L 890.69 419.93 L 887.61 412.43 C 887.61 412.43 902.47 412.30 908.50 413.90 C 912.74 415.13 916.87 416.75 920.82 418.72 L 895.91 419.53 L 885.73 420.73 C 885.73 420.73 895.24 428.90 892.43 437.88 C 889.62 446.86 879.17 461.71 879.17 461.71 C 879.17 461.71 901.80 474.31 928.99 468.71 C 956.18 463.11 972.25 453.71 956.58 425.59 C 940.91 397.47 926.45 387.42 911.45 379.38 C 896.45 371.34 888.68 369.74 876.76 369.20 C 868.90 368.75 861.09 367.54 853.46 365.59 C 853.46 365.59 869.79 380.18 862.30 385.41 C 854.81 390.64 841.30 386.07 841.30 386.07 C 841.30 386.07 840.36 399.20 832.46 400.67 C 824.56 402.14 805.14 391.84 805.14 391.84 C 805.14 391.84 798.04 404.42 793.35 406.57 C 788.66 408.72 783.84 408.57 783.98 402.57 C 784.12 396.57 782.24 393.57 782.24 393.57 Z" fill="#fed251" fill-rule="nonzero" id="path1576" node-id="12" stroke="none" target-height="215.38687" target-width="260.07343" target-x="702.63" target-y="365.59"></path><path d="M 887.00 576.81 C 887.00 576.81 879.87 592.00 846.66 593.10 C 813.45 594.20 790.66 586.00 788.80 585.10 C 786.94 584.20 783.58 582.55 778.49 592.87 C 773.40 603.19 774.60 620.59 776.34 630.63 C 778.08 640.67 784.92 658.09 792.42 663.58 C 799.92 669.07 779.96 663.85 777.02 660.90 C 774.08 657.95 758.27 698.67 748.22 714.47 C 738.17 730.27 713.22 757.47 706.17 764.56 C 699.12 771.65 674.17 801.12 668.93 809.70 C 663.69 818.28 661.17 829.12 672.82 838.76 C 684.47 848.40 727.06 872.91 727.06 872.91 L 755.32 875.91 C 755.32 875.91 768.85 853.81 772.06 837.34 C 775.27 820.87 782.64 799.57 782.64 799.57 C 782.64 799.57 786.12 813.63 783.04 824.08 C 779.96 834.53 770.04 875.64 770.04 875.64 C 770.04 875.64 781.56 875.10 791.04 878.32 C 800.52 881.54 821.71 884.88 829.48 878.99 C 837.25 873.10 843.67 855.28 846.08 839.61 C 848.49 823.94 851.84 754.17 851.84 754.17 L 856.93 707.17 L 858.67 694.31 C 858.67 694.31 861.35 725.65 860.95 736.50 C 860.55 747.35 858.13 789.80 858.13 799.98 C 858.13 810.16 856.93 836.68 855.72 844.18 C 854.96 848.83 853.94 853.44 852.64 857.97 C 852.64 857.97 886.12 849.40 893.22 840.16 C 900.32 830.92 903.00 819.93 903.67 809.49 C 904.34 799.05 905.28 755.25 900.05 740.38 C 894.82 725.51 886.79 669.94 886.26 661.90 C 885.73 653.86 889.61 596.14 889.61 596.14 L 893.76 581.28 Z" fill="#f37a81" fill-rule="nonzero" id="path1578" node-id="13" stroke="none" target-height="305.41602" target-width="239.6502" target-x="664.5412" target-y="576.81"></path><path d="M 692.64 299.00 C 692.64 299.00 679.64 298.00 663.33 312.58 C 647.02 327.16 585.10 391.18 580.18 394.00 C 575.26 396.82 554.23 381.31 554.23 381.31 L 534.53 364.65 C 534.53 364.65 527.71 360.10 517.68 369.76 C 507.65 379.42 506.50 383.96 511.24 388.51 C 515.98 393.06 545.14 430.56 566.73 426.58 C 588.32 422.60 601.01 410.67 609.92 399.31 C 618.83 387.95 692.64 299.00 692.64 299.00 Z" fill="#f9f1cb" fill-rule="nonzero" id="path1457" node-id="14" stroke="none" target-height="127.84912" target-width="184.06598" target-x="508.57404" target-y="299"></path><path d="M 767.11 652.84 C 767.11 652.84 730.11 712.84 695.32 735.84 C 660.53 758.84 621.93 769.06 621.93 769.06 L 605.32 773.34 C 605.32 773.34 634.25 781.91 621.93 812.98 C 609.61 844.05 574.50 823.69 574.50 823.69 L 568.09 801.20 C 568.09 801.20 556.30 805.48 517.19 803.34 C 478.08 801.20 436.00 742.30 436.00 742.30 L 435.20 768.55 L 456.20 804.18 C 456.20 804.18 460.89 818.51 461.96 824.93 C 463.03 831.35 478.30 852.39 478.30 852.39 C 478.30 852.39 480.71 866.72 489.15 866.72 C 497.59 866.72 610.43 863.55 610.43 863.55 L 680.00 866.21 L 685.12 858.82 L 657.47 835.33 C 657.47 835.33 643.06 823.00 662.00 800.86 C 680.94 778.72 730.75 723.59 730.75 723.59 Z" fill="#f9f1cb" fill-rule="nonzero" id="path1459" node-id="15" stroke="none" target-height="213.87994" target-width="331.90997" target-x="435.2" target-y="652.84"></path><path d="M 471.39 548.91 C 471.39 548.91 470.05 573.82 500.59 580.78 C 531.13 587.74 649.78 583.19 652.46 583.19 C 655.14 583.19 679.25 603.55 706.30 603.82 C 733.35 604.09 740.05 583.46 740.05 583.46 C 740.05 583.46 717.28 586.94 702.05 574.89 C 686.82 562.84 685.97 552.39 685.97 552.39 C 685.97 552.39 662.97 550.25 666.82 538.19 C 670.67 526.13 650.75 525.74 650.75 525.74 C 650.75 525.74 628.25 524.00 624.75 528.28 C 621.25 532.56 610.69 557.08 610.69 557.08 L 598.10 557.21 L 614.30 526.27 C 614.30 526.27 594.21 524.53 589.53 528.27 C 584.85 532.01 574.26 557.87 574.26 557.87 L 558.32 556.53 C 558.32 556.53 567.96 535.64 565.15 533.23 C 562.34 530.82 553.50 529.07 546.27 540.46 C 539.04 551.85 535.68 557.60 535.68 557.60 L 523.77 558.54 L 541.31 532.54 C 541.31 532.54 517.47 527.18 512.12 533.88 C 506.77 540.58 495.12 553.03 490.55 552.09 C 485.98 551.15 477.16 538.16 477.16 538.16 C 477.16 538.16 470.16 539.90 471.40 548.88 Z" fill="#f9f1cb" fill-rule="nonzero" id="path1461" node-id="16" stroke="none" target-height="78.41858" target-width="268.7881" target-x="471.2619" target-y="525.4014"></path><path d="M 685.62 351.67 C 681.62 357.23 676.90 363.55 671.09 370.73 C 645.33 402.55 618.09 442.32 576.09 442.84 C 578.88 444.46 581.99 445.46 585.20 445.78 C 590.55 446.32 594.30 461.05 594.30 461.05 C 607.97 459.38 621.18 455.00 633.15 448.19 C 652.70 436.94 656.15 420.07 656.15 420.07 C 656.15 420.07 699.01 393.28 687.22 388.19 C 675.43 383.10 680.53 371.32 680.53 371.32 Z M 492.45 386.67 C 488.22 388.61 484.52 390.92 483.98 393.29 C 482.64 399.18 465.50 402.77 465.50 402.77 L 474.34 415.77 C 483.18 428.77 491.48 423.77 501.12 427.02 C 510.76 430.27 515.59 430.77 518.00 439.61 C 520.41 448.45 510.77 459.43 510.77 459.43 C 510.77 459.43 549.34 461.84 559.25 450.86 C 564.45 445.10 568.83 443.18 571.82 442.65 C 539.59 439.84 505.41 402.32 492.45 386.66 Z" fill="#f9f1cb" fill-rule="nonzero" id="path1463" node-id="17" stroke="none" target-height="109.379974" target-width="223.76147" target-x="465.5" target-y="351.67"></path><path d="M 662.17 176.25 C 654.29 176.25 645.75 176.25 636.50 176.25 C 568.71 176.35 535.50 177.30 468.00 181.10 C 431.22 183.17 422.00 184.62 411.66 194.98 C 396.60 210.04 401.26 238.88 400.89 244.65 C 399.66 263.76 399.98 302.30 401.55 324.01 C 403.63 352.76 404.55 384.15 404.85 432.15 C 405.45 541.52 407.68 622.05 411.85 686.15 C 412.40 694.40 413.10 706.15 413.42 712.15 C 414.01 723.15 414.01 723.15 412.17 720.15 C 412.11 720.06 412.03 719.90 411.96 719.78 C 415.30 727.50 421.23 739.15 421.23 739.15 L 420.09 713.15 C 419.46 698.85 418.29 678.82 417.48 668.65 C 414.66 633.01 412.54 547.19 411.69 434.15 C 411.23 373.15 410.30 349.04 406.95 311.15 C 405.39 293.53 405.70 223.23 407.36 217.00 C 412.01 199.53 424.36 190.08 444.43 188.53 C 454.20 187.77 490.31 185.98 514.43 185.05 L 563.43 183.05 C 594.84 181.76 611.15 181.70 671.43 182.66 C 749.05 183.88 749.81 183.95 756.49 189.81 C 763.00 195.50 767.00 206.68 767.00 219.00 C 767.00 222.00 766.93 227.16 766.00 229.06 C 769.06 226.44 773.34 218.40 773.34 218.40 L 772.18 210.76 C 770.57 200.08 769.39 196.48 765.68 190.94 C 761.38 184.77 754.98 180.39 747.68 178.61 C 740.34 176.97 717.28 176.29 662.08 176.22 Z M 594.65 197.87 C 580.33 197.87 564.03 198.70 553.65 200.27 C 549.65 200.88 547.72 203.27 550.07 204.74 C 551.80 205.84 556.86 205.83 594.37 204.67 C 610.81 204.16 624.70 203.32 625.23 202.80 C 625.76 202.28 625.23 201.23 623.62 200.17 C 621.25 198.61 608.93 197.85 594.62 197.87 Z M 488.43 199.66 C 474.68 199.66 450.05 201.66 443.33 203.26 C 425.09 207.66 421.50 228.16 421.50 228.16 L 421.50 267.65 C 421.50 289.38 422.12 318.85 422.87 333.16 C 423.87 352.93 424.08 374.97 423.57 425.16 C 423.16 465.26 423.30 502.94 423.93 521.16 C 424.50 537.65 425.41 567.16 425.93 586.65 C 426.45 606.14 427.61 641.05 428.46 664.15 C 429.31 687.25 430.40 717.40 430.90 731.15 L 430.90 731.15 C 431.39 744.90 431.66 756.29 431.49 756.46 C 431.32 756.63 431.38 756.46 431.29 756.40 L 440.24 772.16 L 439.07 762.16 C 437.82 751.55 436.26 718.26 435.45 685.16 C 433.37 599.83 432.69 577.16 431.31 547.66 C 430.02 520.25 429.86 499.97 430.42 436.16 C 431.00 369.90 430.86 354.62 429.50 334.66 C 427.32 302.81 426.90 235.29 428.83 227.66 C 431.38 217.54 433.62 213.98 439.43 210.83 C 444.32 208.19 445.91 207.90 460.58 207.06 C 469.30 206.56 483.19 206.18 491.44 206.21 C 509.93 206.28 510.53 207.01 516.04 215.29 C 518.66 219.23 521.25 221.80 523.94 223.11 C 528.64 225.41 530.07 225.41 599.44 224.29 C 636.44 223.69 647.30 223.22 650.52 222.07 C 655.57 219.98 659.79 216.28 662.52 211.55 C 663.80 209.07 664.58 208.77 671.20 208.21 C 675.20 207.87 690.20 207.74 704.59 207.92 C 734.78 208.32 734.51 208.24 738.76 217.49 C 741.21 222.82 741.37 224.20 741.62 241.00 C 741.79 252.16 740.96 271.08 742.20 267.56 L 748.62 252.56 L 747.90 235.45 C 747.22 219.34 745.47 213.45 739.68 207.80 C 733.89 202.15 732.20 201.86 700.99 201.80 C 682.64 201.80 670.21 202.15 666.08 202.93 C 660.08 204.05 659.52 204.41 657.45 208.14 C 655.77 210.85 653.60 213.23 651.05 215.14 C 647.05 218.01 646.52 218.14 638.67 217.64 C 625.92 216.88 589.31 217.08 557.81 218.07 C 525.53 219.07 525.81 219.13 522.11 211.88 C 517.11 202.01 510.56 199.64 488.43 199.67 L 488.43 199.67 Z M 667.17 224.71 C 666.77 224.71 666.31 224.94 665.76 225.49 C 664.41 226.85 663.34 246.90 664.41 251.15 C 665.12 253.98 667.46 254.49 668.41 252.01 C 668.76 251.10 669.07 245.01 669.07 238.36 C 669.09 228.90 668.58 224.84 667.17 224.71 Z M 651.30 230.17 C 651.02 230.15 650.74 230.19 650.48 230.30 C 649.33 230.74 649.01 232.72 649.01 239.01 C 648.94 242.48 649.15 245.96 649.63 249.40 C 649.96 250.64 650.80 251.65 651.50 251.65 C 653.24 251.65 653.96 248.36 653.98 240.34 C 653.98 233.79 653.08 230.34 651.30 230.17 Z M 698.11 232.38 C 697.59 232.38 697.05 232.38 696.50 232.38 C 693.14 232.44 689.80 232.80 686.50 233.43 C 683.60 234.22 683.50 234.43 683.21 240.76 C 682.77 250.44 683.83 252.42 689.70 252.87 C 694.63 253.26 697.19 253.08 705.00 251.81 C 708.24 251.28 709.77 250.47 710.46 248.89 C 711.21 247.40 712.72 246.45 714.38 246.41 C 718.61 245.99 718.78 243.84 714.72 242.14 C 712.21 241.14 711.10 239.90 710.72 237.80 C 709.97 234.05 705.98 232.31 698.15 232.34 Z M 510.83 232.77 C 510.07 232.76 509.35 233.06 508.82 233.60 C 508.28 234.14 507.99 234.86 508.00 235.62 C 508.00 236.95 508.65 237.62 509.89 237.62 C 512.06 237.62 513.53 234.76 512.10 233.32 C 511.76 232.99 511.31 232.80 510.83 232.77 Z M 493.71 233.67 C 489.71 233.67 487.50 236.10 490.10 237.74 C 492.54 239.28 499.00 238.82 499.67 237.05 C 500.49 234.92 498.33 233.70 493.71 233.67 Z M 455.09 235.00 C 449.87 235.06 446.75 235.91 446.23 237.48 C 446.01 238.14 446.88 239.10 448.16 239.61 C 450.77 240.61 468.26 240.98 471.75 240.04 C 472.98 239.71 474.00 238.87 474.00 238.17 C 474.00 236.54 471.52 235.98 461.00 235.17 C 458.80 235.06 456.83 235.00 455.09 235.00 Z M 698.00 238.65 L 706.00 238.65 L 706.00 247.65 L 698.00 247.65 L 698.00 238.65 Z M 690.55 238.65 C 692.94 238.65 693.09 238.93 692.80 242.90 C 692.55 246.44 692.12 247.21 690.25 247.47 C 688.19 247.76 688.00 247.39 688.00 243.22 C 688.00 239.05 688.18 238.65 690.55 238.65 Z M 641.43 238.79 C 641.14 238.80 640.86 238.87 640.60 238.98 C 638.75 239.69 638.37 246.89 639.97 251.09 C 640.51 252.50 641.63 253.65 642.47 253.65 C 643.68 253.65 643.98 252.34 643.98 247.40 C 643.98 241.33 643.22 238.73 641.43 238.79 Z M 627.43 246.65 C 625.63 246.65 624.51 249.03 625.33 251.15 C 626.39 253.93 628.97 252.87 628.97 249.65 C 629.00 247.62 628.50 246.65 627.46 246.65 Z M 576.05 257.65 C 573.89 257.83 571.90 258.92 570.59 260.65 C 565.47 266.73 563.74 280.31 566.37 293.65 C 567.80 300.92 568.52 302.55 571.48 305.34 C 575.72 309.34 577.31 309.40 580.97 305.74 C 589.51 297.20 589.30 265.15 580.67 259.10 C 579.34 258.13 577.73 257.62 576.08 257.67 Z M 576.67 264.24 C 576.95 264.28 577.21 264.40 577.41 264.59 C 581.04 267.59 582.64 285.83 580.10 295.17 C 579.58 297.20 578.78 299.14 577.72 300.95 C 576.62 302.45 576.18 302.51 574.60 301.36 C 571.91 299.36 570.30 283.47 571.91 274.63 C 573.17 267.88 575.00 264.00 576.70 264.26 Z M 631.29 277.63 C 627.72 277.63 621.99 281.13 619.52 284.82 C 614.42 292.42 614.17 299.07 618.83 302.74 C 625.52 308.00 636.64 299.07 637.75 287.57 C 638.16 283.31 637.88 282.17 635.92 280.09 C 634.71 278.77 633.09 277.91 631.32 277.65 Z M 691.83 281.81 C 687.83 281.66 682.24 283.93 676.83 287.95 C 661.73 299.06 647.27 311.00 633.50 323.71 C 626.35 330.43 613.50 342.11 605.00 349.71 C 596.50 357.31 587.70 365.34 585.50 367.65 C 583.08 370.17 580.52 372.55 577.83 374.78 L 574.16 377.71 L 566.33 370.10 C 554.19 358.30 537.87 346.67 533.41 346.67 C 531.61 346.67 527.41 347.90 517.16 351.42 C 511.97 353.20 500.30 363.73 498.34 368.42 C 496.38 373.11 496.68 377.90 499.27 381.26 C 502.68 385.67 529.81 412.59 537.65 419.34 C 545.84 426.34 550.70 429.50 556.32 431.34 C 561.32 432.95 584.32 432.34 596.20 430.26 C 606.73 428.43 613.01 424.81 623.02 414.78 C 642.48 395.28 685.89 335.78 696.38 314.29 C 700.25 306.36 700.25 306.29 699.58 297.41 C 698.82 287.30 697.11 283.06 693.44 282.14 C 692.92 282.02 692.39 281.94 691.86 281.92 Z M 521.49 281.91 C 517.54 281.69 513.97 285.34 513.97 289.84 C 513.97 297.26 518.21 305.94 522.97 308.36 C 524.09 308.97 525.30 309.40 526.55 309.62 C 528.77 309.62 532.80 305.54 533.45 302.62 C 535.15 294.87 528.85 283.30 522.25 282.05 C 522.01 282.00 521.77 281.96 521.52 281.93 Z M 629.00 283.65 C 631.56 283.65 632.00 284.04 632.00 286.09 C 631.92 289.95 630.24 293.61 627.36 296.19 C 624.69 298.66 622.90 299.19 621.66 297.99 C 620.42 296.79 620.97 294.25 623.46 288.91 C 625.62 284.25 626.25 283.65 628.95 283.65 Z M 520.00 287.65 C 524.07 287.65 528.83 296.19 527.57 301.21 C 527.23 302.55 526.57 303.65 526.05 303.65 C 525.12 303.65 521.05 298.88 520.99 297.77 C 520.99 297.43 520.33 295.02 519.53 292.40 C 518.16 287.89 518.19 287.65 520.00 287.65 Z M 690.48 288.65 C 692.38 288.76 692.48 290.83 690.70 294.90 C 690.04 296.39 683.85 304.04 676.94 311.90 C 670.03 319.76 657.24 335.18 648.51 346.18 C 639.78 357.18 628.51 371.36 623.51 377.68 C 611.51 392.80 593.00 413.75 588.29 417.68 C 585.45 419.81 582.35 421.55 579.05 422.86 C 575.17 424.20 571.14 425.05 567.05 425.39 C 555.44 426.17 549.05 421.82 520.80 393.85 C 510.08 383.22 503.00 375.45 503.00 374.30 C 503.00 371.13 506.87 365.87 512.68 361.13 C 518.92 356.05 523.15 355.26 525.24 358.77 C 527.33 362.28 552.04 383.50 556.51 385.66 C 559.38 386.94 562.48 387.62 565.62 387.66 C 572.17 387.66 576.96 384.60 590.24 371.92 C 595.88 366.53 605.80 357.47 612.24 351.80 C 618.68 346.13 629.30 336.52 635.74 330.47 C 646.36 320.47 651.52 316.17 674.67 297.87 C 682.62 291.59 687.99 288.48 690.43 288.63 Z M 460.76 299.67 C 458.60 299.64 456.52 300.52 455.05 302.10 C 453.18 304.10 452.88 305.21 453.41 308.10 C 454.74 315.16 461.03 320.18 474.41 324.83 C 484.15 328.22 487.35 328.37 490.14 325.58 C 494.14 321.58 489.98 313.14 481.54 308.07 C 471.90 302.28 465.34 299.57 460.76 299.67 Z M 693.59 304.49 C 694.30 304.49 692.25 308.78 687.36 317.42 C 674.67 339.86 636.95 391.05 619.55 409.42 C 611.99 417.42 607.00 420.80 599.41 423.10 C 591.61 425.47 591.41 424.97 597.66 418.87 C 600.90 415.70 607.00 408.87 611.21 403.62 C 615.42 398.37 621.97 390.29 625.75 385.62 C 629.53 380.95 640.65 367.09 650.42 354.85 C 660.19 342.61 672.54 327.74 677.85 321.85 C 683.16 315.96 688.70 309.63 690.18 307.85 C 692.07 305.58 693.21 304.46 693.59 304.47 Z M 461.00 305.26 C 462.73 305.26 465.45 306.08 469.10 307.63 C 477.77 311.32 482.42 314.63 484.51 318.71 C 485.99 321.56 485.96 321.65 483.76 321.62 C 478.15 321.53 464.22 315.03 461.08 311.05 C 457.94 307.07 458.14 305.19 461.00 305.26 Z M 531.57 352.68 C 533.20 352.63 535.89 353.58 538.50 355.34 C 544.69 359.50 555.12 368.04 558.99 372.11 C 561.04 374.24 563.30 376.14 565.74 377.80 C 567.53 378.91 568.74 380.24 568.43 380.74 C 567.43 382.37 562.57 381.74 558.82 379.40 C 553.59 376.20 530.11 355.40 530.04 353.90 C 530.00 353.11 530.61 352.71 531.58 352.68 Z M 688.66 363.13 C 681.16 363.00 676.00 365.82 676.00 370.50 C 676.00 375.66 680.47 379.56 688.71 381.61 C 700.27 384.49 711.03 377.70 706.96 370.09 C 705.16 366.73 701.89 365.09 694.20 363.69 C 692.38 363.35 690.53 363.16 688.67 363.13 Z M 689.46 368.74 C 690.86 368.71 692.27 368.77 693.66 368.92 C 698.82 369.50 703.19 372.85 701.28 374.76 C 699.84 376.20 692.28 376.83 688.95 375.76 C 685.19 374.54 681.95 372.33 681.95 370.95 C 681.95 369.73 685.34 368.84 689.42 368.73 Z M 479.55 383.06 C 473.05 382.88 463.81 385.76 460.97 389.18 C 457.75 393.07 460.21 400.47 465.50 402.75 C 468.02 403.85 474.36 403.04 478.00 401.15 C 481.95 399.15 486.89 393.93 487.61 391.07 C 488.44 387.76 485.83 384.07 482.14 383.33 C 481.29 383.17 480.42 383.08 479.55 383.06 Z M 478.35 388.11 C 480.47 388.11 482.00 388.56 482.00 389.55 C 482.00 390.89 476.54 395.55 473.68 396.55 L 473.68 396.55 C 469.88 397.99 468.42 397.89 466.61 396.08 C 464.33 393.81 465.61 392.08 471.15 389.64 C 473.43 388.68 475.87 388.14 478.35 388.07 Z M 510.14 427.61 C 507.35 427.77 504.62 428.53 502.14 429.83 C 496.53 432.55 483.76 444.55 481.57 449.17 C 480.05 452.38 480.05 452.80 481.65 455.38 C 482.55 456.85 483.63 458.19 484.88 459.38 L 484.88 459.38 C 487.64 461.67 495.22 460.87 501.60 457.62 C 504.37 456.27 507.02 454.68 509.51 452.87 C 516.70 446.62 519.95 439.03 517.98 433.06 C 517.02 429.59 513.73 427.30 510.15 427.59 Z M 509.69 433.61 C 511.64 433.61 512.00 434.13 512.00 436.96 C 512.00 441.96 507.39 447.59 500.26 451.39 C 491.66 455.98 484.26 455.67 486.88 450.84 C 489.75 445.51 505.45 433.65 509.69 433.65 Z M 579.69 440.61 C 573.88 440.61 571.80 442.50 570.33 449.01 C 568.86 455.52 569.24 458.01 572.33 461.34 C 577.10 466.56 584.80 462.49 587.03 453.57 C 588.81 446.34 585.60 440.64 579.67 440.67 Z M 578.45 445.72 C 580.20 445.66 581.51 447.72 581.39 451.07 C 581.25 455.52 578.14 459.32 576.23 457.40 C 574.32 455.48 574.70 448.10 576.60 446.52 C 577.11 446.07 577.75 445.81 578.43 445.78 Z M 681.53 509.21 C 681.08 510.21 668.76 510.94 664.43 511.54 C 660.10 512.14 647.32 513.10 636.03 513.65 C 624.74 514.20 601.57 515.58 584.52 516.65 C 567.47 517.72 538.00 519.00 519.00 519.28 C 500.00 519.56 483.49 519.97 482.26 520.22 C 475.64 521.59 468.04 533.22 468.01 542.00 C 468.01 555.00 478.13 561.92 497.01 561.77 C 611.73 560.85 640.62 560.03 660.25 557.11 C 665.72 556.30 671.23 555.81 676.75 555.65 L 683.51 555.65 C 682.86 553.00 681.85 550.45 680.51 548.08 C 680.51 548.95 679.16 549.22 674.72 549.38 C 671.28 549.51 663.97 550.27 658.47 551.08 C 645.16 553.03 637.97 553.54 637.97 552.54 C 637.97 552.08 640.72 547.54 644.09 542.43 C 647.55 537.18 650.72 531.74 653.60 526.15 C 657.45 518.15 657.88 517.96 669.97 517.77 L 679.59 517.66 Z M 645.90 519.62 C 648.40 519.62 650.02 519.77 650.02 520.00 C 650.02 520.86 642.88 533.00 637.34 541.49 C 634.14 546.41 631.06 551.20 630.50 552.13 C 629.65 553.52 627.17 553.90 616.09 554.35 L 602.71 554.89 L 609.51 541.99 C 613.25 534.90 617.37 527.25 618.67 524.99 L 621.00 521.00 L 629.24 520.36 C 635.06 519.86 641.71 519.63 645.88 519.68 Z M 614.14 520.55 L 610.43 527.32 C 608.43 531.05 605.93 535.44 604.97 537.09 C 604.01 538.74 601.57 543.35 599.55 547.34 L 595.88 554.59 L 582.43 554.59 C 575.04 554.59 569.00 554.30 569.00 553.93 C 569.00 553.29 578.38 535.33 583.11 526.93 L 585.46 522.76 L 595.98 522.16 C 601.76 521.83 608.21 521.33 610.31 521.06 Z M 578.14 523.55 L 575.56 527.80 C 574.14 530.14 570.26 537.12 566.94 543.30 L 560.94 554.55 L 549.68 554.55 C 544.70 554.50 539.71 554.71 534.75 555.18 C 532.68 555.53 531.01 555.41 531.04 554.92 C 531.07 554.43 535.04 547.52 539.90 539.54 L 548.71 525.04 L 555.11 524.41 C 558.62 524.06 565.23 523.73 569.80 523.66 Z M 489.14 524.09 C 490.94 524.13 492.73 524.29 494.51 524.57 C 498.36 525.07 501.83 525.48 502.23 525.51 C 502.63 525.54 501.29 528.15 499.23 531.35 C 497.17 534.55 493.48 540.84 491.01 545.35 C 486.01 554.35 484.82 555.00 479.34 551.49 C 476.02 549.11 474.03 545.29 474.00 541.20 C 474.00 536.78 479.00 528.72 483.34 526.20 C 485.75 524.79 487.00 524.22 489.13 524.20 Z M 539.47 525.04 C 539.90 525.02 540.33 525.02 540.76 525.04 C 540.90 525.12 536.96 531.94 532.00 540.20 L 523.00 555.20 L 513.86 555.85 C 504.43 556.52 500.55 556.50 495.72 555.78 L 492.92 555.36 L 496.55 548.68 C 498.55 545.00 502.48 538.33 505.28 533.86 L 510.37 525.71 L 525.44 525.29 C 531.67 525.12 537.10 525.01 539.49 525.00 Z M 635.94 620.62 C 625.36 620.62 612.09 620.74 595.52 620.91 C 537.21 621.51 514.91 622.30 513.40 623.81 C 513.04 624.54 513.04 625.39 513.40 626.12 L 513.40 626.12 C 513.99 627.67 519.79 627.75 591.28 627.27 C 633.76 626.98 669.86 626.27 671.51 625.82 C 673.16 625.37 674.65 624.19 674.81 623.32 C 675.20 621.32 667.68 620.57 635.95 620.62 Z M 508.54 668.75 C 498.93 668.75 496.60 669.06 495.54 669.89 C 494.21 670.89 493.87 671.74 494.54 672.40 C 496.06 673.91 532.91 675.72 578.54 676.53 C 628.40 677.42 688.68 677.01 699.47 675.72 C 705.22 675.03 707.76 674.27 708.73 672.95 C 711.15 669.64 709.73 669.11 699.97 669.59 C 684.25 670.35 574.97 670.10 535.04 669.21 C 522.68 669.00 514.29 668.88 508.53 668.86 Z M 591.54 720.68 C 586.60 720.68 581.54 720.68 576.54 720.78 C 547.79 721.26 541.36 722.01 542.29 724.78 C 542.60 725.78 553.03 726.20 586.62 726.78 C 610.77 727.19 635.94 727.91 642.54 728.38 L 656.73 729.38 C 659.41 729.57 660.60 727.92 659.10 726.11 C 656.55 723.21 626.09 720.88 591.50 720.79 Z M 588.48 777.61 C 586.46 777.53 584.45 777.85 582.55 778.54 C 578.05 780.25 571.10 787.67 567.89 794.19 C 565.16 799.75 564.89 801.19 565.20 807.36 C 565.66 815.64 568.45 820.48 574.54 823.61 C 579.76 826.30 590.54 825.88 596.65 822.75 C 609.46 816.19 615.65 803.75 611.60 793.06 C 608.29 784.62 597.54 778.00 588.44 777.72 Z M 588.79 785.05 C 593.75 785.09 598.47 787.22 601.79 790.91 C 605.79 795.49 606.64 798.63 605.13 803.65 C 603.52 809.00 599.00 814.00 593.50 816.55 C 590.33 817.96 586.90 818.68 583.43 818.65 C 578.62 818.65 577.43 818.26 574.99 815.80 C 568.45 809.25 570.72 798.71 580.30 788.18 C 582.12 786.17 585.27 785.12 588.75 785.16 Z M 483.00 868.15 L 580.35 868.15 C 667.95 868.15 680.56 867.94 678.74 869.32 C 682.24 868.01 682.43 861.32 682.43 861.32 L 681.78 860.94 C 674.72 862.03 649.78 862.09 592.70 862.23 L 592.70 862.23 C 545.29 862.34 503.57 862.66 500.00 862.94 C 496.27 863.22 492.52 863.24 488.78 863.01 C 484.92 862.66 479.46 860.68 481.78 860.45 Z" fill="#efca87" fill-rule="nonzero" id="path1484" node-id="18" stroke="none" target-height="693.1" target-width="373.2012" target-x="400.13882" target-y="176.22"></path><path d="M 79.94 835.81 C 76.81 835.70 75.00 837.22 75.00 840.59 C 75.00 845.01 84.42 859.23 97.00 873.78 L 101.00 878.40 L 97.38 878.98 C 92.12 879.84 90.01 882.17 90.01 887.12 C 90.01 890.00 90.91 892.69 93.01 895.95 L 96.01 902.13 L 101.49 902.13 L 98.79 895.13 C 97.49 892.00 96.00 888.72 96.00 887.64 C 96.00 884.27 103.43 884.99 111.63 889.14 C 119.48 893.14 121.00 893.39 121.00 890.83 C 121.00 888.78 118.28 886.04 112.76 882.54 C 108.99 880.14 87.57 853.42 83.19 845.64 L 80.87 841.54 L 83.76 843.04 C 87.76 845.13 101.48 855.42 107.70 861.04 C 113.56 866.34 120.78 875.56 125.22 883.40 C 128.73 889.61 131.00 890.27 131.00 885.10 C 131.00 881.28 129.40 877.61 124.85 870.96 C 122.63 867.71 121.93 865.46 121.74 860.96 C 121.61 857.76 121.95 854.96 122.50 854.70 C 125.50 853.38 142.17 884.87 145.36 897.90 L 146.04 902.15 L 150.41 902.15 L 149.20 893.62 C 147.99 885.01 144.58 877.13 137.72 864.73 C 132.40 855.11 125.72 846.84 123.00 846.56 C 118.00 846.04 115.00 849.44 115.00 855.68 L 115.00 858.81 L 108.75 853.16 C 96.69 842.25 85.92 836.00 79.94 835.81 Z M 980.73 836.49 C 980.32 836.49 979.88 836.49 979.41 836.49 C 973.97 836.80 958.67 850.79 948.66 864.61 L 942.50 873.11 L 942.19 868.63 C 942.01 866.16 941.39 863.63 940.81 862.88 C 939.17 860.88 935.57 861.38 933.22 863.88 C 928.22 869.21 923.40 883.81 922.75 895.61 L 922.50 901.61 L 928.00 902.10 L 928.00 898.19 C 928.00 892.65 931.16 879.89 934.00 874.19 L 937.00 868.08 L 936.41 879.20 C 935.74 891.75 936.71 893.98 939.95 887.34 C 945.95 875.05 970.08 847.20 978.06 843.34 L 981.56 841.65 L 981.87 845.16 C 982.27 849.66 980.34 855.54 972.38 874.06 C 967.68 885.00 965.00 889.93 962.50 892.26 C 960.60 894.02 959.06 895.91 959.06 896.45 C 959.06 898.72 961.27 898.39 968.19 895.07 C 972.19 893.14 976.25 891.56 977.19 891.56 C 978.88 891.56 980.04 894.29 980.07 898.31 L 980.07 898.31 L 980.07 902.06 L 985.07 902.06 L 985.07 895.60 C 985.07 891.53 984.58 890.08 982.50 887.99 C 980.42 885.90 979.28 885.52 976.50 885.99 C 974.62 886.30 973.07 886.41 973.07 886.24 C 973.07 886.07 975.29 881.24 978.00 875.56 C 987.17 856.25 990.15 843.35 986.44 838.98 C 984.79 837.05 983.64 836.48 980.80 836.51 Z M 778.73 878.40 L 777.96 884.03 C 777.09 890.32 775.36 893.38 772.57 895.81 C 771.28 897.21 770.41 898.94 770.04 900.81 C 770.04 901.01 769.82 901.18 769.31 901.33 C 773.11 901.76 777.01 902.12 777.01 902.12 L 779.59 896.72 C 781.21 893.54 782.47 890.18 783.33 886.72 C 784.04 883.03 784.57 879.95 785.33 879.62 Z" fill="#efca87" fill-rule="nonzero" id="path1506" node-id="19" stroke="none" target-height="66.34003" target-width="912.9935" target-x="75" target-y="835.81"></path><path d="M 415.00 812.16 L 415.00 845.52 C 415.00 863.05 415.46 879.81 416.00 882.77 C 416.93 886.78 418.27 890.68 420.00 894.41 L 422.93 902.16 L 422.93 902.16 L 427.28 902.37 L 429.35 899.56 L 429.35 899.56 L 427.62 895.43 C 426.96 893.83 424.93 890.43 423.74 887.43 C 421.74 882.43 421.57 880.21 421.32 851.12 L 421.05 818.62 Z" fill="#efca87" fill-rule="nonzero" id="path1518" node-id="20" stroke="none" target-height="90.21002" target-width="14.350006" target-x="415" target-y="812.16"></path><path d="M 847.50 301.59 C 847.50 305.76 844.62 309.14 841.07 309.14 L 841.07 309.14 C 837.52 309.14 834.64 305.76 834.64 301.59 C 834.64 297.42 837.52 294.04 841.07 294.04 C 844.62 294.04 847.50 297.42 847.50 301.59 Z" fill="#e8a1a4" fill-rule="nonzero" id="path2909" node-id="21" stroke="none" target-height="15.100006" target-width="12.859985" target-x="834.64" target-y="294.04"></path><path d="M 882.40 208.94 L 882.28 208.94 C 881.73 209.28 881.05 213.52 880.77 218.37 C 880.26 227.37 878.46 232.69 875.39 234.37 C 874.46 234.98 873.98 236.08 874.17 237.17 C 874.60 239.30 876.31 239.36 882.56 237.49 C 888.22 235.78 891.82 236.99 896.49 242.16 C 900.94 247.08 901.22 247.16 903.02 245.04 C 904.02 243.86 904.02 242.94 903.14 241.04 C 900.26 234.72 902.14 229.21 908.25 226.17 C 909.47 225.59 910.32 224.43 910.50 223.09 C 910.50 221.40 909.57 221.02 904.00 220.46 C 894.92 219.53 892.10 218.26 887.39 212.95 C 885.28 210.56 883.12 208.83 882.39 208.90 Z M 886.00 220.94 L 890.66 223.30 C 893.23 224.60 896.21 225.66 897.29 225.66 C 898.71 225.66 898.97 226.00 898.29 226.91 C 897.49 228.13 896.86 229.46 896.42 230.85 C 895.74 232.92 895.17 233.33 893.95 232.64 C 892.25 231.96 890.45 231.58 888.62 231.50 C 885.05 231.26 884.90 231.10 885.45 228.33 C 885.78 226.63 885.98 224.90 886.04 223.17 Z M 180.10 241.94 L 179.82 241.94 C 179.44 241.99 179.08 242.18 178.82 242.46 C 178.22 243.07 177.39 247.08 176.98 251.37 C 176.75 254.68 176.24 257.96 175.47 261.18 C 174.04 264.84 167.86 272.68 166.39 272.68 C 165.50 272.77 164.73 273.36 164.39 274.19 C 163.44 276.67 166.00 278.68 170.08 278.68 C 177.47 278.68 181.08 283.99 182.59 297.18 C 182.78 299.46 183.16 301.71 183.72 303.93 C 184.39 305.09 186.72 304.81 187.78 303.43 C 188.33 302.74 189.32 299.20 189.99 295.56 C 191.40 287.91 195.73 279.70 200.04 276.56 C 204.12 273.56 203.80 271.35 198.79 267.87 C 192.73 263.68 185.10 255.87 184.58 253.36 C 184.35 252.18 183.89 249.58 183.58 247.57 C 183.06 244.33 181.58 242.10 180.15 241.97 Z M 182.35 262.13 L 184.42 264.13 C 185.56 265.25 188.26 267.60 190.42 269.35 L 194.33 272.54 L 191.82 275.85 C 190.37 277.76 189.06 279.76 187.88 281.85 L 186.46 284.59 L 184.56 281.07 C 183.26 278.87 181.50 276.98 179.39 275.53 L 176.11 273.53 L 179.24 267.80 Z M 902.55 275.64 C 901.22 275.64 900.27 278.33 899.71 283.70 C 898.94 291.03 897.07 295.26 893.95 296.70 C 889.46 298.77 888.50 299.58 888.50 301.29 C 888.50 302.84 889.50 303.29 894.37 303.91 C 901.79 304.84 905.66 307.12 908.37 312.18 C 909.20 313.89 910.26 315.48 911.51 316.91 C 914.16 318.91 916.01 316.18 916.01 310.33 C 916.01 305.84 916.39 305.01 920.01 301.53 C 922.23 299.42 924.90 297.68 925.94 297.68 C 927.94 297.68 929.54 294.43 928.41 292.59 C 928.03 291.98 926.52 291.72 925.05 292.02 C 919.38 293.15 909.61 286.73 905.82 279.37 C 904.54 276.88 903.44 275.63 902.52 275.64 Z M 905.66 289.64 L 908.08 291.52 C 909.67 292.73 911.34 293.83 913.08 294.80 L 915.67 296.19 L 913.08 300.24 L 910.49 304.24 L 907.20 302.00 C 905.79 301.00 904.30 300.13 902.74 299.38 C 901.94 299.11 902.20 297.56 903.62 294.29 Z M 167.57 327.77 C 166.04 327.63 163.50 329.96 159.18 334.70 C 152.51 342.01 146.82 345.59 141.83 345.63 C 140.39 345.64 138.96 345.85 137.58 346.26 C 135.45 347.08 135.58 350.56 137.74 351.36 C 144.17 353.73 151.21 362.79 152.96 370.94 C 153.57 373.77 154.61 376.43 155.28 376.85 C 157.06 377.98 158.35 377.30 159.62 374.58 C 163.68 365.84 164.90 364.01 168.36 361.50 C 170.63 359.90 173.17 358.73 175.86 358.05 C 183.09 356.75 183.97 353.71 178.01 350.66 C 172.29 347.75 170.58 344.56 170.01 335.72 C 169.67 330.54 169.13 327.91 167.59 327.72 Z M 163.24 340.65 C 163.52 340.65 163.99 341.89 164.24 343.40 C 164.92 345.70 165.95 347.88 167.31 349.86 C 169.65 353.31 169.70 353.60 167.99 354.14 C 166.99 354.46 164.08 356.94 161.55 359.65 C 159.02 362.36 156.95 363.93 156.95 363.15 C 156.95 362.37 154.95 359.30 152.55 356.33 L 148.15 350.93 L 151.50 349.33 C 154.12 347.91 156.56 346.18 158.77 344.19 C 160.13 342.86 161.63 341.67 163.24 340.65 Z" fill="#efca87" fill-rule="nonzero" id="path1530" node-id="22" stroke="none" target-height="168.46457" target-width="792.7055" target-x="136.05116" target-y="208.9"></path><path d="M 248.13 396.23 C 248.13 396.23 261.39 387.66 259.38 394.35 C 257.37 401.04 249.47 417.92 248.80 419.26 C 248.13 420.60 247.86 427.83 246.92 428.37 C 245.98 428.91 239.57 431.56 238.49 422.53 C 237.41 413.50 248.13 396.23 248.13 396.23 Z" fill="#f2d0b9" fill-rule="nonzero" id="path2721" node-id="23" stroke="none" target-height="37.33777" target-width="21.091034" target-x="238.4884" target-y="391.80164"></path><path d="M 821.38 349.00 C 821.38 349.00 810.02 345.49 810.21 349.37 C 810.40 353.25 808.00 366.00 822.00 368.83 C 836.00 371.66 835.17 362.58 835.17 362.58 C 835.17 362.58 821.25 361.82 821.43 348.95 Z" fill="#f2d0b9" fill-rule="nonzero" id="path2723" node-id="24" stroke="none" target-height="21.799866" target-width="25.00476" target-x="810.1652" target-y="347.54703"></path><path d="M 216.84 344.33 C 215.95 348.89 214.74 354.89 213.84 359.11 C 214.20 359.16 214.57 359.19 214.94 359.19 C 218.74 359.19 221.95 356.36 222.43 352.59 C 222.91 348.82 220.51 345.28 216.83 344.33 Z" fill="#e8a1a4" fill-rule="nonzero" id="path7004-5-5-1-7-6-7-12-0-7" node-id="25" stroke="none" target-height="14.860016" target-width="8.591171" target-x="213.84" target-y="344.33"></path><path d="M 1034.92 902.07 C 1034.92 913.90 936.92 924.79 779.12 930.52 C 621.32 936.25 428.51 935.89 275.81 929.59 C 123.11 923.29 34.57 912.06 44.65 900.25 L 539.40 902.06 L 1034.92 902.06 Z" fill="#f9f1cb" fill-rule="nonzero" id="path1550" node-id="26" stroke="none" target-height="34.316223" target-width="991.0213" target-x="43.89876" target-y="900.25"></path><path d="M 789.54 213.68 L 789.54 213.68 C 784.27 213.68 778.32 214.78 776.08 216.44 C 771.36 219.32 767.44 223.34 764.69 228.14 C 763.69 229.92 756.90 239.64 753.92 243.25 C 747.77 250.14 742.79 258.00 739.19 266.50 C 731.08 285.72 740.98 328.21 736.48 345.15 L 733.84 352.91 C 732.39 357.18 727.58 367.31 723.16 375.41 C 713.80 392.57 708.92 405.97 708.22 416.41 C 707.80 422.63 707.49 423.62 706.11 423.05 C 702.81 421.71 699.37 420.74 695.86 420.16 C 693.06 419.69 691.94 418.88 691.02 416.65 C 687.37 407.86 677.79 408.45 673.95 417.70 C 672.50 421.22 672.29 421.24 669.87 418.17 C 668.44 416.58 666.63 415.37 664.62 414.64 C 656.32 411.91 650.17 420.25 654.43 428.48 C 656.27 432.04 662.65 437.80 666.52 439.41 C 669.02 440.41 669.75 441.55 670.77 445.87 C 671.90 449.78 673.53 453.52 675.62 457.00 C 678.75 462.06 679.08 463.18 678.12 465.30 C 675.49 471.06 678.52 480.30 684.05 483.49 C 685.67 484.41 686.99 485.49 686.99 485.93 C 686.99 488.09 679.92 505.58 679.26 508.58 C 677.80 515.63 678.16 520.81 677.61 526.92 C 676.95 534.33 678.75 541.72 679.96 546.23 C 681.44 551.16 683.45 555.91 685.96 560.41 C 689.73 567.59 701.29 578.61 708.96 582.35 C 721.75 588.57 736.74 590.58 748.96 587.72 C 753.17 586.72 766.51 581.07 772.03 577.94 C 772.34 577.76 770.86 581.12 768.74 585.39 C 761.93 599.09 760.74 613.16 764.55 633.66 C 766.80 645.66 766.46 648.47 761.24 660.39 C 750.38 685.22 736.79 709.03 723.14 727.16 C 714.54 738.58 710.61 743.08 684.14 771.84 C 665.33 792.24 652.55 809.39 650.63 819.64 C 649.63 825.20 651.63 832.90 656.24 838.52 C 660.31 843.45 675.42 855.66 676.94 855.66 C 678.03 856.08 679.03 856.72 679.86 857.54 C 680.41 857.98 680.91 858.47 681.35 859.02 C 681.91 859.86 678.73 868.35 675.23 869.66 L 675.05 869.78 C 667.11 874.61 657.93 888.21 657.93 896.70 L 657.93 896.70 L 657.93 900.70 L 479.77 900.70 L 480.48 896.95 C 481.98 889.61 482.82 882.14 483.00 874.65 L 483.00 868.15 C 483.00 868.15 483.36 858.21 482.60 855.40 C 481.13 849.90 478.60 845.66 472.00 837.19 C 464.54 827.55 464.00 826.49 463.94 821.99 C 463.89 814.76 461.44 808.92 450.35 789.65 L 440.28 772.15 L 431.33 756.40 C 430.61 755.83 428.25 751.90 424.28 744.65 L 421.28 739.15 C 421.28 739.15 415.35 727.50 412.01 719.79 C 409.12 714.71 398.54 689.47 394.01 676.79 C 389.71 664.73 388.95 659.35 387.01 627.19 C 386.38 616.74 385.17 603.46 384.31 597.69 C 381.69 579.99 381.69 580.15 383.87 574.34 C 389.35 559.67 387.16 552.50 375.24 546.13 C 375.09 546.05 373.65 540.56 372.03 533.93 C 370.41 527.30 367.28 515.65 365.08 508.03 C 362.88 500.41 358.59 483.03 355.56 469.45 C 352.53 455.87 349.64 443.92 349.14 442.95 C 348.64 441.98 347.46 435.38 346.52 428.29 C 345.58 421.20 343.77 411.07 342.52 405.79 C 341.27 400.51 339.88 393.94 339.52 391.19 C 337.76 378.98 329.52 371.72 317.31 371.69 C 315.52 371.69 314.06 371.24 314.06 370.69 C 313.69 369.56 313.03 368.54 312.13 367.76 C 310.23 365.85 310.23 365.76 312.13 362.05 C 314.41 357.59 314.57 354.76 312.70 352.21 C 310.59 349.33 311.89 342.21 315.70 335.94 C 322.29 324.94 325.26 311.73 323.11 302.78 C 318.88 285.13 298.52 273.47 254.94 263.72 C 240.10 260.41 236.29 258.72 233.73 254.10 C 230.38 248.10 227.14 248.22 221.10 254.48 C 214.64 261.18 212.10 268.16 212.10 279.12 C 212.10 289.64 214.67 298.32 220.10 306.04 C 221.61 308.05 222.95 310.17 224.10 312.40 C 223.40 314.73 222.57 317.02 221.61 319.26 C 213.66 339.13 208.12 374.44 211.87 381.26 C 212.96 383.26 212.76 383.41 208.03 383.97 C 202.11 384.67 193.93 388.87 190.46 392.97 C 181.16 404.02 176.13 426.35 176.08 456.83 L 176.08 470.12 L 172.69 463.82 C 168.23 455.55 167.40 454.63 162.37 452.40 C 158.47 450.68 158.18 450.29 158.87 447.82 C 159.43 444.25 159.65 440.63 159.55 437.02 C 159.44 424.57 156.02 420.39 143.62 417.61 C 141.21 416.98 138.71 416.79 136.24 417.06 C 133.24 417.56 129.74 413.63 128.05 412.20 C 121.47 406.67 114.13 410.43 112.68 420.08 C 111.68 426.58 116.21 445.78 121.13 456.08 C 123.23 460.48 124.61 464.30 124.19 464.58 C 120.78 466.84 120.19 475.93 123.04 482.02 C 124.04 484.26 126.59 489.91 128.60 494.58 C 134.08 506.97 140.40 518.97 147.51 530.50 C 158.79 547.89 174.51 556.30 189.37 552.88 C 205.22 549.22 214.85 539.03 219.54 520.94 C 220.32 518.13 220.85 515.26 221.13 512.36 C 221.06 511.30 221.28 510.23 221.76 509.28 C 222.12 508.93 225.63 513.92 229.58 520.36 C 233.53 526.80 239.20 535.46 242.18 539.58 C 247.05 546.31 247.62 547.58 247.62 552.18 C 247.62 556.57 246.99 558.18 243.02 564.18 C 241.02 567.18 239.23 570.05 237.87 572.39 C 236.17 575.30 236.98 580.62 239.25 583.09 C 241.68 585.71 242.79 587.56 241.95 587.56 C 241.11 587.56 239.09 589.04 237.34 590.85 C 233.83 594.46 232.13 600.80 232.13 610.23 C 232.17 613.81 231.32 617.35 229.65 620.52 C 220.81 637.97 196.23 707.24 192.97 723.89 C 188.97 744.49 190.50 770.20 198.71 819.07 C 200.43 829.31 205.47 848.83 208.14 855.61 L 209.94 860.16 L 206.38 864.45 C 199.30 872.97 185.15 883.24 164.88 894.59 C 160.61 896.97 157.13 899.29 157.13 899.74 C 157.13 900.19 155.64 900.56 153.83 900.56 L 101.41 900.56 L 95.93 900.56 L 67.71 900.83 L 39.50 901.10 L 39.50 906.10 L 100.00 906.60 L 100.00 906.60 C 191.19 907.35 983.57 907.47 1014.00 906.74 L 1040.50 906.10 L 1040.50 901.10 L 1012.75 900.83 L 985.00 900.62 L 980.00 900.62 L 928.00 900.62 L 922.50 900.12 L 914.64 900.41 C 908.36 900.65 906.55 900.41 905.64 899.11 C 905.00 898.23 901.46 896.46 897.77 895.17 C 885.47 890.87 870.32 881.49 865.52 875.17 L 863.09 871.98 L 865.56 867.11 C 866.91 864.43 868.02 860.99 868.02 859.46 C 868.02 856.98 868.91 856.23 876.08 852.61 C 884.83 848.20 897.53 839.89 900.46 836.66 C 901.74 834.94 902.62 832.96 903.05 830.86 C 903.48 828.78 904.74 822.86 905.86 817.58 C 911.13 793.07 909.75 773.21 899.45 725.13 C 896.98 713.60 894.04 698.75 892.91 692.13 C 890.15 675.84 889.36 643.90 891.01 615.74 C 892.15 596.22 892.52 593.60 894.71 589.25 C 897.64 583.43 897.18 579.89 892.96 575.66 L 890.05 572.76 L 892.05 568.42 C 894.69 562.60 894.58 561.13 891.05 555.93 C 888.25 551.78 888.05 550.86 888.05 542.15 C 888.05 534.27 888.67 530.71 892.05 519.15 C 897.05 501.72 899.17 491.39 899.97 480.09 L 900.60 471.09 L 917.69 471.39 C 942.69 471.83 953.54 469.00 962.47 459.77 C 968.26 453.77 969.85 442.22 966.20 432.62 C 958.77 413.04 933.02 387.62 907.60 374.84 C 897.25 369.61 894.88 368.96 881.10 367.49 C 874.78 366.82 869.47 366.17 869.30 366.04 C 869.13 365.91 869.75 363.48 870.69 360.63 C 872.02 356.54 872.27 353.28 871.82 345.27 C 871.18 333.54 868.49 323.48 861.64 307.18 C 853.48 287.79 852.89 284.53 852.20 255.09 C 851.53 225.96 851.02 223.71 844.57 221.01 C 839.90 219.06 837.99 219.20 828.17 222.20 C 816.35 225.80 812.17 225.29 804.17 219.29 C 800.79 216.74 796.45 214.37 794.54 214.01 C 792.93 213.73 791.30 213.60 789.66 213.62 Z M 788.11 220.60 L 788.11 220.60 C 791.82 220.48 795.49 221.39 798.72 223.23 C 811.18 230.45 812.22 230.83 818.00 230.31 C 822.24 229.80 826.43 228.98 830.55 227.84 C 845.21 223.71 845.98 225.05 846.01 254.36 C 846.01 279.99 847.38 288.52 854.01 304.78 C 865.81 333.65 867.94 344.52 864.83 360.00 L 863.69 365.69 L 858.59 365.07 C 850.18 363.87 841.87 362.04 833.73 359.58 C 828.30 357.96 826.73 357.01 825.48 354.67 C 824.88 353.61 824.38 352.49 823.98 351.34 C 823.98 351.11 825.98 350.34 828.52 349.65 C 837.52 347.13 844.93 338.90 847.59 328.54 C 850.59 316.71 847.52 292.76 839.48 266.24 C 836.15 255.24 836.04 254.48 837.58 252.14 C 838.47 250.78 838.93 248.97 838.58 248.14 C 838.07 246.81 837.46 246.96 834.58 249.14 C 830.68 252.06 825.45 252.50 821.12 250.27 C 818.35 248.41 815.79 246.25 813.50 243.83 C 806.18 236.33 805.50 237.14 804.07 255.39 C 802.18 279.30 798.90 290.27 791.01 299.01 C 786.95 303.53 778.96 307.66 774.29 307.68 C 770.09 307.68 763.29 305.20 759.36 302.22 C 757.60 300.88 755.88 300.06 755.54 300.41 C 754.32 301.62 754.94 304.41 756.81 306.10 C 758.37 307.51 758.52 308.29 757.66 310.56 C 755.53 316.21 758.89 324.28 765.47 329.31 C 770.47 333.08 775.36 333.12 780.22 329.41 L 783.82 326.67 L 786.31 330.93 C 790.57 338.21 793.86 346.12 794.89 351.56 C 796.78 361.56 792.71 368.62 774.70 386.75 C 758.70 402.83 754.32 409.30 749.29 424.06 C 745.68 434.66 745.50 435.80 745.54 447.69 C 745.54 459.05 747.04 469.69 750.43 482.95 C 750.82 484.46 750.75 485.68 750.28 485.65 C 747.82 485.53 721.92 463.17 721.92 461.16 C 721.92 458.99 715.35 452.70 713.08 452.70 C 711.82 452.70 710.42 451.62 709.57 450.00 C 708.29 447.55 708.35 447.00 710.29 444.39 C 712.23 441.78 712.39 440.39 712.18 429.94 C 711.83 412.76 715.27 401.67 728.18 378.23 C 741.62 353.88 744.18 341.75 741.90 312.17 C 739.22 276.81 742.00 266.33 759.79 244.69 C 762.88 241.02 765.63 237.08 768.03 232.92 C 771.68 225.39 779.87 220.81 788.03 220.64 Z M 810.27 248.69 L 813.81 251.80 C 818.27 255.72 822.87 257.66 827.71 257.66 L 831.50 257.66 L 835.29 273.91 C 841.07 298.69 842.15 305.29 842.22 316.15 C 842.29 327.46 841.22 331.06 835.30 338.78 C 830.85 344.61 828.13 345.65 817.35 345.65 C 810.92 345.65 809.00 345.97 809.00 347.03 C 809.00 349.03 811.00 350.38 815.20 351.17 C 818.44 351.77 819.06 352.37 820.20 356.01 C 821.30 359.38 822.38 360.55 825.99 362.31 C 828.44 363.50 830.69 364.31 830.99 364.13 C 832.51 363.19 833.86 366.00 835.99 374.51 C 838.04 382.79 838.17 384.41 837.07 388.51 C 836.42 391.01 835.29 393.35 833.72 395.40 L 833.72 395.40 C 827.55 401.97 807.60 392.28 798.00 378.06 C 795.36 374.15 795.11 373.24 796.16 371.34 C 798.32 367.42 800.89 359.22 800.92 356.11 C 800.98 350.95 798.12 341.52 793.92 333.11 C 790.29 325.83 784.99 318.61 783.25 318.61 C 782.87 318.61 781.12 320.19 779.35 322.11 C 775.30 326.54 771.41 326.79 767.67 322.86 C 765.00 320.00 763.00 315.75 763.00 312.70 C 763.00 310.96 763.27 310.94 767.75 312.33 C 773.75 314.17 779.84 313.45 786.75 310.09 C 793.25 306.92 798.28 301.23 802.62 292.16 C 807.47 282.01 809.14 274.72 809.75 260.93 Z M 228.70 255.42 C 229.09 255.39 229.46 255.56 229.70 255.87 C 230.39 256.85 230.87 257.96 231.11 259.14 C 231.74 262.53 239.06 265.53 259.11 270.60 C 269.75 273.29 281.50 276.66 285.24 278.08 C 307.24 286.48 316.87 296.08 316.92 309.67 C 316.92 318.39 311.08 337.67 308.39 337.67 C 307.51 337.67 306.95 339.28 306.75 342.42 L 306.45 347.17 L 301.10 347.83 C 295.20 348.55 286.36 353.83 282.62 358.90 C 281.37 360.55 279.90 362.00 278.23 363.22 C 276.14 364.59 275.85 364.58 275.30 363.14 C 273.88 359.47 275.77 348.07 279.01 340.67 C 281.36 335.32 283.01 331.00 283.31 327.67 C 283.81 324.15 282.26 320.66 279.31 318.67 L 274.67 314.80 C 262.27 304.34 253.00 287.22 253.00 279.11 C 253.00 275.79 250.24 275.90 249.00 279.28 C 248.05 281.76 248.62 285.09 251.56 294.40 C 252.19 296.40 251.93 296.65 249.35 296.65 C 244.01 296.65 232.35 287.40 230.56 281.72 C 229.49 278.34 227.04 279.19 227.04 282.93 C 227.04 286.33 228.58 289.23 232.83 293.84 L 235.30 296.53 L 231.67 300.77 C 229.67 303.10 228.04 305.38 228.04 305.83 C 228.04 308.50 225.86 305.61 222.45 298.40 C 218.68 290.40 218.54 289.79 218.54 279.65 C 218.54 270.21 218.81 268.65 221.19 264.15 C 223.94 258.88 226.91 255.53 228.70 255.42 Z M 826.25 290.71 C 824.92 290.64 823.67 291.35 823.06 292.53 C 821.79 294.92 823.28 300.39 825.71 302.23 C 827.09 303.36 828.89 303.85 830.65 303.57 C 832.42 303.29 833.97 302.26 834.93 300.75 C 837.74 296.81 837.55 295.99 833.58 294.68 C 831.89 294.16 830.32 293.28 829.00 292.10 C 828.32 291.27 827.32 290.76 826.25 290.71 Z M 239.93 300.11 L 239.93 300.11 C 241.14 300.30 242.31 300.66 243.42 301.18 C 246.09 302.24 248.98 302.66 251.84 302.40 C 255.31 301.93 255.84 302.18 257.46 304.85 C 260.08 309.29 269.29 318.15 274.38 321.13 L 278.86 323.76 L 277.40 328.66 C 276.60 331.35 274.54 336.84 272.82 340.85 C 270.35 346.64 269.69 349.60 269.66 355.15 C 269.58 366.59 273.46 371.15 280.21 367.54 C 282.09 366.54 282.21 366.64 281.66 368.79 C 281.31 370.09 280.49 373.79 279.84 377.10 C 278.93 381.70 277.84 383.88 275.08 386.67 C 271.99 390.05 269.13 393.64 266.52 397.40 C 262.57 403.05 260.90 404.63 258.38 405.11 C 252.56 406.20 243.38 418.35 244.20 423.96 C 244.39 425.35 243.88 426.22 242.75 426.45 C 239.67 427.06 240.40 417.03 244.07 408.29 C 246.59 402.29 248.07 400.29 252.07 397.29 C 254.78 395.29 257.00 393.20 257.00 392.69 C 257.00 390.50 254.72 390.86 247.86 394.14 C 239.67 398.07 237.31 398.37 232.70 396.02 C 221.86 390.52 215.53 380.96 215.58 370.15 C 215.58 358.08 223.97 327.34 231.04 313.15 C 236.04 303.23 237.37 300.29 239.55 300.15 L 239.93 300.15 Z M 227.50 337.11 L 227.65 340.45 C 227.83 342.58 228.68 344.59 230.08 346.20 C 233.26 349.59 237.40 349.37 241.15 345.61 C 242.81 343.96 243.98 342.04 243.75 341.36 C 243.08 339.29 238.41 337.57 232.80 337.36 Z M 303.58 352.69 L 303.58 352.69 C 304.07 352.68 304.56 352.70 305.04 352.77 C 308.55 353.26 309.04 358.77 305.83 361.02 C 303.12 362.91 295.73 363.02 291.59 361.28 L 288.69 360.04 L 291.89 357.36 C 295.22 354.65 299.30 353.02 303.58 352.69 Z M 288.13 365.77 L 291.53 367.19 C 293.93 368.07 296.45 368.55 299.00 368.61 C 301.30 368.62 303.57 369.20 305.60 370.28 L 308.14 371.94 L 300.00 374.33 C 295.88 375.49 291.84 376.94 287.93 378.68 C 283.24 381.08 283.11 380.62 286.05 371.93 Z M 840.19 367.00 C 840.30 367.01 840.42 367.03 840.52 367.08 C 841.26 367.36 843.74 368.08 846.02 368.71 C 850.92 370.03 861.02 379.21 861.02 382.35 C 860.82 383.80 859.84 385.03 858.47 385.55 L 858.47 385.55 C 855.47 386.93 850.56 386.93 846.80 385.55 C 844.71 384.79 843.94 383.71 843.49 380.88 C 842.89 377.83 842.07 374.82 841.05 371.88 C 839.81 368.32 839.56 367.01 840.21 367.00 Z M 861.82 371.60 L 876.16 372.20 C 884.28 372.54 892.38 373.83 900.50 377.84 C 927.29 391.36 948.78 411.50 958.78 432.49 C 962.63 440.57 962.78 444.49 959.34 451.42 C 954.81 460.71 942.76 464.65 918.23 464.88 C 902.75 465.03 895.68 464.06 886.75 460.55 L 884.00 459.42 L 887.00 455.61 C 894.00 446.75 896.21 437.26 893.26 428.53 L 891.36 422.91 L 909.61 423.03 C 928.14 423.16 931.89 422.50 928.53 419.71 C 926.89 418.35 911.28 416.77 898.80 416.71 L 891.14 416.71 L 887.46 411.71 C 883.38 406.15 880.46 403.71 877.74 403.71 C 875.02 403.71 875.62 405.60 880.54 411.36 L 885.12 416.72 L 880.04 416.88 C 877.25 416.97 874.37 417.09 873.64 417.13 C 872.91 417.17 870.31 414.76 867.86 411.75 C 858.24 399.95 848.61 398.28 838.10 406.61 C 834.51 409.45 833.91 410.61 832.41 417.34 C 829.25 431.52 832.41 439.34 841.05 438.53 C 844.28 438.23 845.05 438.53 846.44 440.93 C 847.33 442.45 850.14 444.93 852.68 446.39 C 856.19 448.67 859.44 451.33 862.38 454.32 C 865.77 457.80 868.80 459.90 871.47 460.61 C 874.47 461.53 877.39 462.70 880.19 464.10 C 883.35 465.64 886.64 466.89 890.03 467.83 L 895.16 469.14 L 894.51 475.68 C 893.13 489.36 890.38 502.87 886.32 516.00 C 882.32 529.44 881.84 531.94 881.67 542.17 C 881.50 552.40 881.67 553.74 883.75 556.52 C 886.75 560.65 886.58 564.46 883.02 569.29 C 879.31 574.34 870.89 578.89 861.30 581.03 C 853.53 582.77 828.65 583.11 819.65 581.60 C 808.32 579.70 793.03 573.80 790.02 570.17 C 788.18 567.96 790.65 560.11 795.49 552.77 C 797.44 549.84 798.95 546.64 799.99 543.27 C 804.27 524.76 794.28 467.61 783.20 447.15 C 779.71 440.71 777.13 441.54 779.38 448.37 C 780.09 450.53 779.93 450.50 774.38 447.58 C 771.22 445.91 767.70 444.69 766.57 444.85 C 762.32 445.46 764.68 448.19 773.28 452.62 L 782.05 457.14 L 784.05 463.64 C 787.74 475.74 791.05 492.08 793.17 508.83 L 795.30 525.51 L 791.84 530.33 C 786.49 537.77 781.25 540.97 773.58 541.46 C 762.87 542.14 750.90 537.07 734.31 524.83 C 717.72 512.59 693.56 488.43 695.72 486.27 C 696.79 485.78 697.97 485.56 699.14 485.64 C 706.59 485.64 718.35 478.76 721.58 472.51 L 723.05 469.68 L 726.78 473.83 C 730.95 478.47 744.48 488.83 749.95 491.58 C 753.61 493.41 768.06 496.64 772.61 496.64 C 774.50 496.64 775.07 496.19 774.82 494.89 C 774.57 493.59 772.61 492.65 768.55 491.57 C 761.97 489.83 762.36 488.86 770.03 487.95 C 773.97 487.49 775.03 486.95 774.79 485.75 C 774.55 484.55 773.19 484.14 768.49 484.14 C 765.45 484.11 762.42 484.35 759.42 484.84 L 756.34 485.53 L 754.00 473.85 C 751.28 460.28 750.27 440.77 751.92 433.85 C 754.30 422.98 759.23 412.82 766.32 404.24 C 769.75 399.91 773.50 395.85 777.53 392.07 L 781.53 388.76 L 781.16 392.76 C 780.16 402.76 783.90 408.68 791.16 408.68 C 795.03 408.68 795.92 408.16 801.16 402.74 L 806.93 396.81 L 813.40 400.17 C 827.73 407.65 838.40 404.89 842.07 392.80 L 843.20 389.01 L 846.84 390.91 C 849.50 392.30 851.91 392.71 855.76 392.41 C 866.06 391.63 870.40 382.86 864.39 374.98 Z M 316.72 378.35 L 316.72 378.35 C 320.45 378.35 323.57 378.87 325.72 380.02 C 331.40 383.02 331.47 383.22 337.46 411.70 C 343.00 438.00 344.36 467.81 341.46 498.53 C 338.46 529.59 332.22 544.44 319.51 550.35 C 313.23 553.28 304.97 553.35 296.26 550.61 C 288.63 548.19 283.94 543.61 274.11 529.20 C 268.17 520.45 254.01 497.30 254.01 496.32 C 254.01 496.13 256.82 494.95 260.26 493.71 C 269.98 490.18 278.17 485.82 282.07 482.07 L 285.64 478.65 L 289.31 483.93 C 294.69 491.65 308.08 506.67 311.24 508.53 C 313.30 509.75 314.24 509.86 315.12 508.99 C 316.00 508.12 315.27 506.65 312.12 502.99 L 308.00 498.15 L 313.24 497.65 C 316.94 497.30 318.49 496.72 318.49 495.65 C 318.49 493.87 315.04 492.84 308.63 492.71 C 304.03 492.62 303.80 492.48 304.36 490.24 C 306.72 480.85 305.71 449.97 302.55 434.91 C 301.03 427.64 300.72 427.12 298.42 428.00 C 297.18 428.48 296.90 429.43 297.33 431.87 C 298.48 438.58 300.13 469.47 299.82 478.43 L 299.49 487.75 L 292.45 479.00 C 288.57 474.15 284.60 468.91 283.62 467.35 C 282.29 465.50 280.49 464.03 278.42 463.08 C 274.55 461.47 274.61 461.83 274.96 444.18 C 275.20 432.40 273.46 423.84 268.90 414.28 L 265.70 407.60 L 268.39 404.79 C 270.52 402.28 272.35 399.52 273.84 396.58 C 276.16 392.06 277.58 390.66 282.55 387.98 C 293.77 381.98 307.20 378.35 316.72 378.33 Z M 792.00 378.70 C 792.53 378.70 793.84 380.39 794.92 382.45 C 796.32 384.97 798.02 387.32 799.98 389.45 C 803.64 393.28 803.21 394.79 797.12 399.62 C 794.97 401.32 792.05 402.71 790.64 402.71 C 788.49 402.71 787.90 402.06 786.99 398.71 C 785.22 392.07 788.59 378.65 792.00 378.65 Z M 213.91 389.27 L 213.91 389.27 C 215.78 389.27 216.60 390.01 218.75 392.27 C 224.22 397.90 230.91 401.94 235.62 402.47 C 238.03 402.74 239.99 403.30 239.99 403.71 C 239.42 405.64 238.70 407.52 237.82 409.33 C 235.37 414.85 234.70 425.81 236.70 427.81 C 237.70 428.76 236.97 429.81 233.59 432.81 C 227.86 437.81 226.59 441.13 227.22 449.55 C 227.41 454.13 228.71 458.60 231.00 462.57 C 234.00 468.00 241.00 475.65 243.10 475.65 C 243.51 475.65 243.60 478.05 243.30 480.97 C 243.00 483.83 243.37 486.72 244.37 489.41 C 245.37 492.73 250.00 499.99 252.18 504.51 C 257.09 514.69 268.92 533.51 275.74 542.01 C 282.08 549.89 287.85 553.91 296.85 556.69 C 318.96 563.52 336.74 551.69 342.48 526.45 C 345.31 512.72 347.38 498.85 348.68 484.89 C 349.00 480.09 349.68 475.48 350.10 474.66 C 350.75 473.49 350.93 473.66 350.96 475.39 C 350.96 477.39 353.15 486.03 364.51 529.52 C 368.27 543.92 368.06 545.69 361.59 553.52 C 349.74 567.80 324.00 583.91 305.19 588.83 L 305.19 588.83 C 295.19 591.44 276.70 592.19 268.49 590.31 C 257.44 587.77 241.99 580.31 241.99 577.50 C 241.99 576.99 244.29 572.81 247.11 568.21 C 249.93 563.61 252.50 558.47 252.85 556.79 L 253.49 553.79 L 259.99 558.31 C 263.21 560.52 266.29 562.92 269.24 565.48 C 271.24 567.39 272.31 567.82 273.09 567.04 C 273.87 566.26 273.87 565.39 273.09 563.94 C 271.48 560.94 262.01 552.94 257.73 550.94 C 254.79 549.59 252.47 546.94 247.09 538.71 C 227.16 508.28 209.63 472.46 205.88 454.50 C 204.59 448.35 203.36 446.55 201.88 448.72 C 199.88 451.72 203.59 467.90 209.51 482.14 C 210.06 483.46 208.21 482.57 203.57 479.25 C 198.45 475.61 196.57 474.72 195.67 475.61 C 194.77 476.50 194.80 477.26 195.55 478.49 C 197.30 481.35 206.00 486.72 208.88 486.72 C 211.24 486.72 211.93 487.54 214.55 493.47 L 217.55 500.22 L 215.86 509.71 C 213.10 525.24 209.34 533.45 201.96 540.12 C 194.58 546.79 185.37 549.57 177.87 547.29 C 162.34 542.58 155.67 535.00 138.68 502.71 L 132.11 490.21 L 139.80 490.21 C 144.17 490.24 148.52 489.63 152.71 488.39 C 158.22 486.50 166.55 479.80 168.93 475.34 C 170.32 472.76 170.41 472.89 174.52 483.47 C 179.80 497.09 188.35 515.23 189.94 516.21 C 193.59 518.46 192.75 514.09 186.47 498.13 L 179.83 481.24 L 180.92 459.95 C 182.54 428.53 184.86 414.78 190.41 403.95 C 194.83 395.31 200.34 391.41 210.49 389.78 C 211.62 389.56 212.76 389.43 213.90 389.37 Z M 849.91 407.13 C 851.13 407.12 852.35 407.30 853.51 407.66 C 857.83 409.08 866.33 418.28 871.40 427.00 C 873.54 430.70 876.40 436.00 875.86 437.62 C 875.23 439.56 873.65 441.04 871.67 441.53 C 862.84 444.26 856.75 443.53 851.50 439.20 C 849.12 437.20 848.79 436.51 849.88 435.79 C 850.80 435.18 852.38 435.53 854.62 436.86 C 857.80 438.74 858.02 438.75 858.62 437.07 C 859.12 435.76 858.02 434.14 854.37 430.84 C 847.28 424.41 845.09 423.11 843.70 424.50 C 842.85 425.35 843.10 426.37 844.70 428.50 C 847.27 431.97 846.81 432.62 841.80 432.62 C 838.48 432.62 837.90 432.27 837.30 429.90 C 836.44 426.46 838.54 413.90 840.48 410.90 C 842.00 408.65 846.12 407.13 849.91 407.13 Z M 259.10 411.21 C 259.97 411.15 260.76 412.01 262.69 414.21 C 267.28 419.45 269.27 428.74 269.57 446.33 C 269.71 454.13 270.10 461.40 270.44 462.49 C 270.95 464.09 270.08 465.03 265.78 467.49 C 262.36 469.36 258.78 470.90 255.07 472.09 C 253.00 472.75 250.89 473.28 248.75 473.68 C 246.80 473.68 236.75 462.42 234.84 458.06 C 233.52 454.76 232.66 451.30 232.27 447.77 C 231.76 442.17 231.79 442.10 235.98 438.32 C 239.90 434.78 252.98 427.68 255.60 427.68 C 256.50 427.52 257.32 427.04 257.89 426.32 C 259.61 424.24 256.70 422.32 252.99 423.03 C 251.27 423.38 249.99 423.21 249.99 422.64 C 249.99 420.90 254.82 413.92 257.20 412.22 C 257.73 411.72 258.39 411.37 259.10 411.21 Z M 122.29 415.00 C 123.82 415.10 125.26 415.73 126.37 416.78 L 129.12 418.93 L 127.06 421.13 C 125.06 423.29 124.25 426.69 125.79 426.69 C 127.43 426.19 129.01 425.52 130.50 424.69 C 132.54 423.62 134.76 422.94 137.05 422.69 C 141.34 422.69 149.05 425.40 151.62 427.80 C 153.70 429.80 154.00 430.95 154.00 437.35 C 154.00 447.35 151.28 460.58 148.62 463.57 C 147.09 465.14 145.28 466.41 143.28 467.32 C 135.62 470.58 133.28 469.14 127.48 457.69 C 117.38 437.64 115.43 415.21 122.29 415.00 Z M 682.94 415.69 C 683.48 415.69 684.84 416.69 685.94 417.88 L 687.94 420.07 L 684.94 421.33 C 682.88 422.20 682.13 423.07 682.55 424.14 C 682.97 425.21 684.67 425.69 689.41 425.69 C 696.34 425.69 703.75 427.84 705.68 430.41 C 707.38 432.68 706.31 439.41 704.49 443.82 C 703.15 447.01 703.15 447.97 704.49 452.47 C 706.70 459.92 707.43 461.27 702.91 463.09 C 697.66 465.18 691.30 465.09 686.91 462.94 C 684.11 461.55 682.54 459.45 679.07 452.50 C 676.68 447.73 674.49 442.02 674.20 439.83 C 673.33 433.37 679.67 415.70 682.85 415.69 Z M 661.78 420.00 C 663.50 420.09 665.91 421.38 668.61 423.83 C 670.38 425.44 670.61 426.39 669.98 429.75 C 669.77 431.31 669.35 432.84 668.72 434.28 C 668.42 434.57 666.12 432.83 663.59 430.41 C 660.35 427.30 659.00 425.21 659.00 423.30 C 659.00 421.00 660.00 419.90 661.78 420.00 Z M 875.10 422.66 L 878.53 422.66 C 880.91 422.66 882.97 423.56 885.23 425.58 C 888.36 428.38 888.50 428.81 888.50 435.86 C 888.50 442.45 888.16 443.73 885.25 448.28 C 883.46 451.06 880.85 453.87 879.45 454.50 C 878.58 454.95 877.65 455.31 876.70 455.56 C 876.59 455.51 875.15 455.13 873.50 454.74 C 869.78 453.84 866.70 452.22 865.14 450.34 C 864.14 449.14 864.58 448.78 867.67 448.20 C 872.67 447.26 878.67 444.10 879.96 441.73 C 881.44 438.97 880.04 434.62 876.65 426.42 Z M 157.49 455.76 C 158.63 455.95 159.75 456.28 160.80 456.76 C 162.90 457.43 164.49 459.16 165.00 461.30 C 166.63 466.23 165.49 470.67 161.33 475.53 C 156.98 480.61 152.33 483.12 144.49 484.53 C 131.97 486.85 129.16 485.82 127.06 478.12 C 125.83 473.62 125.60 467.62 126.65 467.62 C 127.03 467.62 128.65 468.86 130.22 470.37 C 132.72 472.78 133.88 473.12 139.36 473.12 C 144.63 473.12 146.29 472.67 149.76 470.26 C 154.10 467.26 158.59 459.71 157.59 457.10 C 157.29 456.25 157.10 455.81 157.49 455.76 Z M 712.49 456.16 L 714.72 459.78 C 719.20 467.02 716.42 473.49 707.09 477.50 C 701.25 480.00 692.45 481.00 689.00 479.59 C 684.14 477.59 682.00 474.59 682.00 470.04 L 682.00 465.76 L 687.59 468.33 C 694.12 471.33 698.31 471.13 705.50 467.54 C 710.84 464.88 711.18 464.46 711.95 459.69 Z M 275.76 467.65 C 276.25 467.65 277.67 468.74 278.92 470.07 C 283.41 474.85 279.23 479.07 263.06 486.22 C 257.52 488.66 252.30 490.65 251.47 490.65 C 249.47 490.65 247.82 486.17 248.20 481.84 C 248.48 478.65 248.76 478.39 252.38 478.07 C 258.90 477.38 265.11 474.96 270.38 471.07 C 272.85 469.20 275.28 467.65 275.76 467.65 Z M 691.20 491.19 L 694.26 495.19 C 699.93 502.58 721.42 523.19 731.00 530.35 C 736.12 534.21 741.47 537.76 747.00 541.00 C 763.42 549.93 779.87 549.78 790.32 540.58 C 794.91 536.58 794.93 536.53 795.54 538.93 C 795.99 540.74 794.84 543.43 790.91 549.74 C 788.04 554.36 785.09 559.11 784.37 560.30 C 780.70 566.36 759.37 578.76 747.80 581.51 C 741.44 583.03 729.69 582.82 723.00 581.05 C 709.69 577.54 699.46 570.05 691.84 558.28 C 685.74 548.84 683.50 540.34 683.50 526.63 C 683.50 516.03 683.80 514.19 687.35 503.15 Z M 371.26 550.65 L 371.26 550.65 C 373.26 550.65 379.07 555.48 380.16 558.07 C 381.40 561.07 381.28 561.76 376.80 577.40 C 375.86 580.71 375.85 582.91 376.80 587.29 C 377.44 590.39 377.74 593.29 377.44 593.79 C 376.22 595.79 370.44 594.52 366.33 591.38 C 360.99 587.27 358.60 584.16 355.33 577.05 L 352.71 571.33 L 358.20 566.24 C 361.51 563.10 364.48 559.64 367.09 555.90 C 368.97 553.02 370.85 550.66 371.27 550.65 Z M 784.60 573.65 C 784.88 573.65 785.00 574.03 785.00 574.65 C 785.00 576.32 802.76 584.40 811.50 586.71 C 817.50 588.29 823.69 588.96 836.13 589.34 C 859.35 590.06 870.57 587.80 882.00 580.10 L 887.00 576.76 L 889.00 579.32 C 891.53 582.55 891.53 585.15 889.00 589.88 C 886.00 595.44 884.56 614.38 884.59 647.61 C 884.59 679.96 884.92 682.61 893.02 719.61 C 901.51 758.42 902.15 762.52 902.73 782.13 C 903.19 797.69 902.96 802.13 901.04 814.13 C 898.42 830.55 897.52 833.04 892.61 837.35 C 884.93 844.09 843.75 862.02 845.53 857.84 C 849.53 848.50 851.72 831.23 852.96 799.57 C 854.49 760.47 856.59 729.68 859.63 701.74 C 861.17 687.64 861.04 685.14 858.89 687.29 C 854.89 691.29 848.89 749.29 847.06 801.57 C 846.12 828.14 844.58 843.04 841.90 851.33 C 840.13 855.69 838.13 859.94 835.90 864.08 C 831.66 872.08 830.21 873.98 826.37 876.23 C 822.82 878.31 820.31 878.94 814.70 879.15 C 805.35 879.50 797.40 878.34 793.06 875.97 C 790.06 874.35 787.43 874.07 775.06 874.07 C 766.06 874.07 760.58 873.69 760.62 873.07 C 761.73 869.99 763.03 866.98 764.52 864.07 C 772.41 847.59 784.06 806.60 784.06 795.29 C 784.06 788.74 781.15 795.00 777.18 810.07 C 770.99 833.60 761.62 859.37 755.84 868.76 C 753.14 873.15 752.55 873.57 749.07 873.57 C 742.41 873.57 722.69 869.76 712.45 866.50 C 696.15 861.31 675.65 848.96 664.59 838.67 C 660.42 834.79 656.08 827.24 656.08 822.57 C 656.08 814.52 669.57 796.02 696.56 767.07 C 728.85 732.42 741.56 714.45 758.91 679.23 C 762.91 671.18 767.19 662.99 768.52 661.03 C 773.11 654.26 773.65 648.38 771.08 633.03 C 766.95 608.26 768.98 595.03 779.26 579.92 C 782.06 575.78 783.75 573.75 784.54 573.63 Z M 347.67 575.01 L 349.35 579.74 C 351.45 585.66 357.80 593.79 363.00 597.24 C 367.47 600.24 375.21 601.51 377.40 599.69 C 378.91 598.44 379.12 600.01 380.52 622.11 C 382.04 646.39 384.83 665.72 388.65 678.61 C 391.86 689.46 404.55 720.12 411.21 733.11 C 420.73 751.70 441.04 786.38 450.15 799.61 C 454.50 806.10 457.33 813.48 458.44 821.21 C 459.22 826.87 458.20 828.38 451.74 831.07 C 444.69 834.02 436.49 832.42 433.60 827.52 C 428.03 818.08 398.60 783.78 383.79 770.82 C 374.01 762.29 373.64 761.82 358.27 737.12 C 349.69 723.35 337.27 705.27 331.79 695.63 C 313.43 663.32 300.56 642.56 299.08 642.84 C 296.43 643.35 296.90 645.40 301.86 654.95 L 306.86 664.50 L 290.00 682.13 C 271.15 701.80 262.00 713.02 258.00 719.83 C 256.53 722.33 245.73 742.18 245.00 750.83 C 244.08 761.93 244.70 776.69 244.13 805.48 C 243.50 837.21 242.95 848.38 241.82 852.40 C 241.00 855.30 240.01 858.00 239.61 858.40 C 238.81 859.21 220.99 859.66 217.01 858.97 C 214.75 858.58 214.08 857.38 211.31 848.82 C 207.52 837.10 205.46 825.82 199.57 784.44 C 195.27 754.23 195.11 752.29 196.12 742.44 C 197.98 724.16 201.59 708.44 207.45 693.28 C 210.45 685.45 215.45 672.08 218.54 663.58 C 221.63 655.08 227.13 640.58 230.78 631.44 L 237.43 614.75 L 241.67 613.13 C 248.36 610.58 254.58 605.25 257.11 599.91 C 258.36 597.27 259.44 595.02 259.52 594.91 C 261.25 595.18 262.95 595.60 264.60 596.18 C 272.02 598.42 285.53 599.07 295.13 597.67 C 310.95 595.36 325.70 589.53 340.65 579.67 Z M 249.67 591.10 C 250.68 591.06 251.67 591.33 252.52 591.87 L 255.07 593.21 L 252.21 597.46 C 250.04 600.40 247.44 602.99 244.50 605.16 C 241.83 607.06 239.21 608.61 238.68 608.61 C 237.37 608.61 238.68 597.61 240.28 595.77 C 241.90 594.35 243.74 593.22 245.73 592.41 C 246.97 591.78 248.30 591.35 249.67 591.14 Z M 309.77 669.39 L 317.54 683.26 C 331.74 708.60 341.64 724.92 355.04 745.12 C 366.70 762.68 369.80 766.58 380.48 777.12 C 387.18 783.72 397.68 794.63 403.82 801.37 L 415.00 813.66 L 421.00 820.16 L 426.23 826.16 C 429.11 829.46 432.77 833.49 434.37 835.16 L 437.27 838.16 L 437.68 860.69 C 437.90 873.08 437.83 884.57 437.53 886.22 C 437.23 887.87 435.25 891.22 433.14 893.67 L 429.30 898.12 L 429.30 898.12 L 427.23 900.93 L 422.88 900.72 L 256.00 900.72 L 254.48 897.77 C 253.57 895.85 253.05 893.77 252.96 891.65 C 252.96 888.42 247.13 869.84 244.61 865.03 C 243.38 862.70 243.44 862.03 245.04 859.30 C 248.91 852.75 249.95 840.67 250.04 801.30 C 250.04 780.88 249.04 758.30 250.81 751.67 C 255.29 734.93 263.37 719.92 266.12 716.46 C 273.01 707.83 292.12 686.83 301.77 677.32 Z M 460.90 832.59 L 460.90 832.59 C 461.68 832.59 462.65 833.89 464.95 837.42 C 467.28 840.92 469.88 844.22 472.74 847.30 C 476.67 851.30 476.82 851.74 477.51 860.02 C 478.20 868.30 477.20 881.26 474.79 894.40 L 474.79 894.40 L 473.65 900.65 L 454.82 900.65 C 444.47 900.65 436.00 900.37 436.00 900.03 C 436.81 898.57 437.82 897.22 439.00 896.03 C 440.65 894.15 442.00 891.90 442.00 891.03 C 442.00 889.72 442.78 889.57 446.54 890.13 C 449.04 890.51 453.42 891.42 456.29 892.13 C 459.16 892.84 461.88 893.13 462.35 892.67 C 464.69 890.38 453.07 884.67 446.07 884.67 L 443.50 884.67 L 443.33 865.67 L 443.16 846.67 L 445.30 848.17 C 448.50 850.41 456.18 850.10 459.36 847.60 C 462.72 844.96 462.97 842.12 459.75 843.18 C 457.66 843.75 455.52 844.15 453.37 844.39 C 449.81 844.79 448.77 844.39 445.87 841.79 L 442.50 838.73 L 446.50 838.68 C 450.92 838.62 457.75 835.90 459.86 833.35 C 460.24 832.89 460.55 832.61 460.91 832.61 Z M 861.51 859.76 C 862.67 859.83 859.28 866.08 856.83 868.15 C 854.87 869.90 852.29 870.79 849.67 870.62 C 845.50 870.62 842.00 869.28 842.00 867.74 C 842.00 867.29 846.16 865.40 851.25 863.54 C 856.34 861.68 860.82 860.01 861.25 859.83 C 861.34 859.78 861.44 859.76 861.54 859.76 Z M 686.00 861.65 L 686.00 861.65 C 687.50 861.65 696.00 865.97 696.00 866.73 C 696.00 867.10 694.59 867.68 692.87 868.03 C 688.87 868.83 686.50 868.82 685.66 868.03 C 684.66 867.03 684.88 861.70 685.97 861.70 Z M 238.50 864.00 L 241.30 871.56 C 244.44 880.02 248.99 896.19 248.99 898.88 C 248.99 900.48 247.52 900.63 231.99 900.63 L 215.00 900.63 L 213.00 896.78 C 210.72 892.31 205.53 887.49 199.93 884.63 L 195.99 882.63 L 204.09 874.63 L 212.18 866.63 L 214.18 869.12 C 217.01 872.72 221.18 874.58 226.48 874.58 C 231.78 874.58 234.97 873.21 234.97 871.04 C 234.97 869.93 233.61 869.58 229.33 869.58 C 225.33 869.58 222.70 868.96 220.33 867.49 C 219.13 866.83 218.00 866.04 216.97 865.14 C 219.39 865.03 221.81 865.09 224.22 865.33 C 227.81 865.61 231.42 865.45 234.97 864.86 Z M 702.50 869.56 L 702.50 869.56 C 703.97 869.56 706.12 870.28 710.50 871.76 C 726.50 877.13 736.81 878.76 758.50 879.34 L 778.60 879.87 L 785.20 881.12 C 785.42 881.03 785.66 881.03 785.88 881.12 C 786.38 881.28 786.88 881.41 787.39 881.55 L 787.50 881.55 L 787.50 881.55 C 795.47 883.82 803.71 885.00 812.00 885.07 C 821.68 885.15 822.87 884.94 827.37 882.40 C 830.05 880.89 832.37 879.65 832.52 879.65 C 832.29 881.27 831.90 882.86 831.33 884.40 C 830.36 887.81 830.03 891.37 830.33 894.90 L 830.81 900.65 L 710.10 900.65 L 707.44 897.17 C 705.89 895.17 702.33 892.54 698.91 890.92 L 693.00 888.15 L 693.61 884.15 C 693.98 881.84 694.65 879.59 695.61 877.46 C 696.29 876.21 696.75 874.86 696.99 873.46 C 696.99 872.73 698.15 871.46 699.58 870.56 C 700.43 869.93 701.46 869.60 702.52 869.61 Z M 681.50 873.09 C 681.84 873.06 682.18 873.09 682.50 873.19 C 684.20 873.68 685.92 874.06 687.67 874.33 L 690.84 874.83 L 689.42 878.83 C 688.66 880.89 688.19 883.04 688.00 885.23 C 688.00 887.37 687.56 887.60 683.56 887.60 C 678.18 887.60 674.00 889.06 674.00 890.94 C 674.00 891.94 676.17 892.46 682.44 892.85 C 690.91 893.38 698.33 895.90 701.04 899.16 C 702.04 900.41 699.63 900.60 682.49 900.60 L 662.75 900.60 L 663.37 897.48 C 665.31 887.86 676.17 873.59 681.51 873.12 Z M 859.08 875.29 C 859.93 875.29 860.31 875.99 860.97 877.59 C 862.01 879.68 863.39 881.57 865.06 883.20 C 868.29 886.30 868.74 887.63 866.53 887.63 C 864.53 887.63 856.99 894.95 856.99 896.91 C 856.99 899.72 859.07 899.91 861.82 897.35 C 864.09 895.49 866.61 893.95 869.31 892.77 L 874.13 890.67 L 883.06 895.16 C 887.97 897.63 891.99 899.86 891.99 900.16 C 891.99 900.46 879.60 900.64 864.46 900.64 C 840.38 900.64 836.85 900.45 836.32 899.08 C 834.09 893.27 840.48 874.80 844.49 875.49 C 851.35 876.65 854.29 876.74 856.88 875.83 C 857.58 875.53 858.32 875.35 859.08 875.31 Z M 190.63 887.56 C 191.19 887.54 191.76 887.61 192.30 887.76 C 196.76 888.96 204.30 894.28 206.30 897.61 L 208.11 900.61 L 188.05 900.61 C 177.05 900.61 168.00 900.39 168.00 900.13 C 168.00 899.87 169.91 898.68 172.25 897.50 C 174.59 896.32 179.42 893.50 183.00 891.16 C 187.00 888.62 188.94 887.63 190.63 887.56 Z" fill="#483613" fill-rule="nonzero" id="path1445" node-id="27" stroke="none" target-height="693.6084" target-width="1001" target-x="39.5" target-y="213.62"></path><path d="M 258.54 356.00 C 258.51 360.15 255.15 363.49 251.00 363.50 L 251.00 363.50 C 247.95 363.50 245.19 361.67 244.02 358.85 C 242.85 356.03 243.49 352.78 245.65 350.61 C 247.81 348.45 251.05 347.81 253.88 348.97 C 256.70 350.14 258.54 352.90 258.54 355.95 Z" fill="#e8a1a4" fill-rule="nonzero" id="path7004-5-5-1-7-6-7-12-0-4" node-id="28" stroke="none" target-height="15.1015625" target-width="15.101624" target-x="243.43839" target-y="348.39844"></path><path d="M 819.74 307.62 C 819.73 311.79 816.36 315.16 812.19 315.16 L 812.19 315.16 C 809.14 315.16 806.38 313.32 805.21 310.50 C 804.05 307.67 804.69 304.43 806.85 302.27 C 809.02 300.11 812.27 299.47 815.09 300.64 C 817.91 301.81 819.74 304.57 819.74 307.62 Z" fill="#e8a1a4" fill-rule="nonzero" id="path7004-5-5-1-7-6-7-12-0-1" node-id="29" stroke="none" target-height="15.101624" target-width="15.1015625" target-x="804.6384" target-y="300.05838"></path></svg>