<?xml version="1.0" standalone="no"?><!DOCTYPE svg PUBLIC "-//W3C//DTD SVG 1.1//EN" "http://www.w3.org/Graphics/SVG/1.1/DTD/svg11.dtd"><svg height="1080" legacy-metrics="false" node-id="1" sillyvg="true" template-height="1080" template-width="1080" version="1.1" viewBox="0 0 1080 1080" width="1080" xmlns="http://www.w3.org/2000/svg" xmlns:xlink="http://www.w3.org/1999/xlink"><defs node-id="33"></defs><path d="M 1030.84 919.61 C 1030.84 931.45 932.84 942.34 775.04 948.07 C 617.24 953.80 424.44 953.44 271.73 947.14 C 119.02 940.84 30.49 929.61 40.57 917.79 L 535.32 919.61 Z" fill="#f9f1cb" fill-rule="nonzero" id="path2212" node-id="7" stroke="none" target-height="34.326294" target-width="991.0213" target-x="39.81868" target-y="917.79"></path><path d="M 713.13 368.44 C 713.13 371.49 711.30 374.25 708.48 375.42 C 705.66 376.59 702.41 375.95 700.24 373.79 C 698.08 371.63 697.44 368.39 698.60 365.56 C 699.77 362.74 702.53 360.90 705.58 360.90 C 709.75 360.90 713.12 364.27 713.13 368.44 Z" fill="#e8a1a4" fill-rule="nonzero" id="path7004-5-5-1-7-6-7-12-0-1-2-5-0-8-2" node-id="8" stroke="none" target-height="15.101593" target-width="15.101624" target-x="698.0284" target-y="360.9"></path><path d="M 915.37 699.87 C 915.37 699.87 831.53 689.96 810.91 701.48 C 790.29 713.00 801.00 753.18 791.09 772.73 C 785.16 784.46 777.97 795.50 769.66 805.68 C 769.66 805.68 867.71 805.86 879.26 801.13 C 890.81 796.40 904.45 785.60 910.70 765.90 C 916.95 746.20 915.37 699.87 915.37 699.87 Z" fill="#f9f1cb" fill-rule="nonzero" id="path2635" node-id="9" stroke="none" target-height="109.77191" target-width="145.88818" target-x="769.66" target-y="695.9081"></path><path d="M 879.26 812.41 C 879.26 812.41 854.07 819.22 808.62 817.71 C 763.17 816.20 752.93 816.71 751.98 829.07 C 751.03 841.43 749.14 876.80 749.14 876.80 C 749.14 876.80 769.60 871.31 772.82 885.89 C 776.04 900.47 768.46 918.09 768.46 918.09 L 885.70 918.09 C 885.70 918.09 893.28 896.49 889.87 864.87 C 886.46 833.25 879.26 812.41 879.26 812.41 Z" fill="#f9f1cb" fill-rule="nonzero" id="path2637" node-id="10" stroke="none" target-height="105.68005" target-width="141.61865" target-x="749.14" target-y="812.41"></path><path d="M 646.87 857.48 C 645.87 857.48 640.43 839.48 624.14 856.92 C 607.85 874.36 604.82 893.10 543.07 874.15 C 481.32 855.20 452.54 865.06 440.42 876.05 C 428.30 887.04 423.75 917.71 423.75 917.71 L 647.25 917.71 Z" fill="#f9f1cb" fill-rule="nonzero" id="path2639" node-id="11" stroke="none" target-height="68.395935" target-width="223.5" target-x="423.75" target-y="849.3141"></path><path d="M 461.63 678.50 C 461.63 678.50 416.17 674.14 412.57 690.24 C 408.97 706.34 415.44 777.00 423.00 779.34 C 430.56 781.68 460.48 722.07 462.00 716.76 C 463.52 711.45 461.63 678.50 461.63 678.50 Z" fill="#f9f1cb" fill-rule="nonzero" id="path2641" node-id="12" stroke="none" target-height="101.32892" target-width="51.026764" target-x="411.5528" target-y="678.0111"></path><path d="M 159.75 692.64 C 159.75 692.64 175.55 725.05 198.32 726.39 C 221.09 727.73 310.32 726.39 310.32 726.39 C 310.32 726.39 328.80 698.80 330.41 669.87 C 332.02 640.94 324.52 631.57 324.52 631.57 C 324.52 631.57 322.91 650.19 320.10 657.28 C 317.29 664.37 308.85 665.19 308.85 665.19 L 306.70 688.19 C 306.70 688.19 308.98 695.29 287.82 696.90 C 266.66 698.51 174.12 697.70 159.82 692.61 Z" fill="#f9f1cb" fill-rule="nonzero" id="path2643" node-id="13" stroke="none" target-height="95.408875" target-width="170.8764" target-x="159.75" target-y="631.57"></path><path d="M 186.27 392.64 C 186.27 392.64 185.73 418.36 207.69 421.17 C 229.65 423.98 299.97 425.45 313.50 412.73 C 327.03 400.01 337.50 371.35 336.94 358.62 C 336.38 345.89 336.00 336.79 334.12 336.79 C 332.24 336.79 328.23 343.89 316.31 343.79 C 304.39 343.69 299.17 342.18 297.56 345.40 C 295.95 348.62 295.68 386.78 291.67 395.89 C 287.66 405.00 275.59 406.47 259.92 406.33 C 244.25 406.19 212.11 407.93 200.99 404.46 C 189.87 400.99 186.26 392.67 186.26 392.67 Z" fill="#f9f1cb" fill-rule="nonzero" id="path2645" node-id="14" stroke="none" target-height="86.29227" target-width="150.68001" target-x="186.26" target-y="336.79"></path><path d="M 452.16 270.71 C 452.16 270.71 462.01 289.46 483.22 292.49 C 504.43 295.52 591.56 292.49 598.76 286.24 C 605.96 279.99 618.07 250.82 613.76 232.24 C 609.45 213.66 600.88 207.62 600.88 207.62 C 600.88 207.62 599.55 259.14 593.30 265.39 C 587.05 271.64 515.08 272.59 498.60 273.91 C 482.12 275.23 456.89 274.31 452.16 270.71 Z" fill="#f9f1cb" fill-rule="nonzero" id="path2647" node-id="15" stroke="none" target-height="86.05063" target-width="162.50357" target-x="452.16" target-y="207.62"></path><path d="M 237.75 342.31 C 237.75 342.31 252.90 354.05 270.33 360.31 C 287.76 366.57 295.15 363.15 295.15 363.15 L 295.15 344.20 Z" fill="#f9f1cb" fill-rule="nonzero" id="path2649" node-id="16" stroke="none" target-height="21.767487" target-width="57.399994" target-x="237.75" target-y="342.31"></path><path d="M 260.46 653.27 C 260.46 653.27 271.98 677.11 289.66 679.79 C 307.34 682.47 308.94 679.79 308.94 679.79 L 308.94 664.52 C 308.94 664.52 267.94 667.73 260.46 653.27 Z" fill="#f9f1cb" fill-rule="nonzero" id="path2651" node-id="17" stroke="none" target-height="27.691345" target-width="48.48001" target-x="260.46" target-y="653.27"></path><path d="M 177.24 563.00 L 252.72 563.00 L 252.72 575.50 L 176.39 575.50 Z" fill="#f9f1cb" fill-rule="nonzero" id="path2653" node-id="18" stroke="none" target-height="12.5" target-width="76.33" target-x="176.39" target-y="563"></path><path d="M 504.24 145.52 L 569.40 145.52 L 578.00 160.37 L 458.79 160.37 Z" fill="#f9f1cb" fill-rule="nonzero" id="path2656" node-id="19" stroke="none" target-height="14.849991" target-width="119.20999" target-x="458.79" target-y="145.52"></path><path d="M 695.64 319.48 C 694.78 318.92 683.42 306.23 683.99 293.92 C 684.56 281.61 686.54 286.15 691.47 288.05 C 696.40 289.95 713.63 287.86 727.07 290.32 C 740.51 292.78 758.32 301.59 758.80 315.22 C 759.28 328.85 763.06 332.55 758.32 339.09 C 753.58 345.63 751.60 344.01 746.11 346.28 C 740.62 348.55 731.52 368.06 726.88 368.92 C 722.24 369.78 723.09 350.36 726.69 341.55 C 730.29 332.74 740.69 323.27 737.21 319.39 C 733.73 315.51 709.93 313.14 702.64 317.97 C 695.35 322.80 695.64 319.48 695.64 319.48 Z" fill="#9a702d" fill-rule="nonzero" id="path2765" node-id="20" stroke="none" target-height="83.26376" target-width="76.69086" target-x="683.99" target-y="285.65625"></path><path d="M 496.00 515.00 C 496.00 515.00 509.64 527.88 523.65 516.89 C 537.66 505.90 536.91 488.89 536.65 485.64 C 536.39 482.39 557.96 500.22 565.82 502.64 C 573.68 505.06 571.60 496.86 571.60 496.86 C 571.60 496.86 564.68 492.32 565.73 490.52 C 566.78 488.72 572.64 486.64 578.73 489.38 C 584.82 492.12 597.96 491.38 589.81 485.12 C 581.66 478.86 598.52 465.52 604.11 459.17 C 609.70 452.82 620.25 440.70 624.52 439.00 C 628.79 437.30 666.75 430.18 669.60 429.43 C 672.45 428.68 661.83 440.61 663.34 448.37 C 664.90 456.01 666.86 463.56 669.21 471.00 C 670.45 474.41 662.68 494.00 662.68 494.00 C 662.68 494.00 644.03 494.00 636.83 495.23 C 629.63 496.46 614.29 496.17 615.05 502.52 C 615.81 508.87 623.05 540.88 623.38 547.60 C 623.71 554.32 631.24 576.60 634.38 579.32 C 637.52 582.04 640.72 581.60 640.72 582.64 C 640.72 583.68 601.89 626.58 592.72 631.98 C 583.55 637.38 569.90 637.37 555.50 636.71 C 541.10 636.05 530.97 640.50 533.62 629.52 C 536.27 618.54 542.24 609.44 555.21 601.95 C 568.18 594.46 582.30 575.72 582.30 575.72 C 582.30 575.72 596.69 579.23 597.64 573.64 C 598.59 568.05 589.78 572.12 592.33 563.98 C 594.88 555.84 603.98 531.21 605.59 523.63 C 607.20 516.05 601.52 509.24 601.52 509.24 C 601.52 509.24 597.00 530.76 586.26 539.00 C 575.52 547.24 569.26 554.81 548.75 549.41 C 528.24 544.01 500.27 520.34 499.13 519.20 C 497.98 517.88 496.94 516.48 496.00 515.00 Z" fill="#f37a81" fill-rule="nonzero" id="path2796" node-id="21" stroke="none" target-height="207.61304" target-width="174.09344" target-x="496" target-y="429.43"></path><path d="M 809.57 458.27 C 809.57 458.27 801.13 448.62 782.38 440.86 C 763.63 433.10 743.28 417.96 741.38 429.86 C 739.48 441.76 735.89 460.66 726.52 469.86 C 717.15 479.06 711.52 470.53 711.52 470.53 C 711.52 470.53 705.89 494.10 705.76 513.66 C 705.63 533.22 704.00 529.39 717.00 531.80 C 730.00 534.21 737.35 526.98 748.87 519.21 C 760.39 511.44 765.61 519.21 770.97 516.53 C 776.33 513.85 783.83 524.30 783.83 524.30 C 783.83 524.30 763.34 525.90 762.40 525.77 C 761.46 525.64 748.60 528.98 751.82 531.93 C 755.04 534.88 779.14 533.67 782.09 551.48 C 785.04 569.29 783.56 575.86 775.39 580.55 C 767.22 585.24 757.85 583.23 757.85 583.23 C 757.85 583.23 790.50 593.01 803.65 590.23 C 816.80 587.45 820.53 576.29 819.72 557.95 C 818.91 539.61 816.78 481.48 815.97 473.57 C 815.16 465.66 809.54 458.30 809.54 458.30 Z" fill="#f37a81" fill-rule="nonzero" id="path2798" node-id="22" stroke="none" target-height="165.20923" target-width="114.18506" target-x="705.63116" target-y="425.46753"></path><path d="M 666.47 332.55 C 666.47 332.55 660.22 319.48 664.67 309.35 C 669.12 299.22 674.42 299.00 674.42 299.00 C 674.42 299.00 675.65 304.40 672.62 313.49 C 669.59 322.58 666.47 332.49 666.47 332.49 Z" fill="#9a702d" fill-rule="nonzero" id="path2763" node-id="23" stroke="none" target-height="33.549988" target-width="11.589294" target-x="663.07385" target-y="299"></path><path d="M 616.56 608.00 C 615.80 610.08 596.48 641.33 579.82 646.45 C 563.16 651.57 537.20 645.45 530.38 649.29 C 523.56 653.13 486.25 696.11 478.11 708.00 C 469.97 719.89 450.45 764.64 435.49 781.49 C 420.53 798.34 405.38 815.02 403.49 819.37 C 401.60 823.72 405.77 835.28 419.21 842.67 C 432.65 850.06 439.10 850.43 444.21 840.78 C 449.32 831.13 442.70 830.93 451.79 823.73 C 460.88 816.53 482.85 782.82 484.37 780.73 C 485.89 778.64 515.00 727.17 519.00 721.30 C 523.00 715.43 551.00 697.06 551.00 697.06 L 642.48 637.06 L 661.42 611.49 C 661.42 611.49 647.78 616.22 638.69 612.25 C 633.30 609.91 628.21 606.91 623.54 603.34 Z" fill="#c0a9d1" fill-rule="nonzero" id="path2800" node-id="24" stroke="none" target-height="244.76654" target-width="258.35696" target-x="403.06302" target-y="603.34"></path><path d="M 752.55 589.10 C 746.01 587.71 739.70 585.42 733.80 582.28 C 724.33 577.17 712.59 574.70 699.14 587.97 C 685.69 601.24 654.82 635.51 639.67 664.30 C 624.52 693.09 625.08 706.00 616.75 712.78 C 608.42 719.56 604.10 728.00 616.94 737.00 C 629.78 746.00 635.12 742.69 639.85 737.38 C 644.58 732.07 669.00 700.76 669.00 700.76 C 669.00 700.76 667.10 664.49 671.27 659.56 C 675.44 654.63 689.08 652.08 692.27 656.82 C 695.46 661.56 696.81 675.82 696.81 675.82 C 696.81 675.82 727.50 647.03 738.81 631.31 C 750.12 615.59 754.81 606.78 752.45 589.07 Z" fill="#c0a9d1" fill-rule="nonzero" id="path2802" node-id="25" stroke="none" target-height="164.37402" target-width="144.182" target-x="608.86273" target-y="578.2242"></path><path d="M 715.15 396.26 C 714.54 405.62 710.22 414.34 703.15 420.50 C 691.23 430.81 684.79 424.79 684.79 424.79 C 684.79 424.79 686.79 411.12 690.02 407.79 C 693.25 404.46 715.15 396.26 715.15 396.26 Z" fill="#f2d0b9" fill-rule="nonzero" id="path3580" node-id="26" stroke="none" target-height="30.263489" target-width="30.360046" target-x="684.79" target-y="396.26"></path><path d="M 762.43 534.87 C 762.43 534.87 762.56 560.87 745.82 564.34 C 729.08 567.81 718.23 566.08 718.23 566.08 C 718.23 566.08 750.64 576.26 763.36 573.31 C 776.08 570.36 775.69 559.65 773.01 549.88 C 771.23 543.85 767.51 538.58 762.43 534.88 Z" fill="#f2d0b9" fill-rule="nonzero" id="path3582" node-id="27" stroke="none" target-height="38.928772" target-width="56.255493" target-x="718.23" target-y="534.87"></path><path d="M 518.14 475.28 C 518.14 475.28 507.14 495.77 492.14 495.63 C 477.14 495.49 471.80 488.00 471.80 488.00 C 471.80 488.00 488.28 510.77 504.62 511.44 C 520.96 512.11 525.51 501.13 526.98 493.09 C 528.45 485.05 525.37 475.95 518.14 475.28 Z" fill="#f2d0b9" fill-rule="nonzero" id="path3584" node-id="28" stroke="none" target-height="36.160004" target-width="55.502686" target-x="471.8" target-y="475.28"></path><path d="M 652.00 545.72 C 652.00 545.72 641.78 552.47 637.57 553.88 C 633.36 555.29 636.00 565.50 637.80 572.00 C 639.60 578.50 643.99 582.41 652.62 579.31 C 661.25 576.21 665.09 572.94 663.21 567.97 C 661.33 563.00 652.00 545.72 652.00 545.72 Z" fill="#72ccd1" fill-rule="nonzero" id="path2902" node-id="29" stroke="none" target-height="34.67688" target-width="28.326538" target-x="635.3214" target-y="545.72"></path><path d="M 550.63 127.88 C 549.52 127.86 548.40 127.96 547.31 128.17 C 542.46 129.07 471.55 153.05 461.43 157.22 C 447.43 162.98 445.43 166.08 444.31 183.73 C 443.69 193.54 443.24 195.73 441.53 197.44 C 438.47 200.51 434.72 208.50 432.24 217.24 C 430.43 223.59 430.03 227.48 430.10 238.05 C 430.19 253.69 432.26 262.62 438.91 276.05 C 450.20 298.84 469.49 315.32 494.58 323.61 C 500.27 325.49 505.11 327.14 505.33 327.27 C 505.55 327.40 503.69 331.92 501.17 337.27 C 498.65 342.62 493.39 354.66 489.45 363.98 C 485.51 373.30 480.60 384.77 480.30 385.25 C 480.22 385.38 480.07 385.45 479.92 385.44 L 483.72 392.96 C 483.66 392.25 483.89 391.55 484.37 391.02 C 485.50 389.73 492.15 374.54 510.31 332.29 L 511.92 328.54 L 524.61 328.54 C 544.35 328.54 556.47 325.30 572.42 315.83 C 584.55 308.53 594.80 298.49 602.34 286.50 C 620.94 257.74 622.40 224.91 605.88 206.63 L 602.42 202.79 L 602.42 188.93 C 602.42 181.30 601.92 173.26 601.31 171.08 C 599.18 163.41 590.72 157.59 581.72 157.56 C 578.72 157.56 578.15 156.92 572.42 147.12 C 564.62 133.78 558.19 127.99 550.63 127.88 Z M 549.63 133.98 C 556.75 133.83 561.07 138.37 567.26 149.30 L 567.26 149.30 L 571.36 156.55 L 526.66 156.47 L 481.96 156.39 L 504.96 148.64 C 517.61 144.38 531.34 139.52 535.46 137.84 C 541.40 135.43 545.90 134.06 549.63 133.98 Z M 544.18 163.20 C 587.08 163.14 588.42 163.72 592.18 167.83 C 595.45 171.36 597.18 179.05 596.76 188.05 C 596.55 192.45 595.97 210.40 595.48 227.96 C 594.30 269.66 595.55 267.77 568.92 268.20 C 560.12 268.34 544.15 269.20 533.42 270.06 C 511.51 271.86 467.77 272.87 462.42 271.69 C 452.29 269.45 451.23 266.54 450.32 238.55 C 449.93 226.17 449.56 207.19 449.51 196.38 C 449.43 179.29 449.66 176.15 451.28 172.38 C 455.20 163.25 453.28 163.50 523.08 163.28 L 544.14 163.22 Z M 550.96 174.55 C 547.87 174.55 541.78 180.93 540.32 185.70 C 538.32 192.23 541.49 200.40 546.85 202.57 C 548.01 203.03 549.22 203.33 550.46 203.46 C 552.54 203.52 560.06 200.01 560.94 198.57 C 561.46 197.74 562.51 198.18 564.46 200.05 C 570.11 205.46 579.37 203.83 584.28 196.55 C 588.65 190.06 585.90 181.89 577.96 177.82 C 576.31 176.97 571.83 173.22 567.43 177.19 L 563.43 180.84 L 561.21 178.76 C 558.37 176.21 554.73 174.72 550.92 174.55 Z M 552.11 180.72 C 554.59 180.80 558.47 184.61 558.47 187.19 C 558.36 190.32 556.94 193.25 554.55 195.27 L 554.55 195.27 C 552.37 196.94 548.96 196.85 547.49 195.08 C 544.49 191.52 547.42 181.60 551.64 180.76 C 551.80 180.74 551.95 180.74 552.11 180.76 Z M 570.84 182.67 C 571.84 182.77 572.82 183.04 573.74 183.46 C 579.74 185.76 581.25 190.99 576.83 194.46 C 573.68 196.94 571.17 197.10 569.03 194.96 C 567.19 193.11 567.03 190.06 568.56 185.68 C 569.27 183.55 569.71 182.68 570.80 182.67 Z M 485.19 185.67 C 483.33 185.67 481.06 185.72 478.29 185.80 C 464.04 186.23 460.17 187.31 462.57 190.21 C 464.57 192.61 492.70 191.68 495.25 189.12 C 495.65 188.73 495.07 187.74 493.97 186.91 C 492.87 186.08 490.78 185.64 485.19 185.67 Z M 265.87 204.73 C 244.77 204.73 199.87 206.39 196.93 207.52 C 192.93 209.06 188.72 213.15 186.10 218.05 C 184.22 221.55 183.91 224.05 183.60 237.68 L 183.25 253.32 L 179.09 255.18 C 173.47 257.69 160.91 270.35 154.94 279.53 C 147.81 290.59 142.34 302.63 138.70 315.27 C 136.42 323.79 136.09 327.04 136.06 340.55 C 136.06 357.55 137.64 366.61 143.64 383.28 C 150.43 402.15 167.95 422.66 186.64 433.67 C 201.75 442.55 216.95 446.31 241.43 447.22 C 260.77 447.95 268.28 446.72 282.69 440.52 C 301.09 432.59 310.19 425.02 320.85 408.75 C 324.52 403.14 327.61 398.55 327.71 398.55 C 327.81 398.55 334.96 399.89 343.61 401.55 C 369.69 406.48 416.17 412.43 429.88 412.55 L 432.88 412.55 L 439.56 409.88 L 437.68 404.76 C 437.37 403.91 432.68 405.64 422.15 404.76 C 397.20 402.70 335.81 393.62 332.36 391.49 C 331.54 390.98 331.61 389.87 332.65 387.39 C 333.43 385.52 335.38 379.49 336.97 373.99 C 339.62 364.88 339.87 362.66 339.83 348.99 C 339.83 333.30 338.01 323.66 333.50 314.67 C 332.23 311.74 331.36 308.65 330.94 305.49 C 330.55 302.49 328.94 289.90 327.33 277.56 C 325.39 262.56 323.95 254.64 322.98 253.67 C 322.01 252.70 318.14 252.07 309.45 251.72 C 302.81 251.44 297.34 251.17 297.30 251.11 C 297.26 251.05 296.90 243.78 296.51 234.97 C 295.65 215.35 294.51 212.41 286.51 208.31 C 283.13 206.70 279.54 205.58 275.85 205.00 C 274.33 204.81 270.73 204.73 265.85 204.74 L 265.85 204.74 Z M 442.87 205.05 L 444.06 229.55 C 445.48 258.47 445.95 262.68 448.42 268.27 C 452.42 277.42 460.96 279.15 496.76 278.17 C 510.60 277.79 525.76 277.06 530.42 276.56 C 535.08 276.06 549.05 275.35 561.42 274.99 C 586.21 274.28 589.88 273.72 594.42 269.90 C 599.94 265.26 600.57 262.28 601.50 236.68 C 601.96 223.82 602.50 213.13 602.73 212.91 C 602.96 212.69 604.53 215.57 606.25 219.30 C 617.85 244.48 606.12 281.30 579.25 304.19 C 568.89 313.00 552.41 320.28 538.98 321.99 C 522.87 323.99 510.87 322.99 498.98 318.63 C 477.46 310.63 464.15 301.52 453.36 287.26 C 435.68 264.00 431.00 235.77 440.54 211.05 Z M 262.73 211.32 C 278.62 211.32 280.04 211.75 282.99 213.32 C 285.22 214.47 287.62 216.69 288.33 218.24 C 289.64 221.11 291.69 248.36 290.72 249.94 C 290.42 250.41 283.15 250.69 274.56 250.55 C 243.94 250.04 239.12 250.32 235.33 252.85 C 232.84 254.52 231.45 256.58 230.13 260.55 C 228.44 265.61 228.40 268.11 229.41 298.55 C 230.60 334.70 231.29 340.19 235.04 343.71 C 237.34 345.86 238.75 346.14 250.75 346.71 C 258.00 347.08 270.35 347.43 278.19 347.48 L 292.44 347.57 L 292.44 357.32 C 292.44 373.07 290.65 390.51 288.70 394.44 C 285.24 401.39 284.12 401.71 259.81 402.64 L 259.81 402.64 C 247.81 403.10 231.66 403.44 223.96 403.39 C 199.56 403.24 194.96 401.94 190.96 394.00 C 188.96 390.15 188.96 388.35 189.21 307.36 C 189.36 261.84 189.87 223.60 190.37 222.30 C 191.98 218.05 196.51 213.62 200.28 212.63 C 202.28 212.10 220.83 211.56 241.46 211.43 C 250.54 211.36 257.44 211.32 262.73 211.32 Z M 503.89 221.00 C 503.40 221.00 502.77 221.35 502.01 222.12 C 500.40 223.72 499.80 231.76 501.01 234.98 C 501.30 235.82 502.03 236.42 502.90 236.56 C 504.75 236.56 505.40 234.20 505.40 227.56 C 505.42 223.15 505.00 221.07 503.89 221.00 Z M 538.02 221.65 C 537.16 221.65 536.36 222.58 536.02 224.31 C 535.24 227.91 536.89 236.59 538.56 237.62 L 538.56 237.62 C 539.17 238.05 539.95 238.17 540.66 237.93 C 541.79 237.24 541.66 227.21 540.49 224.12 C 539.84 222.44 538.92 221.62 538.06 221.65 Z M 484.61 221.80 C 484.08 221.83 483.60 222.14 483.36 222.62 C 482.31 224.28 482.10 233.90 483.09 234.89 C 485.15 236.96 487.42 232.89 487.42 227.11 C 487.42 224.17 486.00 221.81 484.61 221.79 Z M 232.35 222.00 C 230.98 221.96 229.62 222.05 228.27 222.27 C 223.83 223.41 223.62 226.70 227.92 227.64 C 229.57 228.00 238.12 228.23 246.92 228.15 C 260.81 228.03 262.92 227.79 263.22 226.38 C 263.31 225.37 262.71 224.42 261.75 224.07 C 259.09 223.10 240.92 222.00 232.35 222.00 Z M 466.95 222.05 C 464.52 222.00 463.56 227.88 465.49 234.82 C 466.26 237.56 467.03 238.54 468.24 238.31 C 470.72 237.84 471.24 225.45 468.86 223.09 C 468.37 222.53 467.69 222.17 466.95 222.09 Z M 554.73 223.05 C 554.03 223.20 553.40 223.58 552.93 224.12 C 551.62 225.42 551.37 226.76 551.87 229.85 C 552.10 231.72 552.69 233.54 553.60 235.19 C 555.52 237.51 557.42 234.68 557.42 229.48 C 557.42 225.26 556.37 222.92 554.73 223.12 Z M 571.63 223.64 C 571.47 223.63 571.30 223.63 571.14 223.64 C 569.43 223.88 568.85 224.73 568.60 227.34 C 568.42 229.28 568.51 231.24 568.88 233.16 C 569.76 236.63 572.61 235.68 573.68 231.54 C 574.88 227.00 574.00 223.77 571.63 223.71 Z M 511.81 250.55 C 504.73 250.55 495.19 250.88 485.00 251.48 C 468.91 252.42 465.08 253.48 466.95 256.48 C 467.53 257.48 472.54 257.59 488.32 257.15 C 514.48 256.42 525.85 254.56 523.85 251.33 C 523.50 250.77 518.85 250.49 511.85 250.52 Z M 243.53 256.00 L 257.10 256.07 C 266.35 256.13 281.92 256.51 291.69 256.93 L 309.46 257.70 L 305.83 261.70 C 303.40 264.58 301.34 267.76 299.71 271.16 C 297.60 275.79 297.27 277.74 297.57 284.35 C 298.05 294.71 301.30 300.23 310.44 306.16 C 324.51 315.28 327.25 319.16 328.15 330.98 C 328.65 337.59 328.51 338.34 326.63 339.34 C 324.02 340.74 279.44 341.55 262.92 340.49 C 256.32 340.07 248.32 339.67 245.15 339.59 C 240.15 339.47 239.26 339.16 238.51 337.18 C 237.23 333.80 234.01 271.68 234.84 266.18 C 236.28 256.55 243.53 255.99 243.53 255.99 Z M 317.88 259.48 C 318.73 259.48 324.52 300.73 324.44 306.23 C 324.44 307.89 323.67 307.77 318.94 305.41 C 313.84 302.87 307.79 297.02 305.34 292.27 C 302.65 287.06 302.83 279.27 305.80 272.98 C 308.11 268.14 315.80 259.55 317.88 259.55 Z M 182.21 260.48 C 182.61 260.48 182.93 289.84 182.93 325.73 L 182.93 390.98 C 182.93 401.16 193.76 407.34 202.57 408.52 C 210.34 409.57 257.71 409.67 273.10 408.52 C 286.02 407.59 289.70 406.00 293.10 399.88 C 296.46 393.88 297.56 386.74 298.25 366.44 L 298.87 347.94 L 311.87 347.21 C 328.47 346.29 331.00 345.81 332.76 343.30 C 334.11 341.36 334.25 341.57 334.88 346.60 C 335.20 350.90 335.08 355.22 334.50 359.50 C 333.40 367.39 327.85 384.60 323.86 392.50 C 319.17 401.74 309.20 415.50 303.24 420.85 C 293.42 429.74 275.08 438.38 260.37 441.04 L 260.37 441.04 C 251.51 442.64 251.55 442.64 234.87 440.83 C 217.22 438.91 206.59 436.23 195.72 430.96 C 162.26 414.71 142.21 381.04 142.15 340.96 C 142.08 334.59 142.59 328.23 143.66 321.96 C 148.33 300.37 161.99 276.35 176.16 264.81 C 179.07 262.44 181.77 260.50 182.16 260.50 Z M 274.07 279.48 C 269.07 279.48 268.46 279.74 265.99 282.98 C 261.55 288.80 260.13 293.31 260.71 299.73 C 261.55 309.00 266.71 316.44 274.11 318.99 C 284.87 322.72 295.42 313.58 295.42 300.56 C 295.42 287.54 287.16 279.55 274.07 279.55 Z M 273.73 284.94 C 275.40 285.06 277.03 285.43 278.59 286.04 C 290.14 289.87 293.07 304.11 283.81 311.39 C 279.81 314.50 275.81 314.09 271.91 310.17 C 266.25 304.27 265.15 295.35 269.21 288.26 C 270.59 286.00 271.71 285.00 273.73 285.00 Z M 310.49 328.61 C 306.30 328.61 301.35 329.30 300.02 330.41 C 298.69 331.52 298.64 332.04 299.61 333.21 C 300.58 334.38 302.24 334.53 307.38 334.00 C 318.72 332.84 320.75 331.79 316.29 329.41 C 315.29 328.86 313.01 328.61 310.49 328.61 Z M 240.49 369.48 C 232.80 369.48 231.38 377.48 231.05 378.96 C 230.16 382.96 231.99 388.23 235.81 390.55 C 239.63 392.87 241.63 392.96 245.37 391.03 C 250.65 388.30 252.89 380.17 249.94 374.46 C 248.00 370.81 245.59 369.55 240.46 369.55 Z M 241.22 376.42 C 243.73 376.29 245.74 379.26 244.12 382.55 C 242.93 384.94 239.56 386.25 238.12 384.86 C 236.98 383.72 237.31 378.99 238.61 377.68 C 239.30 376.98 240.21 376.56 241.19 376.49 Z M 428.97 436.42 C 429.54 438.56 428.20 441.74 427.91 442.71 C 427.54 443.95 424.20 450.36 420.49 456.96 C 416.78 463.56 410.59 475.04 406.74 482.46 C 402.89 489.88 392.64 507.89 383.95 522.46 C 357.82 566.30 343.57 591.10 334.89 607.87 L 326.66 623.77 L 325.48 618.10 C 324.13 611.61 321.26 607.70 315.78 604.91 C 310.87 602.41 310.85 602.37 310.59 596.18 C 310.15 585.97 306.82 578.80 300.71 574.95 C 298.82 573.77 297.52 572.10 297.50 570.85 C 297.43 567.56 293.33 562.32 289.09 560.13 C 285.15 558.13 274.47 556.64 262.71 556.52 C 256.91 556.45 256.44 556.29 256.47 554.20 C 256.47 549.73 257.47 549.41 272.04 548.86 C 292.15 548.09 290.46 549.03 290.46 538.75 C 290.46 528.75 288.09 522.33 283.60 520.06 C 281.45 518.96 272.72 518.82 236.46 519.34 C 185.83 520.07 186.64 519.94 181.38 528.24 C 178.38 533.01 175.46 543.85 175.46 550.40 C 175.46 554.25 175.31 554.46 172.46 554.46 C 166.13 554.46 157.10 561.37 154.13 568.46 C 151.97 573.64 149.50 587.74 149.50 594.87 C 149.50 600.27 149.16 601.40 146.90 603.51 C 144.45 606.25 142.30 609.25 140.48 612.44 C 128.15 633.38 123.48 666.69 129.84 687.71 C 140.71 723.46 166.84 749.34 202.00 759.04 C 210.65 761.43 213.75 761.79 225.00 761.73 C 271.61 761.49 306.00 743.54 322.26 710.93 C 328.26 698.98 333.02 680.54 334.99 661.93 C 335.59 653.48 334.32 645.01 331.26 637.11 L 329.12 632.11 L 336.24 618.00 C 345.08 600.51 359.24 575.79 385.45 531.92 C 396.61 513.27 410.12 489.66 415.45 479.45 C 426.32 458.78 433.45 446.01 434.26 446.04 C 434.37 446.04 434.74 446.42 435.20 446.95 L 434.81 445.85 Z M 844.00 502.64 C 839.53 502.68 835.08 503.10 830.69 503.92 C 826.69 504.57 820.76 503.84 820.80 504.80 L 821.04 511.88 L 832.33 510.56 C 845.11 509.08 852.33 509.56 860.45 513.27 C 874.45 519.65 880.45 530.50 880.45 549.35 C 880.45 562.61 872.04 648.66 870.09 655.35 L 868.84 659.67 L 841.59 659.85 C 814.77 660.02 814.36 660.00 814.96 658.03 C 816.32 653.56 817.61 638.61 817.18 632.28 C 816.79 626.56 816.96 625.52 818.33 625.44 L 835.33 624.69 C 848.40 624.11 850.86 623.69 851.97 622.22 C 852.72 621.22 853.58 615.86 853.97 609.68 C 855.22 590.55 852.83 588.27 830.97 587.68 L 816.97 587.32 C 816.97 587.32 806.38 594.45 798.57 595.00 L 803.70 594.85 L 808.84 594.69 L 808.20 600.75 C 807.85 604.08 807.57 609.89 807.57 613.65 L 807.57 620.51 L 803.74 620.51 C 801.63 620.51 799.60 620.20 799.24 619.84 C 798.88 619.48 798.57 613.74 798.57 607.09 L 798.57 595.06 L 798.57 595.06 C 793.49 593.53 784.57 592.00 779.37 590.68 C 779.37 591.14 774.79 592.50 768.93 592.53 C 761.76 592.53 757.86 592.53 757.01 591.59 C 757.38 593.66 757.48 595.77 757.30 597.86 C 761.04 597.74 764.78 597.84 768.50 598.16 L 777.67 598.85 L 777.37 601.85 C 777.10 604.53 776.56 604.99 772.57 605.95 C 766.31 607.45 766.45 609.95 772.81 610.33 L 777.57 610.64 L 777.57 620.53 L 765.00 620.53 C 758.08 620.53 752.30 620.09 752.00 619.53 C 751.89 619.36 748.92 619.01 749.00 618.53 L 747.00 625.41 L 747.00 625.41 L 753.87 625.89 C 757.65 626.15 761.00 626.63 761.31 626.95 C 761.62 627.27 761.92 632.12 761.95 637.75 L 761.95 637.75 L 761.95 647.97 L 745.56 648.24 L 729.16 648.52 L 729.16 648.52 L 721.56 654.76 L 721.56 655.00 C 721.84 654.73 722.18 654.55 722.56 654.46 C 723.18 654.46 730.17 654.46 736.48 654.52 C 747.32 654.62 748.16 654.78 751.48 657.33 L 755.00 660.02 L 745.50 660.66 L 745.50 660.66 C 740.28 661.01 731.82 661.35 726.70 661.41 L 715.53 661.52 L 706.46 670.78 C 706.22 671.03 706.81 673.51 706.33 675.78 C 705.85 678.05 705.16 688.92 704.83 699.78 C 704.41 713.38 703.83 719.49 703.12 719.39 C 702.41 719.29 700.96 719.05 699.68 718.81 L 697.35 718.37 L 698.04 698.70 L 698.73 679.03 L 699.16 669.84 C 699.16 669.08 698.35 666.44 698.03 663.90 C 697.20 657.31 694.72 654.24 688.88 652.62 C 679.88 650.11 671.88 652.15 668.88 657.70 C 667.39 660.49 667.03 664.27 666.71 680.94 L 666.31 700.85 L 667.31 708.32 L 667.74 713.18 C 667.98 714.92 668.03 716.68 667.87 718.43 C 667.20 719.30 657.53 719.72 657.53 718.87 C 657.54 718.76 657.59 718.65 657.65 718.55 L 657.59 718.55 L 651.74 725.79 L 661.39 725.15 C 681.05 723.85 705.53 724.68 705.53 726.65 C 705.53 727.13 703.72 728.24 701.53 729.13 C 695.91 731.38 694.58 733.59 695.71 738.81 C 697.68 747.08 700.34 755.17 703.66 763.00 C 706.31 769.15 706.52 770.33 705.54 773.62 C 704.85 776.26 704.47 778.97 704.43 781.70 L 704.43 786.09 L 695.18 786.09 C 678.48 786.17 675.93 787.58 674.76 797.42 C 674.43 800.23 673.48 803.10 672.65 803.79 C 670.98 805.18 642.29 805.79 632.54 804.68 L 627.14 804.05 L 627.14 804.05 L 627.77 809.68 L 627.77 809.68 L 630.85 810.36 C 632.54 810.74 642.85 811.05 653.85 811.05 L 673.74 811.05 L 673.07 823.00 C 672.72 829.55 672.43 838.10 672.43 842.00 L 672.43 849.09 L 664.04 849.24 C 654.74 849.40 651.17 850.66 648.04 854.91 C 646.04 857.58 645.92 859.32 645.45 885.91 L 644.94 916.62 L 651.17 917.11 L 651.86 907.88 C 652.04 905.57 652.33 903.28 652.75 901.00 C 652.86 900.91 657.53 900.63 663.14 900.37 L 673.32 899.90 L 673.99 906.17 C 674.36 909.62 674.36 914.11 673.99 914.71 L 673.99 914.71 C 673.90 914.82 673.79 914.90 673.66 914.94 L 680.66 915.84 L 680.66 915.84 L 680.26 908.84 C 680.07 905.66 680.11 902.84 680.41 902.56 C 680.71 902.28 686.06 902.20 692.27 902.37 L 703.57 902.69 L 703.27 908.38 L 702.97 915.25 L 710.45 915.75 L 710.45 915.75 L 710.45 912.50 C 710.45 910.72 710.16 904.35 709.81 899.81 L 709.16 891.56 L 724.46 891.56 L 724.46 896.31 C 724.46 901.63 727.05 908.08 730.29 910.97 C 731.47 911.97 731.96 914.51 732.43 914.51 L 754.50 914.58 C 755.16 914.58 756.69 911.32 758.97 909.32 C 766.28 902.89 768.67 896.04 766.42 888.01 C 764.11 879.76 755.92 874.56 745.19 874.56 L 740.44 874.56 L 740.44 807.64 L 797.05 807.58 C 845.05 807.52 858.21 807.13 874.80 805.26 C 876.44 805.08 877.07 807.06 880.01 821.55 C 885.17 847.01 886.72 860.80 886.80 882.05 C 886.88 900.05 886.80 903.05 884.42 908.78 C 883.06 912.07 880.26 915.54 880.95 915.51 L 891.25 915.08 C 893.33 915.00 889.16 914.36 889.25 913.77 C 889.46 912.61 889.92 911.52 890.59 910.55 C 891.14 909.88 892.06 902.32 892.59 895.86 C 894.38 875.49 890.67 840.50 883.93 814.12 C 883.00 810.83 882.23 807.49 881.63 804.12 C 881.76 804.12 884.46 802.75 887.63 801.12 C 895.97 796.96 903.26 788.60 909.36 776.22 C 915.65 763.46 918.14 753.74 919.53 736.50 C 922.46 700.07 916.66 677.19 901.82 666.63 C 899.57 665.03 898.70 663.81 899.29 663.09 C 900.24 661.94 902.07 653.66 910.29 613.49 C 916.67 582.32 917.35 577.85 917.35 567.49 C 917.35 552.75 913.47 541.21 904.86 530.24 C 897.53 520.91 885.03 512.87 873.26 509.93 C 869.75 509.05 862.99 507.02 858.26 505.41 C 853.69 503.71 848.87 502.78 844.00 502.64 Z M 879.40 518.55 C 881.89 518.55 895.64 529.15 899.18 533.78 C 910.94 549.18 912.91 564.17 907.00 593.05 C 905.65 599.65 902.00 617.40 899.00 632.50 C 896.00 647.60 893.29 660.06 893.15 660.20 C 892.52 660.83 884.53 661.20 880.15 660.86 C 876.22 660.51 875.44 660.13 875.84 658.74 C 876.31 657.13 877.15 649.32 882.98 592.55 C 887.64 547.16 887.37 535.31 881.40 523.95 C 879.81 521.00 878.92 518.55 879.39 518.55 Z M 277.40 524.97 C 281.11 524.91 283.07 527.40 284.40 533.49 C 286.15 541.66 286.62 541.22 275.25 541.96 C 269.61 542.33 263.72 542.88 262.15 543.19 C 259.54 543.71 259.36 543.56 260.01 541.40 C 261.17 537.53 266.54 529.66 269.36 527.67 C 271.31 526.45 273.46 525.60 275.71 525.15 C 276.25 525.06 276.79 525.01 277.34 525.00 Z M 227.23 526.05 C 246.07 526.05 261.48 526.33 261.48 526.68 C 261.22 527.39 260.75 528.00 260.13 528.43 C 257.71 530.43 252.65 542.87 251.05 550.76 C 250.12 555.45 249.57 560.22 249.42 565.00 L 249.42 571.54 L 231.42 571.54 L 231.42 567.30 C 231.42 555.60 219.24 549.08 207.77 554.63 C 202.54 557.01 198.65 561.61 197.18 567.17 L 196.00 571.55 L 180.33 571.55 L 180.93 561.30 C 182.10 541.18 184.78 531.57 190.26 527.87 C 192.70 526.21 195.78 526.05 227.17 526.05 Z M 511.11 531.17 L 511.11 531.22 C 509.90 533.16 508.52 534.98 506.97 536.66 C 502.97 541.09 497.49 551.53 494.49 560.41 C 493.36 563.79 489.98 577.68 487.00 591.30 C 484.02 604.92 479.52 625.05 477.00 636.06 C 474.48 647.07 472.44 656.84 472.44 657.81 C 472.44 659.21 471.50 659.58 467.69 659.66 C 452.69 660.00 447.00 660.18 427.94 660.92 C 416.39 661.36 405.44 662.19 403.60 662.75 C 398.69 664.25 394.00 668.84 391.31 674.75 C 388.96 679.96 388.93 680.27 388.96 715.01 C 388.96 747.32 389.15 750.77 391.17 759.92 C 394.07 773.00 397.44 779.64 405.11 787.34 L 413.01 794.84 L 417.47 790.48 L 417.41 790.48 C 414.94 790.48 405.67 779.41 402.60 773.66 C 396.60 762.36 395.11 751.98 394.66 717.48 C 394.23 684.18 395.02 677.37 399.92 672.08 C 403.27 668.46 407.68 667.75 430.78 667.08 L 451.64 666.45 L 454.89 669.91 C 456.93 672.22 458.44 674.95 459.29 677.91 C 460.75 683.69 460.75 696.65 459.29 709.76 C 458.75 714.58 459.53 728.40 460.59 725.55 L 466.52 709.62 L 466.52 692.36 C 466.52 680.36 464.80 670.51 462.41 669.04 C 461.89 668.76 461.53 668.26 461.41 667.69 C 461.41 666.86 499.93 665.63 501.41 664.96 L 501.70 664.83 L 507.25 658.56 L 494.94 658.56 L 494.94 658.56 C 490.67 658.52 486.41 658.73 482.17 659.19 L 478.42 659.81 L 479.06 656.43 C 479.42 654.57 481.25 646.30 483.11 638.05 C 484.97 629.80 489.17 610.67 492.44 595.55 C 500.26 559.30 503.93 549.09 512.60 539.29 L 516.60 534.41 Z M 217.53 558.66 C 219.38 558.66 220.39 559.36 222.38 561.35 C 224.64 563.61 225.43 565.35 225.43 567.97 L 225.43 571.55 L 213.43 571.55 C 206.82 571.55 201.43 571.30 201.43 571.00 C 201.81 569.80 202.31 568.64 202.93 567.55 C 205.07 563.41 210.70 559.45 215.34 558.84 C 216.06 558.73 216.80 558.66 217.53 558.65 Z M 173.61 560.77 C 173.78 560.75 173.96 560.79 174.10 560.89 C 174.39 561.18 174.32 563.66 173.95 566.41 L 173.26 571.41 L 168.09 572.12 C 165.60 572.43 163.14 572.94 160.74 573.65 C 158.74 574.42 158.63 574.29 159.54 571.65 C 160.92 567.70 165.92 562.89 170.06 561.52 C 171.20 561.09 172.40 560.84 173.61 560.77 Z M 255.43 562.51 L 265.18 563.11 C 279.83 564.02 285.54 565.22 288.28 567.96 C 289.59 569.27 290.50 570.73 290.28 571.19 C 290.06 571.65 281.89 571.93 272.07 571.78 C 256.38 571.54 254.29 571.32 254.82 569.95 C 255.23 568.49 255.44 566.97 255.42 565.45 L 255.42 562.51 Z M 193.05 578.00 C 203.18 578.00 216.35 578.09 232.92 578.26 L 295.92 578.92 L 299.06 582.05 C 302.90 585.87 304.20 590.29 305.06 602.34 L 305.72 611.59 L 292.28 611.59 C 271.50 611.59 263.08 614.59 258.19 623.90 C 256.35 627.40 255.98 629.75 255.95 638.09 C 255.95 647.44 256.13 648.45 259.01 653.59 C 264.95 664.19 273.53 667.59 294.34 667.59 L 305.93 667.59 L 305.40 677.59 C 304.93 686.53 304.61 687.86 302.40 690.08 C 300.84 691.64 297.94 692.92 294.54 693.57 C 292.24 694.06 289.89 694.35 287.54 694.42 C 286.65 694.33 261.63 693.94 231.93 693.56 C 202.23 693.18 175.45 692.56 172.43 692.12 C 163.22 690.85 159.62 688.07 157.35 680.47 C 155.18 673.18 153.56 596.76 155.44 590.06 C 157.06 584.28 160.94 580.06 165.98 578.71 C 167.71 578.19 176.16 578.00 193.05 578.00 Z M 824.05 593.68 C 825.84 593.68 827.78 593.68 829.78 593.75 C 848.15 594.18 848.02 594.08 847.67 606.33 C 847.30 619.33 847.94 618.59 836.50 618.59 L 836.50 618.59 C 831.11 618.59 824.06 618.86 820.81 619.19 C 814.29 619.86 813.40 619.45 813.43 615.67 C 813.43 608.76 813.35 608.82 827.43 608.44 C 840.51 608.08 843.94 607.13 840.95 604.64 C 839.95 603.79 835.36 603.33 827.01 603.24 L 814.59 603.09 L 814.05 599.09 C 813.75 596.89 813.88 594.71 814.34 594.24 C 814.80 593.77 818.67 593.68 824.02 593.68 Z M 792.42 598.48 L 792.42 620.60 L 782.77 620.60 L 783.08 609.85 L 783.39 599.10 L 787.91 598.79 Z M 312.00 609.38 C 312.93 609.29 314.19 610.20 315.68 612.47 C 318.21 616.31 319.25 622.05 319.28 629.10 C 319.33 642.58 318.28 658.16 316.60 659.80 C 315.42 660.99 291.29 661.54 282.71 660.57 C 268.57 659.00 262.00 652.00 262.00 638.56 C 262.00 626.83 265.09 622.00 273.90 619.72 C 276.09 619.16 283.96 618.39 291.39 618.03 C 306.61 617.28 309.74 616.33 310.20 612.30 C 310.40 610.56 311.01 609.46 311.94 609.38 Z M 147.92 610.05 L 148.65 639.05 C 149.47 671.64 150.46 681.05 153.75 687.51 C 156.41 692.73 161.87 696.00 170.45 697.51 C 178.65 698.95 229.81 700.57 264.28 700.51 C 297.55 700.42 301.98 699.83 306.62 694.86 C 310.85 690.32 311.45 688.21 311.45 677.78 L 311.45 667.84 L 315.38 667.21 C 321.98 666.15 324.00 662.30 325.38 648.21 L 326.07 641.13 L 327.26 645.13 C 329.78 653.62 328.11 672.51 323.32 689.63 C 320.48 699.76 312.58 715.87 307.03 722.85 C 294.00 739.10 272.09 750.00 244.30 754.00 C 209.18 759.06 184.14 751.39 161.36 728.61 C 144.86 712.11 134.36 690.61 132.79 669.98 C 131.62 654.85 136.01 634.20 143.73 618.53 Z M 766.85 626.47 L 772.85 626.76 L 778.85 627.05 L 778.77 635.55 C 778.72 640.23 778.14 645.06 777.48 646.30 L 777.48 646.30 C 776.54 648.06 775.40 648.55 772.28 648.55 C 769.97 648.55 768.12 648.03 767.88 647.30 C 767.43 643.65 767.17 639.98 767.11 636.30 Z M 784.18 626.55 L 796.66 626.55 C 811.66 626.55 811.37 626.29 810.66 640.30 L 810.19 649.55 L 803.07 649.38 C 788.93 649.04 782.91 648.18 783.28 646.55 C 784.62 640.62 785.20 634.22 784.73 630.70 Z M 285.73 629.55 C 283.87 629.67 282.05 630.19 280.41 631.08 C 274.82 633.97 275.34 641.22 281.41 645.33 C 285.18 647.88 288.49 647.69 291.78 644.73 C 294.84 641.99 295.57 638.85 294.00 635.09 C 292.43 631.33 289.38 629.38 285.71 629.54 Z M 284.34 634.55 C 285.86 634.55 288.57 637.66 288.16 638.92 C 287.57 640.69 284.89 640.80 283.49 639.11 C 282.09 637.42 282.69 634.55 284.32 634.55 Z M 788.13 654.41 C 791.44 654.41 793.61 654.58 793.87 654.77 C 795.07 655.71 792.14 666.25 788.87 672.64 L 788.87 672.64 C 787.50 675.34 786.05 677.52 785.65 677.48 C 785.25 677.44 782.44 674.81 779.42 671.65 C 775.29 667.56 770.84 663.82 766.10 660.46 L 758.28 655.05 L 775.59 654.55 C 780.36 654.41 784.79 654.37 788.10 654.41 Z M 806.21 654.65 C 808.98 654.70 809.40 656.38 806.62 658.90 C 805.49 659.86 804.09 660.44 802.62 660.55 C 799.51 660.55 799.57 656.02 802.69 655.18 C 803.83 654.85 805.01 654.67 806.19 654.65 Z M 681.10 658.00 C 684.53 658.00 688.58 658.90 689.84 660.16 C 691.10 661.42 693.00 671.38 692.22 672.00 C 692.06 672.14 687.60 672.54 682.31 672.90 L 672.69 673.55 L 672.13 668.78 C 671.49 663.27 673.13 659.98 677.13 658.43 C 678.43 658.04 679.78 657.86 681.13 657.92 Z M 197.53 661.80 C 188.93 661.87 178.17 662.40 175.68 663.13 C 173.19 663.86 172.60 667.01 174.68 667.97 C 176.40 668.77 205.23 667.72 208.93 666.72 C 212.93 665.63 212.72 663.39 208.43 662.25 C 207.07 661.89 202.69 661.76 197.53 661.80 Z M 841.10 665.71 C 865.24 665.80 891.42 667.52 895.52 669.61 C 902.52 673.18 908.65 682.39 912.08 694.61 C 914.71 703.94 914.68 739.49 912.08 751.04 C 907.08 772.85 896.96 789.58 884.98 795.76 C 877.70 799.52 865.46 800.57 822.98 801.07 C 800.98 801.34 775.44 801.69 766.23 801.86 C 757.02 802.03 749.48 801.98 749.48 801.76 C 750.68 799.99 752.02 798.32 753.48 796.76 C 758.26 791.33 763.83 780.32 765.88 772.25 C 767.11 766.34 768.03 760.37 768.62 754.37 L 769.89 742.27 L 774.31 740.38 C 777.10 738.31 778.83 735.44 778.12 730.76 C 776.69 721.45 775.21 712.86 771.91 706.29 C 769.76 702.02 769.44 700.02 769.44 691.16 C 769.44 685.24 768.80 678.50 767.91 675.10 C 767.08 671.88 766.59 669.10 766.83 668.81 C 767.55 668.09 782.31 682.56 782.97 684.62 C 784.57 689.67 790.82 683.95 795.60 673.06 C 798.45 666.58 797.43 666.82 825.01 665.91 C 830.08 665.74 835.54 665.68 841.12 665.70 L 841.12 665.70 Z M 759.10 666.49 L 761.26 673.77 C 762.62 678.46 763.35 683.31 763.42 688.19 L 763.42 695.34 L 756.16 695.70 C 746.45 696.19 739.89 699.60 728.67 709.97 C 723.86 714.43 718.30 719.31 716.32 720.81 L 716.32 720.81 C 715.04 721.88 713.65 722.80 712.16 723.55 C 709.83 723.55 710.22 685.91 712.68 674.06 L 713.92 668.06 L 730.92 667.87 C 740.27 667.76 750.44 667.40 753.51 667.08 Z M 621.92 671.38 L 614.92 672.38 C 603.38 674.10 591.43 674.84 591.86 673.84 L 591.86 673.84 L 580.05 680.25 C 580.94 680.81 581.19 684.78 580.78 690.25 C 580.43 695.06 580.06 699.11 579.95 699.25 C 578.87 699.66 577.74 699.95 576.60 700.13 L 573.42 700.76 L 574.04 692.89 C 574.36 688.89 576.32 681.73 575.16 682.78 L 567.67 689.56 L 567.78 689.51 C 568.03 689.51 568.38 691.99 568.57 695.01 L 568.92 700.51 L 564.31 700.51 C 561.13 700.55 557.96 700.76 554.81 701.14 C 551.63 701.55 550.32 701.44 550.90 700.81 L 550.80 700.81 L 539.04 709.03 C 541.40 708.20 543.89 707.76 546.39 707.72 L 553.39 707.21 L 552.97 713.10 L 552.56 718.98 L 538.98 719.26 C 530.56 719.43 525.78 719.19 525.43 718.59 L 521.26 725.72 C 523.01 724.37 538.81 723.93 538.26 725.25 C 538.07 725.68 536.35 728.14 534.42 730.72 L 530.92 735.40 L 523.17 735.40 C 518.91 735.40 515.42 735.15 515.42 734.81 C 515.42 734.81 515.42 734.81 515.42 734.75 L 515.26 734.98 L 511.44 741.00 L 511.44 741.00 L 518.93 741.00 C 523.06 741.00 526.42 741.20 526.40 741.50 C 526.03 742.39 525.54 743.23 524.92 743.97 C 523.84 745.39 523.75 746.24 524.57 747.22 C 526.14 749.12 527.44 748.92 535.82 745.60 L 543.26 742.60 L 563.59 743.20 L 583.93 743.81 L 590.80 734.10 C 588.45 737.17 587.69 737.51 583.26 737.51 L 578.32 737.51 L 578.62 732.26 C 578.79 729.38 579.27 727.13 579.68 727.26 C 582.09 727.48 584.51 727.57 586.93 727.51 C 588.62 727.44 590.32 727.57 591.98 727.91 L 593.18 721.53 L 582.06 721.53 C 575.94 721.53 570.34 721.14 569.62 720.68 C 568.90 720.22 568.22 717.38 568.07 713.28 L 567.83 706.71 L 577.83 706.13 C 583.36 705.81 592.03 705.44 597.10 705.30 L 606.31 705.05 L 613.58 697.40 L 613.58 697.09 C 612.73 698.30 611.64 698.55 608.82 698.55 C 606.31 698.57 603.80 698.78 601.32 699.20 C 598.06 699.85 598.05 699.84 598.70 696.58 C 599.16 693.39 599.37 690.17 599.35 686.94 C 599.35 681.15 599.55 680.54 601.60 680.14 C 603.94 679.68 617.44 678.14 619.17 678.08 L 619.27 677.90 Z M 184.00 676.80 C 183.11 676.75 182.21 676.85 181.35 677.08 C 178.42 678.01 179.44 680.92 182.96 681.70 C 185.70 682.30 190.42 681.92 191.31 681.02 C 191.52 680.81 191.45 680.02 191.15 679.22 C 190.65 678.00 187.00 676.88 184.00 676.80 Z M 692.69 678.80 L 692.22 686.20 C 691.95 690.27 691.56 693.75 691.34 693.95 C 688.32 694.48 685.26 694.81 682.20 694.95 L 673.45 695.64 L 673.25 690.64 C 673.14 687.86 673.03 684.20 673.00 682.52 L 672.94 679.45 L 682.82 679.13 Z M 590.87 680.56 L 594.35 680.56 L 594.14 690.06 L 593.94 699.56 L 585.40 699.56 L 586.00 691.31 C 586.77 680.55 586.78 680.55 590.85 680.55 Z M 688.23 700.74 C 689.20 700.65 690.18 700.70 691.13 700.91 C 691.42 701.20 691.27 705.18 690.81 709.76 L 689.95 718.07 L 681.70 718.36 L 673.45 718.65 L 673.45 701.79 L 682.02 701.08 C 684.37 700.88 686.58 700.76 688.23 700.73 Z M 756.91 702.09 C 762.91 702.09 762.91 702.09 765.18 706.20 C 767.97 711.20 771.10 723.12 771.59 730.54 L 771.94 736.02 L 767.36 736.68 C 758.81 737.93 751.62 742.28 740.88 752.68 C 734.71 758.68 729.04 763.26 726.22 764.50 C 723.31 765.73 720.26 766.62 717.14 767.15 C 713.14 767.69 712.48 767.50 711.14 765.39 C 709.80 763.28 700.45 736.71 700.45 735.08 C 700.45 734.77 701.45 734.51 702.70 734.51 C 708.36 734.51 718.92 727.51 733.57 714.01 C 743.39 705.00 749.00 702.11 756.89 702.08 Z M 560.91 706.67 C 562.31 706.61 562.49 707.33 562.49 710.74 C 562.48 712.94 562.68 715.15 563.10 717.31 C 563.64 719.31 563.34 719.56 560.54 719.56 L 557.38 719.56 L 557.68 713.31 C 557.94 707.70 558.20 707.03 560.23 706.74 C 560.48 706.74 560.70 706.68 560.91 706.67 Z M 736.50 724.20 C 728.50 724.27 724.22 734.50 730.35 740.63 C 731.96 742.24 734.23 743.55 735.35 743.55 C 740.70 743.55 745.35 738.67 745.35 733.08 C 745.35 730.08 740.96 724.79 738.06 724.33 C 737.52 724.24 736.97 724.20 736.42 724.20 Z M 545.50 725.55 L 554.50 725.55 C 561.26 725.55 563.42 725.87 563.11 726.80 C 562.88 727.49 557.33 730.32 550.77 733.11 C 534.87 739.85 535.11 739.77 535.98 738.29 C 536.38 737.61 538.68 734.47 541.09 731.29 Z M 761.50 727.55 C 758.16 727.55 754.79 729.82 755.77 731.40 C 756.75 732.98 761.97 732.81 763.77 730.97 C 765.92 728.92 765.00 727.55 761.56 727.55 Z M 572.82 728.81 C 572.90 728.81 572.96 728.81 572.99 728.81 C 573.23 729.05 573.14 731.11 572.77 733.38 L 572.77 733.38 L 572.11 737.52 L 563.99 737.45 L 555.87 737.39 L 559.98 735.55 C 562.85 734.22 565.63 732.72 568.32 731.05 C 569.71 730.08 571.22 729.32 572.82 728.78 Z M 735.24 730.55 C 738.16 730.55 739.72 733.01 738.40 735.49 C 737.08 737.97 736.26 738.05 734.56 736.35 C 732.68 734.41 733.13 730.55 735.30 730.55 Z M 712.01 736.86 C 711.40 736.84 710.80 736.92 710.22 737.10 C 709.34 737.49 708.68 738.27 708.45 739.20 C 708.22 740.14 708.43 741.13 709.03 741.89 C 710.86 743.71 715.37 741.63 715.37 738.96 C 715.43 737.78 713.84 736.90 712.07 736.86 Z M 762.34 744.55 C 764.14 744.55 762.88 761.24 760.34 771.23 C 758.00 780.36 754.73 786.53 747.71 795.05 C 744.71 798.62 741.93 801.55 741.43 801.55 C 740.93 801.55 740.38 794.62 740.21 786.15 C 739.92 772.59 739.65 770.51 737.94 768.62 L 736.01 766.48 L 743.94 758.48 C 751.71 750.65 759.77 744.56 762.36 744.56 Z M 730.67 770.88 C 733.98 771.00 734.37 773.29 734.37 779.68 C 734.37 784.62 734.01 786.49 733.12 786.34 C 732.43 786.22 727.01 785.98 721.12 785.81 L 710.32 785.48 L 710.62 779.77 C 710.91 774.22 711.01 774.04 713.92 773.77 C 715.56 773.62 720.17 772.77 724.14 771.87 C 726.29 771.29 728.50 770.96 730.73 770.88 Z M 710.42 791.30 L 714.17 791.92 C 718.15 792.37 722.16 792.58 726.17 792.55 L 734.43 792.55 L 734.43 801.91 L 734.43 801.91 L 734.43 811.27 L 722.43 812.16 L 710.43 813.05 L 710.43 791.30 Z M 696.33 791.73 C 699.07 791.73 701.33 791.98 702.24 792.46 C 704.08 793.46 704.43 794.46 704.43 799.09 L 704.43 804.56 L 697.18 804.37 C 693.18 804.27 687.79 804.03 685.18 803.82 L 680.43 803.44 L 680.43 799.25 C 680.43 796.94 680.79 794.49 681.24 793.81 C 682.01 792.58 690.24 791.68 696.32 791.74 L 696.32 791.74 Z M 570.58 801.24 L 559.26 801.94 C 553.03 802.32 538.26 803.04 526.43 803.54 L 526.43 803.54 C 501.51 804.61 470.15 804.81 469.29 803.95 C 469.24 803.95 469.39 803.64 469.29 803.68 L 469.17 803.73 L 464.31 809.00 L 472.09 810.00 C 479.32 810.92 549.67 809.41 565.67 808.00 L 571.41 807.48 Z M 679.43 809.86 L 689.68 810.26 C 704.38 810.83 704.42 810.85 704.42 815.45 C 704.40 817.77 704.20 820.09 703.81 822.38 C 703.26 825.12 702.72 825.52 699.06 825.96 C 696.79 826.24 691.44 826.73 687.17 827.05 L 679.43 827.64 L 679.43 809.86 Z M 251.00 815.72 C 247.07 815.80 243.26 822.72 237.91 831.36 C 229.43 845.34 224.74 861.28 224.30 877.62 L 224.20 886.15 L 218.03 879.54 C 212.91 874.04 211.32 872.93 208.66 872.93 C 201.66 872.93 200.66 883.52 206.28 899.54 C 207.85 904.01 209.82 908.32 212.17 912.43 L 215.31 917.43 L 222.49 917.93 L 218.49 911.15 C 211.77 899.83 205.94 879.22 209.72 880.08 C 210.54 880.27 214.67 884.62 218.90 889.74 C 227.18 899.74 228.81 900.98 231.01 898.74 C 232.12 897.62 232.20 896.59 231.36 893.85 C 230.77 891.94 230.30 885.65 230.30 879.85 C 230.38 866.50 233.46 853.35 239.30 841.35 C 243.99 831.84 250.24 824.01 251.52 826.02 C 252.80 828.03 252.52 841.89 250.86 866.02 C 249.73 882.02 249.59 890.40 250.29 898.02 C 250.81 903.03 250.94 908.07 250.69 913.10 L 250.13 917.85 L 256.38 917.31 C 258.29 917.15 255.74 913.86 258.47 906.96 C 262.97 895.55 272.73 883.48 270.97 891.48 C 270.41 896.33 270.13 901.21 270.12 906.10 L 270.12 906.10 L 269.89 917.84 L 276.89 917.35 L 276.89 917.35 L 276.83 901.35 C 276.77 881.94 276.93 883.05 273.96 881.70 C 270.57 880.16 265.50 883.44 260.51 890.42 L 256.65 895.81 L 256.16 892.08 C 255.90 890.08 256.05 882.28 256.49 874.85 C 256.93 867.42 257.58 853.47 257.93 843.85 C 258.49 828.09 258.37 826.00 256.72 822.85 C 255.31 820.16 254.17 815.90 251.78 815.67 C 251.52 815.65 251.25 815.65 250.99 815.67 Z M 710.39 818.55 L 734.39 818.55 L 734.39 826.55 C 734.39 832.30 734.01 834.73 733.06 835.09 C 730.87 835.93 710.26 837.09 709.84 836.44 C 709.61 836.09 709.61 833.15 709.84 829.91 C 710.07 826.67 710.27 822.78 710.31 821.27 Z M 703.39 832.28 L 703.39 850.55 L 691.59 850.55 C 685.08 850.55 679.46 850.25 679.09 849.89 C 678.16 848.96 678.25 834.78 679.19 834.20 C 679.61 833.94 685.19 833.40 691.69 833.01 Z M 725.78 842.55 L 734.68 842.55 L 734.00 852.25 C 733.62 857.59 733.22 862.03 733.10 862.12 L 733.10 862.12 C 732.30 862.73 710.66 863.49 710.10 862.92 C 709.71 862.53 709.39 858.07 709.39 853.01 L 709.39 843.81 L 713.14 843.19 C 717.34 842.73 721.56 842.52 725.79 842.56 Z M 672.39 855.55 L 672.39 869.55 L 669.13 869.61 L 669.13 869.61 C 667.35 869.61 662.62 870.00 658.63 870.40 L 651.39 871.13 L 651.39 866.27 C 651.39 861.47 652.66 857.73 654.78 856.32 C 655.39 855.92 659.59 855.57 664.14 855.57 Z M 679.39 856.49 L 691.14 856.77 L 702.89 857.05 L 703.17 865.65 L 703.46 874.26 L 697.27 874.90 L 697.27 874.90 C 693.87 875.26 688.46 875.55 685.27 875.55 L 679.41 875.55 L 679.41 856.49 Z M 733.39 868.75 L 733.39 873.90 C 733.39 878.65 733.09 879.29 729.64 882.05 L 729.64 882.05 C 726.28 884.74 725.04 885.05 717.64 885.41 L 709.39 885.76 L 709.39 869.05 L 721.39 868.90 Z M 651.39 876.55 L 673.39 876.55 L 673.39 884.49 C 673.39 888.86 672.95 892.71 672.39 893.03 C 671.83 893.35 666.91 893.91 661.39 894.24 L 651.39 894.86 L 651.39 876.55 Z M 679.39 881.05 L 691.39 881.36 L 703.39 881.68 L 703.39 896.55 L 693.47 896.55 C 688.01 896.55 682.93 896.79 682.17 897.08 C 679.85 897.97 679.39 896.54 679.39 888.64 Z M 746.39 881.69 C 754.24 881.56 761.33 887.57 759.90 895.16 C 759.25 899.00 754.50 905.00 750.50 907.00 C 739.70 912.58 730.50 906.43 731.67 894.38 C 732.20 888.84 734.13 886.24 739.86 883.32 C 741.90 882.27 744.16 881.72 746.46 881.69 Z M 745.10 888.56 C 743.16 888.41 740.82 892.29 741.75 895.98 C 742.10 897.39 743.03 898.55 743.75 898.55 C 745.45 898.55 747.61 892.55 746.75 890.21 C 746.42 889.11 745.82 888.61 745.17 888.56 Z M 405.80 889.00 L 398.00 893.31 L 398.00 893.31 C 398.22 893.53 397.92 897.81 397.33 900.99 C 396.74 904.69 396.60 908.44 396.93 912.17 L 397.59 916.06 L 404.35 916.06 L 403.35 913.50 C 402.07 910.15 402.12 905.73 403.55 897.68 C 404.17 894.17 404.68 890.77 405.82 889.00 Z M 880.87 915.50 L 880.87 915.50 Z" fill="#efca87" fill-rule="nonzero" id="path2895" node-id="30" stroke="none" target-height="790.05" target-width="793.178" target-x="127.03221" target-y="127.88"></path><path d="M 690.94 272.60 C 687.58 272.74 684.29 273.67 681.34 275.29 C 675.28 278.36 671.91 282.62 670.92 288.47 C 670.34 291.91 669.92 292.42 666.82 292.99 C 662.02 293.89 657.07 298.57 654.43 304.70 C 649.96 315.11 653.18 329.85 661.90 338.83 L 665.41 342.44 L 665.41 357.24 C 665.41 376.59 667.47 391.09 671.13 397.80 C 673.99 403.07 680.32 408.54 683.54 408.54 C 685.54 408.54 685.84 409.34 684.62 411.10 C 684.22 411.69 673.54 414.73 660.89 417.86 C 626.20 426.43 615.89 429.21 612.76 430.86 C 609.20 432.72 599.18 443.17 580.00 465.00 C 571.80 474.35 564.10 483.00 562.90 484.31 L 560.71 486.64 L 549.31 477.47 C 543.04 472.47 536.31 467.62 534.43 466.79 C 529.96 464.84 522.50 465.53 518.79 468.23 L 516.00 470.32 L 508.00 467.32 C 503.58 465.69 498.00 463.49 495.60 462.43 L 491.23 460.49 L 494.85 456.49 C 498.06 452.93 498.47 451.88 498.47 447.11 C 498.47 436.40 492.77 410.33 487.42 396.53 C 485.94 392.75 481.42 382.79 479.12 380.64 C 475.77 377.52 472.53 377.22 461.87 379.04 C 449.35 381.17 441.75 383.99 438.12 387.88 C 435.49 390.69 435.31 391.40 435.73 396.96 C 435.98 400.28 438.40 409.15 438.40 409.15 L 432.98 412.55 L 429.83 415.27 C 423.89 420.42 423.03 425.55 426.55 434.96 C 429.35 442.43 435.91 450.27 436.82 451.56 C 441.88 458.70 461.59 480.63 476.22 495.38 C 485.52 504.76 490.48 510.50 490.48 511.88 C 490.48 515.94 495.19 521.05 505.73 528.48 C 508.23 530.25 515.98 535.48 515.98 535.48 L 522.04 539.38 C 536.17 548.49 550.62 554.48 558.45 554.48 C 567.23 554.48 572.98 551.96 585.35 542.69 L 588.41 540.39 L 586.83 544.19 C 583.00 552.99 578.51 561.48 573.39 569.60 C 568.39 576.93 562.71 581.86 547.48 591.98 C 533.63 601.18 523.48 610.86 520.41 617.91 C 518.12 623.08 517.69 631.57 519.41 636.91 L 520.59 640.48 L 512.28 649.48 C 512.28 649.48 495.78 668.90 492.22 673.19 C 488.66 677.48 483.34 684.32 480.39 688.41 L 480.39 688.41 C 477.44 692.49 472.89 697.61 470.76 700.22 C 465.25 706.98 455.64 725.00 454.15 727.98 C 445.04 745.84 434.63 763.00 423.00 779.34 L 423.00 779.34 C 421.38 781.63 419.64 783.83 417.78 785.92 C 416.91 786.92 408.84 797.06 408.84 797.06 C 406.70 799.64 404.33 802.01 401.74 804.14 C 396.62 808.34 393.43 812.98 393.43 816.26 C 393.65 818.52 394.15 820.74 394.92 822.88 L 396.42 827.29 L 378.91 844.67 C 364.91 858.56 358.99 863.67 349.36 870.07 C 335.36 879.43 332.30 882.77 331.64 889.61 C 331.35 892.61 330.46 895.10 329.30 896.15 C 328.10 897.36 327.45 899.00 327.49 900.70 C 327.54 902.40 328.27 904.01 329.53 905.15 C 331.33 906.78 333.17 907.04 342.28 907.00 C 354.87 907.00 364.56 905.00 383.77 898.87 C 391.23 896.47 393.58 896.17 397.98 894.80 C 412.90 888.36 418.65 875.63 422.27 863.69 C 423.35 859.97 424.84 856.39 426.70 853.00 C 427.02 852.68 429.76 852.35 432.79 852.26 C 436.56 852.15 439.18 851.46 441.11 850.05 C 444.94 847.26 448.44 839.94 449.11 833.27 C 449.65 828.02 449.95 827.54 455.48 822.96 C 458.95 820.06 462.21 816.93 465.24 813.58 C 465.24 813.58 475.90 800.20 478.00 797.34 C 483.46 789.92 490.12 778.96 502.16 757.54 L 511.44 741.04 L 511.44 741.04 L 515.28 735.09 L 515.44 734.86 C 515.54 733.59 519.74 727.05 521.27 725.80 L 521.27 725.80 L 525.44 718.67 C 525.44 718.67 525.44 718.67 525.44 718.60 C 525.44 718.04 528.59 715.49 532.44 712.94 C 534.52 711.44 536.75 710.16 539.09 709.12 L 550.84 700.89 L 550.94 700.89 L 550.94 700.89 C 552.17 699.67 566.44 690.12 567.70 689.66 L 591.89 673.95 L 591.89 673.95 C 591.88 673.92 591.88 673.90 591.89 673.87 C 593.37 672.38 633.75 645.64 634.05 645.94 C 634.19 646.09 631.52 651.88 628.05 658.83 L 621.85 671.45 L 621.85 671.45 L 619.25 677.98 L 619.15 678.16 L 619.34 678.16 C 619.34 679.37 615.20 693.86 614.28 695.86 C 614.08 696.31 613.84 696.74 613.57 697.15 L 613.57 697.47 L 606.36 705.00 L 601.00 710.23 C 598.07 713.09 595.10 716.80 594.41 718.48 L 594.41 718.48 L 593.14 721.48 L 593.14 721.48 L 591.94 727.87 C 594.33 728.53 593.71 730.19 590.77 734.04 L 590.77 734.04 L 583.90 743.75 L 583.90 743.75 L 581.43 748.96 C 579.77 752.46 578.07 754.51 576.28 755.19 C 574.46 756.05 572.90 757.37 571.76 759.03 C 570.08 761.60 569.93 763.72 570.23 781.51 L 570.56 801.15 L 570.56 801.15 L 571.40 807.28 L 571.40 807.28 L 571.40 812.80 C 571.40 828.74 576.48 847.80 582.29 853.59 C 588.36 859.66 598.84 861.15 610.34 857.59 C 624.51 853.18 630.42 843.45 626.94 830.25 C 625.69 825.48 625.62 823.25 626.59 817.06 L 627.74 809.62 L 627.74 809.62 L 627.11 803.99 L 627.11 803.99 L 625.34 795.24 C 624.34 790.43 622.13 781.54 620.34 775.47 C 617.85 766.97 617.26 763.47 617.75 759.89 C 617.94 758.02 618.34 756.19 618.94 754.41 C 619.25 753.91 621.75 753.49 624.50 753.49 C 632.68 753.49 637.02 750.27 641.87 740.59 C 643.69 737.07 645.77 733.70 648.09 730.49 L 651.60 725.78 L 657.46 718.54 L 657.46 718.54 C 658.87 716.58 660.46 714.77 662.23 713.13 L 667.12 708.31 L 666.12 700.84 L 655.00 713.56 C 648.56 720.85 641.47 730.15 638.36 735.41 C 634.48 741.95 632.03 744.99 629.78 746.06 L 629.78 746.06 C 626.12 747.80 626.31 747.80 620.38 746.20 C 610.10 743.43 599.44 733.20 599.44 726.08 C 599.44 721.08 601.26 718.28 609.62 710.63 C 616.08 704.71 621.43 696.41 621.43 692.30 C 621.43 687.30 634.89 658.30 644.24 643.16 C 660.96 616.16 691.75 582.50 708.74 572.75 C 713.49 570.02 713.98 570.03 726.59 573.00 C 732.28 574.35 739.26 575.75 742.11 576.12 L 747.28 576.80 L 749.61 582.94 C 752.60 590.97 752.57 599.82 749.50 607.82 C 744.68 620.37 723.25 648.31 707.64 662.38 C 703.26 666.38 699.40 669.38 699.17 669.57 C 698.59 669.96 698.66 679.07 698.66 679.07 L 702.25 675.32 C 704.25 673.25 727.98 651.00 732.73 644.32 C 734.52 641.81 738.73 636.77 741.63 632.76 C 741.63 632.76 750.55 620.19 753.39 614.61 C 754.88 611.36 756.05 607.96 756.87 604.48 C 757.65 601.10 759.39 595.33 758.08 590.34 C 757.79 589.54 757.70 588.68 757.81 587.84 C 758.35 587.29 792.81 595.44 798.43 595.05 L 798.43 595.05 C 806.24 594.50 816.82 587.36 816.82 587.36 C 821.39 585.82 822.43 580.98 822.43 576.26 L 822.43 515.67 C 822.43 515.67 821.43 501.49 821.43 498.14 C 821.37 478.83 814.88 450.78 808.80 443.56 C 804.55 438.50 778.96 425.35 749.45 413.06 C 743.13 410.42 737.67 407.99 737.33 407.66 C 736.99 407.33 736.45 403.56 736.15 399.31 L 735.60 391.56 L 738.16 391.56 C 743.49 391.56 749.45 381.96 749.45 373.38 C 749.45 370.38 749.95 369.69 752.96 368.25 C 759.63 365.07 762.11 357.47 758.96 349.92 C 757.59 346.64 757.62 346.13 759.31 343.70 C 763.31 337.96 764.31 331.80 762.08 327.44 C 760.91 325.21 760.94 323.95 762.30 318.74 C 767.15 300.13 752.92 284.59 726.30 279.46 C 720.47 278.61 714.58 278.19 708.68 278.21 C 701.99 278.21 697.43 277.79 697.43 277.21 C 696.65 274.34 693.94 272.42 690.97 272.63 Z M 689.94 277.83 C 691.45 277.78 691.63 278.83 691.66 281.38 C 691.66 284.62 693.78 284.38 695.77 284.28 L 705.07 284.28 C 730.48 284.28 748.48 290.95 754.47 302.69 C 756.91 307.47 757.98 316.86 756.64 321.69 C 755.95 324.21 755.97 326.88 756.72 329.39 C 757.66 332.94 757.50 334.08 755.44 338.49 C 753.18 343.31 752.89 343.54 749.11 343.54 C 742.20 343.54 736.70 348.28 731.11 359.04 L 731.11 359.04 C 726.51 367.87 726.21 367.85 726.80 358.87 C 727.34 349.03 730.52 339.51 736.00 331.32 C 738.64 327.24 740.42 323.32 740.42 321.58 C 740.42 317.64 734.64 312.96 727.91 311.45 C 722.49 310.24 718.17 311.04 699.72 316.71 C 689.53 319.83 685.89 318.85 682.21 311.98 C 678.40 304.87 676.21 295.98 677.04 290.68 C 677.87 285.38 682.11 280.13 686.95 278.53 C 687.92 278.17 688.92 277.93 689.95 277.81 Z M 669.37 297.63 C 669.60 297.59 669.84 297.65 670.01 297.81 C 670.75 299.37 671.33 300.99 671.75 302.66 C 672.96 306.78 672.86 307.43 670.20 313.17 C 668.54 316.83 667.38 320.70 666.75 324.67 C 665.69 334.18 664.49 334.34 660.48 325.49 C 657.57 319.14 657.76 311.81 660.98 305.62 C 663.00 301.94 667.49 297.80 669.38 297.63 Z M 676.37 314.55 C 676.78 314.55 678.37 316.17 679.88 318.15 C 685.41 325.42 691.77 325.99 707.58 320.65 C 711.68 319.22 715.86 318.03 720.10 317.09 C 724.47 316.35 730.75 317.65 733.88 319.94 C 735.78 321.33 735.75 321.47 732.69 325.73 C 728.28 331.88 723.69 341.26 722.44 346.55 C 721.71 350.89 721.35 355.29 721.38 359.69 C 721.38 366.69 721.71 368.76 723.27 370.69 C 725.01 372.83 725.48 372.94 728.38 371.84 L 731.56 370.64 L 730.80 374.34 C 730.39 376.34 730.00 383.93 729.94 391.11 L 729.83 404.18 L 722.83 411.11 C 714.99 418.85 705.76 430.74 702.38 437.48 C 699.95 442.32 699.58 448.21 701.44 452.68 C 702.44 455.01 702.25 457.00 700.54 463.78 C 695.93 482.21 691.08 513.36 691.54 521.57 L 691.88 527.57 L 687.65 527.57 C 683.84 527.57 683.36 527.29 682.83 524.82 C 680.70 514.88 673.36 503.16 667.28 500.02 C 663.66 498.14 663.56 495.62 666.82 488.44 C 668.28 485.18 669.48 481.81 670.43 478.36 C 671.13 475.53 672.43 473.08 673.80 472.22 C 675.17 471.36 678.44 467.05 681.44 462.49 L 686.88 454.20 L 687.40 436.63 C 687.82 422.57 688.32 418.03 689.89 413.82 C 691.46 409.61 692.32 408.57 694.01 408.57 C 699.01 408.57 709.24 404.46 713.42 400.75 C 719.58 395.29 717.26 392.35 710.12 396.57 C 704.35 399.96 695.32 402.57 689.30 402.57 C 682.87 402.57 679.30 400.39 675.43 394.16 C 672.73 389.77 671.43 374.08 671.43 345.75 C 671.43 326.22 671.59 324.02 673.53 319.50 C 674.70 316.78 676.00 314.56 676.42 314.56 Z M 748.49 348.90 C 749.36 348.88 750.22 349.12 750.96 349.59 C 754.96 351.73 754.96 359.12 750.96 361.78 L 750.96 361.78 C 748.44 363.47 740.36 362.35 737.46 359.93 C 736.46 359.10 742.67 351.45 745.46 349.98 C 746.38 349.43 747.40 349.07 748.46 348.91 L 748.46 348.91 Z M 681.56 350.55 C 679.89 350.33 678.26 351.12 677.38 352.55 C 676.13 354.86 676.99 359.33 679.15 361.82 C 680.31 363.15 682.07 363.81 683.82 363.57 C 685.57 363.33 687.08 362.22 687.84 360.62 C 689.84 356.62 689.78 355.89 686.91 353.02 C 685.50 351.59 683.62 350.71 681.62 350.55 Z M 738.01 367.90 C 739.07 367.99 740.11 368.23 741.10 368.61 C 743.99 369.61 744.10 369.90 743.64 373.86 C 743.19 376.69 742.29 379.42 740.99 381.97 C 738.99 385.70 737.31 387.16 736.27 386.12 C 735.71 385.56 736.94 368.64 737.59 367.99 C 737.71 367.91 737.86 367.88 738.00 367.90 Z M 469.66 384.71 C 470.02 384.71 470.35 384.71 470.66 384.71 C 474.85 385.01 475.01 385.16 478.16 391.52 C 482.68 400.65 487.89 418.75 490.49 434.36 C 493.02 449.54 492.64 451.70 486.97 454.07 L 486.97 454.07 C 484.30 455.00 481.49 455.49 478.66 455.52 L 473.80 455.52 L 473.80 447.27 C 473.80 438.21 472.11 431.75 467.20 422.37 L 464.20 416.73 L 466.95 412.58 C 469.95 408.07 470.54 402.91 468.28 401.39 C 466.02 399.87 457.34 400.99 450.59 403.74 C 444.59 406.20 444.28 406.22 443.33 404.45 C 442.52 402.40 441.97 400.26 441.72 398.07 C 441.00 392.87 442.03 391.07 446.97 389.07 C 451.91 387.07 464.18 384.72 469.60 384.71 Z M 461.43 406.65 C 461.65 406.64 461.86 406.70 462.03 406.83 C 463.03 407.83 461.15 412.55 459.78 412.55 C 456.95 412.55 457.44 415.35 462.13 426.11 C 466.70 436.59 466.91 437.45 466.91 446.38 C 466.91 455.66 466.91 455.73 463.66 458.63 C 459.59 462.27 457.96 462.28 452.37 458.73 C 439.31 450.45 427.11 428.25 431.73 421.20 C 434.10 417.58 457.08 406.53 461.43 406.65 Z M 730.55 412.05 L 730.01 421.05 C 729.36 432.50 726.47 443.71 721.50 454.05 C 719.35 458.49 716.66 462.96 715.50 463.99 C 713.50 465.81 713.43 465.81 712.50 463.47 C 711.98 462.16 709.92 457.52 707.92 453.16 L 704.27 445.22 L 710.76 435.65 C 714.76 429.85 719.15 424.31 723.88 419.09 Z M 737.32 413.81 C 738.20 414.30 751.62 420.59 770.43 429.34 C 802.09 444.07 802.51 444.34 805.65 450.55 C 809.33 457.83 812.14 469.25 814.03 484.55 C 816.14 501.55 817.23 570.55 815.48 575.89 C 813.56 581.72 809.89 585.33 804.17 587.03 L 804.17 587.03 C 798.06 588.84 793.94 588.83 785.93 587.03 C 782.62 586.27 776.10 584.94 771.43 584.03 C 760.43 581.97 755.17 580.33 754.66 578.78 C 754.37 577.87 755.99 577.53 760.66 577.53 C 766.16 577.53 767.66 577.11 771.07 574.65 C 776.62 570.65 778.86 565.65 778.75 557.41 C 778.65 549.57 775.48 541.75 770.41 536.83 C 766.94 533.46 761.66 530.53 759.05 530.53 C 758.16 530.51 757.34 530.08 756.80 529.38 C 755.62 527.47 766.87 529.10 771.99 531.58 C 775.35 533.32 778.57 535.33 781.61 537.58 C 786.69 541.39 788.39 541.73 788.39 538.93 C 788.39 537.03 780.78 528.77 778.30 527.93 C 777.25 527.60 776.39 526.93 776.39 526.39 C 776.39 524.96 782.04 525.29 786.05 526.96 C 790.82 528.96 791.59 528.86 791.21 526.31 C 790.36 520.63 777.82 517.31 772.40 521.31 C 769.96 523.11 768.65 523.31 763.22 522.82 C 756.36 522.18 749.88 524.02 748.77 526.92 C 748.26 528.26 744.94 528.46 724.53 528.46 C 711.28 528.46 700.23 528.02 699.39 527.46 C 696.85 525.84 697.73 511.16 701.82 486.95 C 703.82 474.86 705.72 464.78 705.95 464.55 C 706.18 464.32 707.29 466.23 708.43 468.79 C 710.06 472.46 710.99 473.44 712.89 473.44 C 721.72 473.44 734.65 444.91 736.12 422.18 C 736.43 417.34 736.96 413.53 737.29 413.70 Z M 680.50 422.55 C 681.02 422.55 681.43 428.64 681.43 436.60 C 681.43 451.92 681.24 452.60 674.74 461.67 C 672.81 464.35 670.87 466.55 670.41 466.55 C 668.72 466.55 667.01 458.81 666.97 451.03 C 666.97 443.97 667.31 442.23 670.13 436.53 C 673.43 429.87 678.85 422.55 680.50 422.55 Z M 670.00 423.00 C 670.09 423.00 670.14 423.00 670.16 423.00 C 670.47 423.31 669.99 424.35 669.11 425.33 C 667.21 428.09 665.57 431.02 664.20 434.08 C 661.08 440.67 660.89 441.69 660.89 452.08 C 660.89 462.47 661.09 463.44 663.78 468.29 L 666.67 473.50 L 663.78 480.79 L 660.92 488.00 L 652.42 488.61 C 648.54 488.84 644.67 489.28 640.83 489.90 L 637.74 490.59 L 636.58 482.29 C 634.58 468.16 633.85 469.98 646.24 459.24 C 652.79 453.57 648.24 451.31 640.37 456.33 C 637.93 457.88 634.01 460.61 632.54 463.02 C 629.91 466.96 628.92 471.78 629.80 476.44 C 630.69 481.64 630.71 487.38 631.03 489.07 L 631.60 492.14 L 622.26 494.62 C 610.07 497.85 609.38 498.98 612.40 510.62 C 613.56 515.09 616.08 526.44 618.01 535.85 C 621.53 553.08 626.39 571.76 629.16 578.73 C 630.16 581.19 631.48 582.73 633.04 583.09 C 634.35 583.42 635.43 584.00 635.43 584.38 C 635.43 585.62 606.87 615.82 600.03 621.82 C 596.37 625.03 591.03 629.56 587.67 631.09 C 583.35 633.26 578.58 634.35 573.75 634.29 L 559.45 633.90 C 538.67 633.32 537.61 634.90 530.67 635.27 C 530.67 635.27 523.48 636.65 523.48 632.02 C 523.54 627.48 524.69 623.02 526.83 619.02 C 530.34 613.02 539.50 604.76 551.52 596.70 C 563.54 588.64 570.68 582.70 574.80 577.39 L 577.68 573.67 L 581.00 576.00 C 585.14 578.82 590.72 579.94 593.39 578.51 C 596.25 576.99 595.96 574.51 592.93 574.51 C 589.90 574.51 581.41 570.51 581.41 569.12 C 581.41 568.59 583.60 563.84 586.29 558.57 C 594.46 542.57 598.85 529.35 606.77 497.01 C 615.54 461.14 615.53 461.22 613.14 460.72 C 610.28 460.12 607.83 467.23 599.78 499.40 C 591.46 532.68 592.58 530.48 579.41 539.47 C 562.99 550.68 556.46 550.99 537.41 541.47 C 530.00 537.81 505.70 522.00 500.00 517.13 C 496.43 514.13 497.00 513.13 501.36 514.65 C 512.18 518.42 525.57 510.11 529.43 497.23 C 532.00 488.66 530.07 476.64 525.66 473.75 C 523.38 472.26 523.35 472.13 525.16 471.46 C 528.98 470.04 532.48 471.92 545.80 482.56 C 559.80 493.77 570.57 500.56 574.30 500.56 C 577.74 500.56 576.83 497.84 572.30 494.56 L 568.15 491.56 L 571.62 491.56 C 576.15 491.56 585.26 494.29 588.56 496.64 C 593.46 500.13 594.08 495.12 589.25 491.05 C 585.25 487.72 582.47 486.62 575.63 485.74 L 570.29 485.06 L 590.75 462.06 C 602.01 449.41 613.08 437.87 615.36 436.41 C 618.10 434.79 621.10 433.67 624.23 433.10 C 626.82 432.73 638.11 430.18 649.30 427.43 C 659.80 424.87 668.73 422.95 670.05 422.97 Z M 477.52 462.63 C 481.90 462.63 483.94 463.36 491.52 467.00 C 496.72 469.51 505.92 473.27 511.97 475.37 L 522.97 479.17 L 524.36 483.49 C 527.06 491.90 521.92 504.21 514.19 507.88 C 511.82 508.90 509.27 509.46 506.69 509.55 C 499.30 509.55 493.75 505.39 475.48 486.12 L 458.48 468.19 L 462.00 467.00 C 463.87 466.37 465.64 465.48 467.25 464.35 C 468.25 463.51 471.61 462.84 475.48 462.70 C 476.22 462.70 476.90 462.70 477.48 462.70 Z M 656.52 494.82 C 657.01 494.78 657.49 494.82 657.97 494.92 C 659.12 495.36 659.43 497.65 659.43 505.50 L 659.43 515.50 L 652.03 514.88 C 645.03 514.28 644.49 514.38 642.03 516.88 C 640.03 518.88 639.43 520.48 639.43 523.63 C 639.43 527.16 640.05 528.41 643.43 531.79 C 647.73 536.09 648.02 536.56 646.36 536.56 C 645.78 536.56 643.21 538.00 640.67 539.75 C 637.82 541.85 634.43 543.10 630.90 543.35 L 625.76 543.78 L 623.53 532.43 C 622.31 526.18 620.22 516.95 618.87 511.93 C 615.95 501.01 615.99 501.57 618.24 501.57 C 621.36 501.14 624.45 500.50 627.49 499.64 C 635.94 497.45 651.49 494.94 656.49 494.83 Z M 666.37 506.55 C 667.72 506.55 671.09 511.55 674.21 518.25 C 676.74 523.66 676.93 524.96 676.93 537.55 C 676.93 549.64 676.69 551.60 674.54 556.34 C 673.23 559.25 671.35 562.06 670.36 562.59 C 668.09 563.80 668.46 563.87 664.84 561.66 C 660.16 558.80 657.41 552.01 657.32 543.01 C 657.32 537.85 655.48 533.31 651.32 530.39 C 648.07 527.56 645.41 524.39 645.41 523.39 C 645.41 521.70 646.41 521.54 656.86 521.54 C 669.06 521.54 671.47 520.62 667.57 517.47 C 665.93 516.14 665.41 514.62 665.41 511.13 C 665.42 508.61 665.84 506.55 666.36 506.55 Z M 684.09 534.05 L 688.01 534.16 L 722.94 535.01 C 739.99 535.42 755.60 536.16 757.64 536.67 C 766.24 538.83 771.81 547.09 771.89 557.78 C 771.89 564.06 771.72 564.72 768.68 567.78 C 765.64 570.84 764.91 571.05 758.68 571.10 C 745.68 571.22 726.82 567.19 699.16 558.42 L 683.39 553.42 L 683.74 543.75 Z M 649.83 541.55 C 650.16 541.55 650.44 543.91 650.44 546.80 C 650.44 552.65 653.44 560.01 657.85 565.27 C 661.71 569.85 661.09 573.27 655.93 575.96 C 651.76 578.13 638.00 579.42 635.86 577.84 C 634.99 577.20 627.38 552.51 627.42 550.43 C 627.42 550.09 629.68 549.59 632.42 549.33 C 635.83 549.00 639.30 547.68 643.33 545.20 C 645.40 543.82 647.57 542.60 649.82 541.55 Z M 680.77 558.55 C 681.34 558.55 703.89 566.67 704.21 566.99 C 704.39 567.16 701.69 569.34 698.21 571.82 C 691.21 576.82 674.61 592.69 666.21 602.36 C 661.98 607.25 659.86 608.88 656.82 609.59 C 651.27 610.88 643.52 610.69 639.25 609.16 C 634.51 607.46 629.15 604.31 628.70 602.96 C 628.50 602.37 631.76 597.96 635.94 593.22 C 642.82 585.37 643.88 584.55 647.10 584.55 C 655.86 584.55 665.39 578.62 665.39 573.18 C 665.39 570.89 665.81 570.55 668.56 570.55 C 671.02 570.55 672.71 569.55 676.06 566.03 C 678.44 563.54 680.39 560.84 680.39 560.03 C 680.39 559.22 680.54 558.55 680.73 558.55 Z M 624.45 607.55 C 624.97 607.55 625.40 607.95 626.00 608.55 C 628.16 610.35 630.49 611.95 632.94 613.32 C 637.37 615.88 638.87 616.19 646.18 616.15 C 648.93 616.04 651.69 616.12 654.43 616.39 C 654.43 616.55 651.43 620.91 647.69 626.07 C 641.79 634.26 640.11 635.88 634.44 638.89 C 625.21 643.76 537.82 701.84 526.58 710.56 C 519.17 716.31 516.80 718.79 515.19 722.46 C 514.11 724.95 512.84 727.35 511.38 729.64 C 510.39 731.00 503.91 742.00 497.00 754.00 C 476.23 790.00 467.61 802.16 452.00 817.53 C 444.46 824.98 443.41 826.43 443.41 829.53 C 443.41 835.15 441.41 840.67 438.41 843.72 L 438.41 843.72 C 436.85 845.28 434.53 846.53 433.25 846.53 C 430.45 846.53 421.10 842.75 416.08 839.64 C 408.71 835.09 399.43 822.23 399.43 816.58 C 399.43 814.98 401.52 812.32 406.05 808.14 C 421.90 793.55 444.41 760.61 460.43 728.54 C 467.57 714.26 473.64 704.22 477.37 700.54 C 479.37 698.60 487.30 689.15 495.10 679.54 C 502.90 669.93 513.35 657.54 518.35 651.90 L 527.43 641.73 L 534.17 641.00 C 537.88 640.60 550.17 640.59 561.42 641.00 L 573.86 641.42 C 578.93 641.37 583.95 641.18 588.03 638.64 C 598.48 631.93 608.04 623.92 616.49 614.82 C 621.60 609.31 623.28 607.54 624.49 607.57 Z M 597.13 736.46 C 597.42 736.46 597.65 736.69 597.88 737.08 C 600.14 741.08 607.03 747.82 610.71 749.70 C 613.66 751.20 614.42 752.08 613.88 753.36 C 612.32 757.05 612.45 765.49 614.19 773.79 L 616.03 782.54 L 612.79 785.68 C 610.59 788.04 608.79 790.74 607.46 793.68 C 606.31 796.35 605.15 798.54 604.88 798.54 C 604.61 798.54 602.88 796.15 600.99 793.22 C 597.35 787.52 591.21 781.54 588.99 781.54 C 587.65 781.54 587.40 780.00 585.77 761.26 L 585.17 754.47 L 590.99 744.86 C 594.78 738.64 596.25 736.48 597.13 736.46 Z M 578.21 760.55 C 580.61 760.55 581.75 769.38 582.43 793.05 C 583.19 819.81 584.65 830.40 588.66 838.50 C 590.66 842.50 591.35 843.08 594.60 843.35 C 597.41 843.59 599.26 842.95 602.39 840.69 C 604.82 838.97 607.56 837.73 610.45 837.04 C 613.13 836.49 615.69 835.46 618.00 834.00 C 622.44 831.00 622.47 831.00 622.47 834.34 C 622.47 842.16 618.47 848.01 611.09 851.10 C 607.70 852.26 604.17 852.97 600.59 853.23 C 594.99 853.66 593.27 853.38 589.47 851.41 C 585.67 849.44 584.63 848.22 582.81 843.59 C 578.66 833.04 577.48 823.74 576.49 793.43 C 575.53 765.72 575.81 760.55 578.21 760.55 Z M 589.00 788.00 C 589.24 787.92 589.57 788.16 590.00 788.52 C 593.24 791.18 601.43 804.63 603.00 809.82 C 606.00 819.82 604.30 831.24 599.19 835.76 C 597.48 837.27 595.71 838.51 595.27 838.51 C 592.70 838.51 589.43 820.17 588.77 802.02 C 588.29 791.26 588.22 788.26 589.00 788.00 Z M 617.50 789.51 C 618.90 789.51 620.97 802.20 620.93 810.51 C 620.93 820.00 619.50 825.20 616.20 828.29 C 614.71 829.57 612.97 830.52 611.08 831.08 C 608.27 831.77 608.21 831.71 609.00 828.90 C 609.44 827.31 609.89 821.28 610.00 815.51 C 610.11 809.74 610.52 803.65 611.00 802.01 C 612.00 798.32 616.60 789.51 617.56 789.51 Z M 400.32 831.70 L 402.21 834.70 C 404.52 838.34 412.51 845.06 417.66 847.70 C 421.34 849.58 421.41 849.70 420.07 852.36 C 418.86 855.04 417.81 857.78 416.92 860.58 C 412.07 875.58 405.61 883.98 394.92 889.04 C 387.53 892.56 384.52 892.85 380.05 890.48 C 375.58 888.11 364.78 885.63 359.15 885.60 C 355.15 885.60 354.45 884.60 356.97 882.52 C 359.03 880.81 362.40 874.17 362.40 871.81 C 362.40 870.74 370.40 861.87 381.35 850.81 Z M 354.85 874.88 C 354.95 874.86 355.06 874.88 355.15 874.94 C 355.81 875.60 352.27 880.44 348.77 883.66 C 346.92 885.27 344.81 886.54 342.52 887.41 C 336.73 889.35 336.01 888.61 339.42 884.27 C 341.35 881.82 352.72 875.00 354.85 874.87 Z M 356.85 891.56 C 363.09 891.56 373.74 893.56 375.14 894.92 C 375.69 895.47 370.26 897.04 360.45 899.15 C 352.06 900.96 336.31 901.94 334.62 900.76 C 333.62 900.05 333.85 899.20 335.83 896.85 C 338.82 893.29 345.77 891.53 356.84 891.56 Z M 880.95 913.78 L 880.95 913.78 C 879.87 914.49 798.80 914.72 767.02 914.33 C 759.27 914.23 636.02 914.08 636.02 914.08 L 524.65 914.31 L 404.38 914.57 L 397.61 914.57 L 337.28 914.31 L 277.00 914.05 L 277.00 914.05 L 127.70 914.55 L 40.00 915.05 C 40.00 915.05 34.28 915.47 34.28 917.55 C 34.28 919.63 40.00 920.05 40.00 920.05 L 100.50 920.55 L 100.50 920.55 C 192.83 921.31 983.28 921.44 1014.00 920.69 L 1041.00 920.05 C 1041.00 920.05 1045.84 919.36 1045.84 917.55 C 1045.84 915.74 1041.00 915.05 1041.00 915.05 L 965.00 914.55 C 912.23 914.20 881.00 913.78 881.00 913.78 Z" fill="#483613" fill-rule="nonzero" id="path2627" node-id="31" stroke="none" target-height="648.58997" target-width="1011.55994" target-x="34.28" target-y="272.6"></path></svg>