<?xml version="1.0" standalone="no"?><!DOCTYPE svg PUBLIC "-//W3C//DTD SVG 1.1//EN" "http://www.w3.org/Graphics/SVG/1.1/DTD/svg11.dtd"><svg height="1080" legacy-metrics="false" node-id="1" sillyvg="true" template-height="1080" template-width="1080" version="1.1" viewBox="0 0 1080 1080" width="1080" xmlns="http://www.w3.org/2000/svg" xmlns:xlink="http://www.w3.org/1999/xlink"><defs node-id="30"></defs><path d="M 517.00 246.63 C 517.00 246.63 501.37 241.42 502.13 248.81 C 502.89 256.20 505.73 263.81 507.05 266.05 C 508.37 268.29 498.34 267.94 498.34 267.94 C 498.34 267.94 499.57 281.48 502.03 287.55 C 504.49 293.62 498.34 302.03 498.43 313.21 C 498.52 324.39 490.95 333.57 503.92 338.87 C 516.89 344.17 519.27 343.70 519.27 343.70 C 519.27 343.70 510.00 323.15 508.65 305.00 C 507.30 286.85 505.65 285.11 510.07 280.66 C 514.49 276.21 520.30 265.80 521.63 270.15 C 522.96 274.50 529.87 267.88 532.63 275.26 C 535.39 282.64 542.20 294.77 553.63 296.48 C 565.06 298.19 568.68 286.53 568.68 286.53 C 568.68 286.53 581.28 282.93 585.07 286.44 C 588.86 289.95 592.93 287.29 593.87 296.19 C 594.81 305.09 596.81 311.92 589.14 318.36 C 581.47 324.80 567.45 320.44 567.45 320.82 C 567.45 321.20 571.52 337.67 574.56 338.15 C 577.60 338.63 580.62 334.15 580.62 334.15 C 580.62 334.15 596.91 340.59 607.42 331.69 C 617.93 322.79 620.11 320.32 613.86 309.43 C 607.61 298.54 596.34 289.73 597.19 276.76 C 598.04 263.79 595.19 252.61 585.45 246.07 C 575.71 239.53 568.40 240.58 571.72 245.32 C 575.04 250.06 584.31 271.93 585.16 278.84 C 586.01 285.75 568.79 284.00 568.79 284.00 C 568.79 284.00 566.99 261.18 549.38 247.82 C 531.77 234.46 517.84 242.90 516.99 246.59 Z" fill="#9a702d" fill-rule="nonzero" id="path2658" node-id="7" stroke="none" target-height="103.1472" target-width="120.96637" target-x="496.3427" target-y="240.55281"></path><path d="M 508.00 394.37 C 508.00 394.37 495.50 398.16 489.82 413.78 C 484.14 429.40 476.18 453.08 473.34 471.45 C 470.50 489.82 469.74 495.13 466.80 501.10 C 463.86 507.07 447.20 517.39 447.20 517.39 C 447.20 517.39 449.00 533.68 455.15 532.39 C 461.30 531.10 476.65 526.52 483.00 515.72 C 489.35 504.92 499.95 481.53 499.95 481.53 C 499.95 481.53 494.17 454.35 494.08 446.11 C 494.01 441.21 494.94 436.34 496.82 431.81 C 496.82 431.81 505.06 449.33 504.97 457.95 C 504.88 466.57 514.63 486.17 515.86 501.71 C 517.09 517.25 518.13 533.52 518.13 539.40 C 518.13 545.28 516.62 547.54 521.82 548.40 C 527.02 549.26 545.12 548.68 548.34 553.33 C 551.56 557.98 552.89 560.33 563.78 561.47 C 574.67 562.61 595.41 562.47 597.78 554.94 C 600.15 547.41 598.63 533.25 599.20 516.11 C 599.77 498.97 603.27 487.89 606.01 473.88 C 608.75 459.87 613.40 453.42 613.40 453.42 C 613.40 453.42 618.61 446.03 618.80 445.56 C 618.99 445.09 644.37 465.92 653.27 472.93 C 662.17 479.94 672.69 487.80 684.14 484.29 C 695.59 480.78 707.92 473.21 710.85 468.38 C 713.78 463.55 729.98 443.76 731.12 439.21 C 732.26 434.66 729.32 435.81 727.71 436.09 C 726.10 436.37 708.77 437.89 705.17 428.32 C 701.57 418.75 697.78 418.38 690.30 432.39 C 685.51 441.20 679.70 449.41 673.00 456.87 C 673.00 456.87 649.00 418.33 639.57 407.34 C 630.14 396.35 614.95 392.28 612.96 391.53 C 610.97 390.78 605.19 386.53 603.87 396.53 C 602.55 406.53 597.20 428.08 583.00 442.86 C 568.80 457.64 551.65 464.13 533.57 456.36 C 517.92 449.83 507.66 434.61 507.46 417.65 C 507.32 403.32 507.99 394.37 507.99 394.37 Z" fill="#f37a81" fill-rule="nonzero" id="path2660" node-id="8" stroke="none" target-height="171.98697" target-width="284.169" target-x="447.2" target-y="389.99875"></path><path d="M 509.50 570.23 L 488.76 587.18 L 554.87 585.67 C 554.87 585.67 528.35 591.92 518.03 592.67 C 507.71 593.42 456.38 605.27 451.36 621.67 C 446.34 638.07 452.12 657.67 462.25 669.97 C 472.38 682.27 519.54 718.97 531.25 726.79 C 542.96 734.61 546.00 721.66 546.00 721.66 C 546.00 721.66 509.13 666.00 505.34 658.30 C 501.55 650.60 515.57 657.17 529.87 655.46 C 544.17 653.75 563.01 654.80 568.79 651.86 C 574.57 648.92 588.11 637.66 599.38 630.86 C 610.65 624.06 617.56 629.25 618.70 618.93 C 619.84 608.61 612.45 593.17 606.58 580.86 C 600.71 568.55 596.58 559.74 596.58 559.74 C 596.58 559.74 584.74 563.91 572.91 564.09 C 561.08 564.27 548.47 560.40 548.47 560.40 C 548.47 560.40 545.16 569.21 529.82 569.59 C 514.48 569.97 509.50 570.23 509.50 570.23 Z" fill="#c2dc82" fill-rule="nonzero" id="path2662" node-id="9" stroke="none" target-height="169.51941" target-width="169.28934" target-x="449.5192" target-y="559.74"></path><path d="M 439.82 643.45 C 439.82 643.45 424.02 713.63 423.48 730.24 C 422.94 746.85 413.97 766.24 424.82 767.33 C 435.67 768.42 436.74 764.39 445.44 751.00 C 454.14 737.61 468.88 688.00 468.88 688.00 C 468.88 688.00 449.46 671.79 445.31 658.13 C 441.16 644.47 439.82 643.40 439.82 643.40 Z" fill="#c2dc82" fill-rule="nonzero" id="path2664" node-id="10" stroke="none" target-height="124.08386" target-width="49.37439" target-x="419.5056" target-y="643.4"></path><path d="M 291.43 182.87 C 291.43 182.87 254.73 270.46 237.59 293.23 C 220.45 316.00 213.75 307.69 213.75 307.69 C 213.75 307.69 210.00 317.87 188.30 322.16 C 166.60 326.45 155.36 312.78 155.36 312.78 L 152.00 356.31 C 152.00 356.31 163.00 363.14 181.46 363.31 C 199.92 363.48 208.78 361.31 223.92 344.31 C 239.06 327.31 273.34 268.64 275.08 257.93 C 276.82 247.22 293.29 194.31 291.42 182.93 Z" fill="#f9f1cb" fill-rule="nonzero" id="path2666" node-id="11" stroke="none" target-height="180.44" target-width="139.55954" target-x="152" target-y="182.87"></path><path d="M 156.43 493.32 C 156.43 493.32 179.73 490.37 181.07 465.46 C 182.41 440.55 181.61 414.84 181.61 414.84 C 181.61 414.84 192.05 403.05 197.68 412.43 C 203.31 421.81 194.34 397.87 193.96 388.59 C 193.58 379.31 193.58 379.22 193.58 379.22 C 186.41 381.56 178.80 382.27 171.32 381.30 C 158.32 379.79 153.43 376.47 153.43 376.47 C 153.43 376.47 152.29 471.47 152.29 471.93 C 152.29 472.39 156.43 493.32 156.43 493.32 Z" fill="#f9f1cb" fill-rule="nonzero" id="path2668" node-id="12" stroke="none" target-height="116.850006" target-width="47.23694" target-x="152.29" target-y="376.47"></path><path d="M 402.30 223.81 C 402.30 223.81 407.04 269.08 422.76 302.22 C 438.48 335.36 473.00 357.15 481.66 360.00 C 490.32 362.85 468.21 323.26 468.21 323.26 C 468.21 323.26 482.61 338.79 490.75 332.16 C 498.89 325.53 497.00 310.94 497.00 310.00 C 497.00 309.06 491.13 284.81 491.89 276.67 C 492.65 268.53 496.15 265.58 496.89 264.54 C 497.63 263.50 493.48 253.08 495.56 246.45 C 497.64 239.82 501.25 239.35 504.09 239.73 C 506.93 240.11 516.41 246.50 519.09 243.15 C 521.77 239.80 519.90 196.15 519.71 193.15 C 519.52 190.15 464.78 167.58 461.19 207.54 C 457.60 247.50 459.86 273.27 448.12 283.54 C 436.38 293.81 400.41 189.91 402.30 223.81 Z" fill="#f9f1cb" fill-rule="nonzero" id="path2670" node-id="13" stroke="none" target-height="175.9736" target-width="118.207825" target-x="402.27625" target-y="184.13553"></path><path d="M 453.44 548.07 C 451.74 547.50 423.70 496.74 412.72 487.84 C 401.74 478.94 395.29 505.26 379.38 513.79 C 363.47 522.32 356.45 516.94 356.45 516.94 C 356.45 516.94 357.03 503.75 345.67 498.26 C 334.31 492.77 290.53 485.94 290.93 500.15 C 291.33 514.36 305.33 546.55 316.12 548.07 C 326.91 549.59 453.44 548.07 453.44 548.07 Z" fill="#f9f1cb" fill-rule="nonzero" id="path2672" node-id="14" stroke="none" target-height="62.665924" target-width="162.51001" target-x="290.93" target-y="486.07956"></path><path d="M 515.36 569.66 C 509.50 570.23 512.36 556.26 462.05 558.41 C 411.74 560.56 301.87 560.28 277.50 561.08 C 253.13 561.88 249.10 587.08 253.12 597.25 C 257.14 607.42 265.44 621.35 265.44 621.35 C 265.44 621.35 265.44 598.45 273.88 584.79 C 282.32 571.13 293.17 569.12 309.11 569.92 C 325.05 570.72 515.36 569.65 515.36 569.65 Z" fill="#f9f1cb" fill-rule="nonzero" id="path2674" node-id="15" stroke="none" target-height="63.1557" target-width="263.58765" target-x="251.77234" target-y="558.1943"></path><path d="M 610.83 591.44 C 611.02 590.12 623.90 574.59 639.44 579.89 C 654.98 585.19 646.82 619.28 645.31 620.23 C 643.80 621.18 617.31 624.40 617.31 624.40 C 617.31 624.40 619.39 614.74 617.31 606.97 C 615.71 601.58 613.54 596.37 610.83 591.44 Z" fill="#f9f1cb" fill-rule="nonzero" id="path2676" node-id="16" stroke="none" target-height="45.61432" target-width="37.93872" target-x="610.83" target-y="578.7857"></path><path d="M 505.15 655.46 C 505.15 655.46 560.07 651.67 573.15 655.27 C 586.23 658.87 599.29 642.58 622.02 649.21 C 644.75 655.84 630.44 686.93 608.76 692.39 C 587.08 697.85 528.07 691.83 528.07 691.83 C 528.07 691.83 505.35 662.83 505.16 655.46 Z" fill="#f9f1cb" fill-rule="nonzero" id="path2678" node-id="17" stroke="none" target-height="47.026917" target-width="128.3522" target-x="505.15" target-y="647.6399"></path><path d="M 556.20 872.87 C 536.38 871.67 531.69 879.87 513.08 866.87 C 494.47 853.87 479.86 861.78 428.97 862.32 C 378.08 862.86 342.97 860.45 308.97 861.11 C 274.97 861.77 255.67 856.70 252.19 871.03 C 248.71 885.36 242.41 900.36 274.82 901.16 C 307.23 901.96 462.82 900.49 463.66 900.36 C 464.50 900.23 564.51 900.22 564.51 900.22 C 564.51 900.22 572.28 895.40 571.21 884.55 C 570.14 873.70 556.21 872.90 556.21 872.90 Z" fill="#f9f1cb" fill-rule="nonzero" id="path2680" node-id="18" stroke="none" target-height="41.89966" target-width="321.9718" target-x="249.31834" target-y="859.49695"></path><path d="M 861.69 732.00 C 861.69 732.00 865.85 723.16 846.43 722.62 C 827.01 722.08 819.00 718.85 819.00 732.00 C 819.00 745.15 820.00 842.60 821.11 851.44 C 822.22 860.28 821.50 900.12 821.64 900.03 C 821.78 899.94 828.03 901.64 828.55 898.61 C 829.07 895.58 826.42 891.22 831.92 889.94 C 837.42 888.66 844.70 889.94 845.92 894.16 C 847.14 898.38 850.56 901.40 854.92 900.64 C 858.48 900.13 862.07 899.79 865.67 899.64 Z" fill="#f9f1cb" fill-rule="nonzero" id="path2682" node-id="19" stroke="none" target-height="178.81128" target-width="46.669983" target-x="819" target-y="721.8888"></path><path d="M 806.11 722.60 C 806.11 722.60 800.49 747.92 776.65 755.82 C 752.81 763.72 738.21 769.48 718.53 768.67 C 698.85 767.86 697.10 781.00 697.10 781.00 L 808.39 784.75 C 808.39 784.75 808.93 730.37 806.11 722.60 Z" fill="#f9f1cb" fill-rule="nonzero" id="path2684" node-id="20" stroke="none" target-height="62.150024" target-width="111.3313" target-x="697.1" target-y="722.6"></path><path d="M 810.53 794.39 C 810.53 796.67 811.87 841.00 811.20 841.39 C 810.53 841.78 698.84 843.13 698.84 843.13 C 698.84 843.13 697.77 832.28 713.70 830.13 C 729.63 827.98 778.12 827.31 789.91 818.34 C 801.70 809.37 810.53 794.34 810.53 794.34 Z" fill="#f9f1cb" fill-rule="nonzero" id="path2686" node-id="21" stroke="none" target-height="48.789978" target-width="112.54303" target-x="698.84" target-y="794.34"></path><path d="M 810.53 850.64 C 810.53 850.64 781.34 872.20 760.00 875.55 C 738.66 878.90 721.70 874.88 713.93 879.70 C 706.16 884.52 703.93 893.09 703.93 893.09 C 703.93 893.09 708.68 887.00 724.49 886.67 C 740.30 886.34 784.29 886.00 787.03 888.74 C 789.77 891.48 792.32 899.32 792.32 899.32 L 814.62 900.59 Z" fill="#f9f1cb" fill-rule="nonzero" id="path2688" node-id="22" stroke="none" target-height="49.950012" target-width="110.69" target-x="703.93" target-y="850.64"></path><path d="M 799.28 674.25 C 799.28 674.25 790.28 646.53 782.81 642.78 C 775.34 639.03 776.00 661.26 777.19 667.00 C 778.38 672.74 758.30 661.65 758.57 667.81 C 758.84 673.97 765.40 682.54 772.63 682.27 C 779.86 682.00 794.73 679.73 799.15 682.81 C 803.57 685.89 788.57 698.09 766.21 698.00 C 743.85 697.91 731.21 695.72 731.21 695.72 C 731.21 695.72 728.13 712.72 750.21 711.26 C 772.29 709.80 809.81 711.39 809.81 711.39 C 809.81 711.39 821.19 695.19 820.12 690.90 C 819.05 686.61 808.34 683.00 805.12 681.90 C 801.90 680.80 796.55 681.36 799.22 674.26 Z" fill="#f9f1cb" fill-rule="nonzero" id="path2690" node-id="23" stroke="none" target-height="69.01868" target-width="89.05359" target-x="731.0664" target-y="642.37134"></path><path d="M 485.05 144.24 C 482.38 144.24 479.39 144.24 476.05 144.24 C 463.70 144.38 399.59 144.98 333.59 145.58 C 210.16 146.70 186.89 147.20 176.65 148.95 C 169.34 150.21 160.70 154.14 157.74 158.27 C 151.58 166.85 151.07 179.44 151.15 269.05 C 151.15 307.10 150.92 370.43 150.55 409.78 C 149.97 472.83 150.08 482.17 151.47 488.53 C 154.52 502.47 160.73 511.44 169.09 513.96 C 174.86 515.70 216.77 515.61 242.49 513.81 C 253.63 512.95 264.81 512.83 275.97 513.43 L 291.35 514.31 L 297.00 526.41 C 300.09 533.04 303.60 540.10 304.80 542.10 L 306.98 545.73 L 281.30 546.04 L 255.62 546.35 C 245.68 546.35 238.83 558.35 236.45 564.72 C 234.85 568.97 234.64 574.99 234.32 634.85 C 234.11 674.67 234.42 709.37 235.11 723.35 C 235.73 736.00 236.65 762.55 237.16 782.35 C 237.67 802.15 238.52 826.90 239.06 837.35 C 239.60 847.80 240.06 862.21 240.06 869.35 C 240.13 883.35 241.18 887.35 246.68 894.57 L 249.17 897.83 L 249.17 897.83 L 260.55 897.78 L 255.83 894.32 C 252.81 892.08 250.34 889.20 248.58 885.88 C 246.27 881.32 246.06 879.80 246.03 867.63 C 246.03 860.32 245.55 846.02 245.03 835.84 C 244.51 825.66 243.62 800.47 243.09 779.84 C 242.56 759.21 241.66 733.34 241.09 722.34 C 239.54 692.34 240.44 573.79 241.60 568.11 C 242.81 562.20 250.22 552.34 256.60 552.34 L 397.60 552.34 C 535.69 552.34 538.68 552.42 542.60 554.34 C 547.48 556.74 548.07 559.00 544.65 562.17 C 540.39 566.12 534.65 566.96 516.74 566.25 C 507.87 565.90 492.95 566.06 483.60 566.61 C 472.60 567.25 448.69 567.27 416.10 566.69 C 358.10 565.69 294.10 566.95 285.52 569.34 C 281.83 570.34 279.16 572.06 275.74 575.53 C 264.79 586.64 262.82 597.20 262.00 649.30 C 261.46 683.30 261.50 725.15 262.10 755.80 C 262.38 769.80 262.42 794.40 262.20 810.40 C 261.82 837.48 261.92 839.75 263.70 843.33 C 264.86 845.59 266.46 847.60 268.41 849.23 C 271.41 851.42 278.12 851.80 341.06 853.36 C 350.06 853.58 356.27 853.86 360.18 854.22 C 358.40 849.22 366.58 847.89 364.92 845.81 C 362.92 848.14 359.60 846.54 350.42 847.09 C 344.88 847.43 340.10 847.47 339.81 847.18 C 339.52 846.89 324.50 846.30 306.44 845.88 C 288.38 845.46 272.88 844.80 271.99 844.41 C 267.99 842.66 267.93 841.08 267.59 759.81 C 267.19 668.02 268.27 608.65 270.50 598.58 C 272.59 589.15 275.14 583.94 279.94 579.31 C 282.83 576.51 285.37 575.07 288.34 574.53 C 291.31 573.99 519.20 572.21 519.20 572.21 C 537.74 572.86 539.38 572.78 543.58 570.92 C 546.10 569.80 548.42 568.26 550.44 566.38 L 552.77 563.87 L 552.77 563.87 C 554.37 560.91 554.37 557.33 552.77 554.37 L 552.77 554.37 C 552.71 554.27 552.65 554.17 552.60 554.07 C 549.26 547.83 545.10 546.50 527.48 546.02 L 512.37 545.61 L 512.37 545.61 C 512.37 545.61 503.69 545.86 502.50 545.86 C 499.76 545.86 499.10 545.47 499.10 543.86 C 499.10 541.15 496.59 540.23 484.10 538.40 L 465.89 535.72 L 458.18 534.57 L 455.18 529.23 L 455.18 529.23 C 453.46 526.84 443.40 501.14 443.40 501.14 C 438.50 490.50 443.65 470.78 460.55 435.39 C 466.08 423.79 478.79 400.14 480.60 398.08 C 481.58 398.00 482.57 398.12 483.50 398.45 L 486.15 399.11 L 493.15 394.71 C 489.58 396.78 484.73 394.96 482.15 390.71 C 479.94 387.04 479.51 382.56 481.00 378.54 L 481.92 376.11 L 487.75 377.62 C 496.53 379.89 506.33 378.28 513.03 373.47 L 518.03 369.85 L 518.03 372.72 C 518.03 373.63 518.81 377.09 518.19 377.92 C 521.05 376.36 525.13 375.31 525.46 374.92 C 525.46 374.92 525.46 374.80 525.54 374.75 L 525.43 374.80 C 524.92 374.80 523.03 362.94 523.03 358.55 L 523.03 353.76 L 517.54 345.50 C 517.54 347.06 517.43 353.83 517.30 355.77 C 516.77 363.48 516.55 364.11 513.63 366.33 C 511.01 368.18 508.25 369.83 505.38 371.27 L 505.38 371.27 C 503.39 372.36 501.29 373.23 499.11 373.85 C 495.11 373.85 469.11 324.78 469.01 317.07 C 468.94 315.93 468.60 314.83 468.01 313.85 C 467.13 312.51 466.91 312.51 466.01 313.85 C 464.40 316.30 464.82 319.55 468.01 328.98 C 471.90 340.59 479.64 356.92 485.01 364.77 C 487.33 368.20 489.01 371.21 488.78 371.47 C 488.55 371.73 485.44 370.84 481.92 369.47 C 449.81 357.38 425.26 330.60 412.10 293.30 C 402.24 265.36 393.36 217.69 393.41 172.21 L 393.41 152.11 L 421.14 151.46 C 436.76 151.11 459.69 150.52 472.09 150.15 C 484.49 149.78 496.24 149.79 498.20 150.15 C 503.41 151.15 510.73 156.40 513.49 161.15 C 515.11 164.30 516.27 167.67 516.94 171.15 C 518.27 178.51 518.49 237.88 517.23 240.97 C 517.29 240.98 517.34 240.98 517.40 240.97 C 518.69 240.82 522.65 242.42 524.65 240.34 C 524.40 239.93 524.02 219.83 523.80 202.07 C 523.32 163.36 523.00 161.65 514.68 153.33 C 507.14 145.79 503.75 144.27 485.02 144.21 Z M 340.40 151.84 L 339.71 293.60 C 339.33 371.60 338.71 437.69 338.42 440.60 L 337.81 445.79 L 311.69 446.10 C 287.56 446.38 283.50 446.63 280.26 448.51 C 275.58 451.23 273.26 456.09 273.26 463.24 C 273.26 468.94 278.91 481.95 286.10 500.66 L 288.89 507.91 L 278.72 507.71 C 255.36 507.24 253.06 506.99 253.06 504.90 C 253.06 498.17 245.65 485.44 231.99 468.71 C 220.99 455.24 216.45 448.63 211.64 439.06 C 203.85 423.58 197.55 402.53 196.42 388.21 L 195.77 380.00 L 200.89 374.40 C 203.78 371.24 206.54 367.05 207.22 364.79 C 208.05 362.00 209.82 359.66 212.99 357.14 C 217.17 353.50 221.11 349.60 224.79 345.46 C 257.69 308.82 286.93 246.84 292.99 200.88 C 294.67 188.13 295.26 169.81 294.27 161.41 C 293.75 157.01 293.38 153.34 293.45 153.27 C 293.52 153.20 304.10 152.86 316.97 152.51 Z M 346.06 151.99 L 366.81 152.14 L 387.56 152.30 L 387.66 172.83 C 387.91 226.36 397.73 281.60 412.41 312.05 C 425.05 338.27 444.35 358.88 466.30 369.60 C 474.63 373.66 475.97 374.60 475.48 376.35 C 473.92 381.89 473.91 387.72 475.48 391.02 L 477.12 394.48 L 471.45 402.91 C 464.94 412.60 450.90 440.57 445.12 455.36 L 445.12 455.36 C 442.95 460.89 440.07 469.23 438.72 473.88 C 436.33 482.09 436.22 482.26 435.13 479.44 C 427.72 460.33 422.22 452.22 414.13 448.54 C 409.86 446.60 407.38 446.44 376.25 446.06 L 343.92 445.68 C 343.92 445.68 346.05 358.90 346.05 260.68 Z M 286.76 152.56 L 287.40 154.96 C 288.57 159.32 288.06 189.17 286.63 199.86 C 282.55 230.52 267.87 269.50 247.39 304.13 C 233.07 328.31 224.16 340.24 214.30 348.43 C 206.30 355.07 200.47 358.20 193.30 359.73 C 183.60 361.79 183.30 361.53 188.30 355.61 C 197.13 345.27 207.35 327.95 213.37 313.12 C 220.00 296.82 216.70 296.46 208.69 312.61 C 198.83 332.54 184.83 353.00 178.00 357.54 C 174.27 360.00 174.14 360.02 168.90 358.47 C 165.95 357.60 163.10 356.41 160.40 354.93 L 157.21 352.93 L 156.90 327.62 C 156.73 313.71 156.81 273.07 157.09 237.32 L 157.54 178.95 C 157.54 178.95 158.38 164.31 166.03 158.86 C 173.03 153.86 174.92 153.70 232.68 153.09 Z M 754.66 201.51 C 752.41 201.42 725.37 201.74 694.57 202.20 C 653.30 202.83 637.77 203.38 635.52 204.32 C 631.07 206.17 628.02 208.06 625.52 215.54 C 623.39 221.94 622.89 225.60 623.86 247.16 C 624.96 271.55 625.92 275.88 631.23 280.35 C 635.56 283.99 644.16 286.20 651.64 285.60 L 657.87 285.10 L 656.00 290.64 C 653.38 298.26 653.47 304.30 656.24 306.24 L 656.24 306.24 C 659.67 308.64 663.83 306.24 669.36 298.80 C 678.16 286.90 677.96 287.02 690.04 286.67 C 695.85 286.50 709.60 286.58 720.60 286.86 C 748.80 287.57 758.79 286.81 764.40 283.52 C 772.34 278.87 772.60 277.67 772.60 244.85 L 772.60 216.35 C 772.60 216.35 772.60 202.15 754.69 201.50 L 754.69 201.50 Z M 709.66 208.65 C 737.13 208.65 758.66 209.21 759.78 209.21 C 769.04 209.21 767.83 222.36 767.83 222.36 L 767.04 247.15 C 766.18 274.01 765.88 275.38 760.30 278.15 C 756.88 279.88 746.75 281.15 737.56 281.01 C 733.71 280.95 719.08 280.77 705.04 280.61 L 685.36 280.38 C 679.44 280.05 677.09 282.06 674.85 284.13 C 671.52 287.05 668.50 290.32 665.85 293.87 C 659.59 302.45 658.35 301.54 662.03 291.07 C 662.67 289.26 663.16 287.20 663.61 285.52 C 664.82 281.00 661.61 279.81 656.67 279.81 C 647.31 279.81 639.23 278.30 636.03 275.96 C 631.47 272.62 630.84 269.72 629.84 247.67 C 629.06 230.49 628.84 223.47 630.25 218.31 C 631.37 214.12 634.88 208.81 637.53 208.81 L 697.53 208.61 C 701.65 208.61 705.70 208.61 709.63 208.61 Z M 670.66 224.82 C 657.50 224.82 647.66 224.97 647.16 225.29 C 646.57 225.77 646.36 226.59 646.66 227.29 C 647.31 228.97 654.34 229.87 674.55 230.84 L 674.55 230.84 C 697.82 231.97 753.93 231.84 754.66 230.67 C 755.00 230.11 754.57 228.94 753.66 228.07 C 752.42 226.83 748.66 226.33 736.29 225.74 C 723.69 225.15 692.54 224.79 670.62 224.81 Z M 666.00 252.94 C 656.69 252.94 651.95 253.88 652.30 255.69 C 652.53 256.92 654.07 257.51 658.11 257.94 C 661.11 258.27 670.69 258.60 679.35 258.69 C 692.87 258.84 695.10 258.64 695.10 257.33 C 695.10 254.88 690.95 253.95 676.81 253.24 C 672.68 253.00 669.07 252.94 666.00 252.94 Z M 158.08 361.17 C 158.34 361.20 158.59 361.27 158.82 361.38 C 170.48 366.25 184.95 367.92 195.06 365.54 C 198.63 364.70 201.71 364.17 201.90 364.36 C 202.90 365.36 193.31 373.94 189.09 375.75 C 180.60 379.40 169.86 379.30 160.73 375.48 L 157.07 374.00 L 157.07 367.30 C 157.07 362.46 157.19 361.14 158.07 361.17 Z M 157.64 380.08 C 159.20 380.52 160.71 381.11 162.16 381.82 C 164.39 382.87 166.78 383.55 169.23 383.82 C 173.39 383.82 174.75 386.11 175.99 395.06 C 177.40 405.20 177.84 427.46 176.77 434.60 C 176.12 438.96 176.24 439.85 177.49 439.85 C 178.32 439.85 179.79 438.38 180.74 436.60 C 183.94 430.60 183.74 402.25 180.45 386.81 C 179.94 384.45 180.25 384.20 184.98 383.23 L 190.05 382.23 L 190.05 387.31 C 190.05 399.25 197.55 425.05 205.62 441.17 C 210.95 451.82 215.62 458.54 229.51 475.89 C 239.51 488.39 244.98 497.20 246.82 504.00 L 247.82 507.62 L 241.69 508.27 C 238.32 508.63 227.23 509.14 217.06 509.42 L 217.06 509.42 C 206.88 509.69 194.51 510.09 189.56 510.30 C 180.56 510.67 171.50 509.36 167.38 507.09 C 162.13 504.20 157.88 494.24 155.92 480.24 C 155.00 473.66 155.02 461.51 155.99 426.07 C 156.67 400.94 157.35 380.26 157.50 380.07 C 157.65 379.88 157.57 380.07 157.64 380.07 L 157.64 380.07 Z M 347.25 451.88 C 411.90 451.88 412.39 451.88 417.71 458.18 C 421.35 462.47 426.44 473.64 435.08 496.36 C 443.08 517.36 452.81 538.62 455.39 540.73 C 456.54 541.67 457.46 541.79 458.32 541.10 C 459.18 540.41 463.55 540.85 472.07 542.45 C 478.95 543.74 485.69 544.81 487.07 544.84 C 489.07 544.84 489.26 545.09 488.07 545.84 C 486.53 546.84 480.17 546.84 375.57 545.84 C 314.57 545.27 314.38 545.25 309.90 540.20 C 305.25 534.95 281.64 471.55 279.90 464.90 C 279.22 462.44 279.57 459.81 280.85 457.60 C 282.13 455.39 284.25 453.79 286.72 453.16 C 293.15 451.84 308.43 451.88 347.25 451.88 Z M 359.05 483.16 C 355.44 483.05 352.50 484.69 349.67 488.16 C 346.84 491.63 346.57 492.58 346.57 499.74 C 346.57 506.74 346.85 507.84 349.45 511.25 C 351.37 513.60 353.75 515.52 356.45 516.90 L 356.45 516.90 C 361.63 519.25 363.53 519.24 368.80 516.85 C 382.41 510.67 379.65 490.13 364.43 484.31 C 362.72 483.61 360.90 483.21 359.05 483.12 Z M 359.00 489.00 C 360.20 489.00 361.66 489.61 363.86 490.74 C 371.05 494.43 373.59 504.41 368.62 509.38 C 365.15 512.85 360.07 512.70 355.93 509.01 C 353.28 506.63 352.69 505.29 352.31 500.71 C 351.91 495.88 352.17 494.87 354.55 492.04 C 356.32 490.00 357.45 489.00 359.00 489.00 Z M 640.73 552.89 C 629.29 553.02 619.23 559.60 611.73 572.08 L 608.29 577.82 L 611.58 584.74 L 611.58 584.74 L 614.52 579.04 C 618.82 570.74 628.31 561.54 634.32 559.88 C 643.80 557.26 654.93 560.67 659.50 567.60 C 663.84 574.20 665.18 581.71 665.77 602.96 C 666.57 631.96 664.05 644.73 654.10 662.13 C 648.96 671.13 643.10 675.93 629.51 682.44 C 618.39 687.75 610.51 689.71 597.51 690.38 C 592.01 690.66 585.51 691.01 583.00 691.16 C 572.72 691.78 534.92 688.82 529.52 687.05 L 534.67 694.16 C 535.21 693.92 536.67 693.99 539.67 694.32 C 547.49 695.21 567.48 697.99 567.75 698.24 C 568.02 698.49 567.69 705.24 567.35 713.64 C 567.07 720.39 566.86 728.01 566.54 729.93 L 573.04 731.58 L 573.04 731.58 L 573.04 720.00 C 573.04 713.60 573.33 706.00 573.68 703.13 L 574.31 697.88 L 587.03 697.88 L 587.03 716.88 L 587.03 716.88 C 587.03 735.77 585.81 738.45 585.81 738.45 L 592.94 738.90 C 592.94 738.90 593.57 728.37 593.49 725.73 L 592.72 698.08 L 600.62 697.36 C 615.00 696.00 628.31 691.48 643.00 682.92 C 654.72 676.08 666.40 656.39 670.49 636.58 C 672.37 627.50 672.67 596.30 671.00 584.26 C 668.65 567.37 662.00 557.64 650.63 554.33 C 647.42 553.37 644.08 552.89 640.73 552.91 Z M 780.09 568.89 C 773.31 568.99 766.09 572.63 758.99 579.70 C 751.45 587.25 745.93 596.56 742.93 606.80 C 739.99 616.36 739.78 632.87 742.46 642.80 C 744.60 650.70 751.46 665.49 756.39 672.80 C 758.39 675.80 759.90 678.29 759.77 678.43 C 759.64 678.57 755.48 679.17 750.54 679.77 C 738.37 681.26 733.29 683.84 730.17 690.13 C 728.02 694.46 727.89 695.46 728.85 699.63 C 729.45 702.19 730.23 705.06 730.59 706.00 C 731.20 707.57 730.01 707.71 715.91 707.63 C 702.48 707.55 699.99 707.80 695.91 709.63 C 690.27 712.11 687.24 717.17 686.37 725.56 C 686.06 728.56 686.37 766.93 687.10 810.78 C 687.83 854.63 688.10 892.15 687.71 894.16 L 687.02 897.80 L 694.11 897.80 L 694.11 846.10 L 702.67 845.45 C 724.83 843.74 740.77 843.59 772.98 844.80 L 807.84 846.11 L 808.45 855.21 C 808.78 860.21 809.36 871.87 809.74 881.10 L 810.42 897.88 L 816.42 897.80 L 816.42 897.80 L 815.74 886.06 C 814.74 869.54 814.23 847.99 813.06 780.31 C 812.50 747.86 811.64 719.79 811.15 717.93 L 810.25 714.55 L 830.87 715.28 C 842.22 715.68 852.53 716.49 853.81 717.07 C 857.50 718.75 859.18 722.35 860.10 730.60 C 860.80 736.87 861.74 866.42 861.27 891.06 L 861.14 897.80 L 868.30 897.80 L 867.83 815.06 C 867.34 729.16 867.07 723.68 863.05 717.17 C 859.41 711.28 854.90 710.03 834.39 709.24 C 824.39 708.85 816.14 708.37 816.14 708.18 C 817.18 706.48 818.34 704.84 819.60 703.29 C 823.89 697.67 824.96 692.76 822.86 688.35 C 821.09 684.65 816.86 682.35 809.03 680.78 C 798.03 678.60 798.67 679.29 803.13 674.70 C 805.78 671.77 808.04 668.50 809.84 664.98 C 815.30 653.83 812.52 642.60 803.14 637.81 C 799.50 635.95 799.14 635.41 799.14 631.87 C 799.14 629.72 800.30 622.64 801.73 616.14 C 805.23 600.14 804.83 591.77 800.14 582.96 C 798.29 579.49 795.14 575.33 793.21 573.71 C 789.60 570.59 784.98 568.88 780.21 568.90 Z M 780.55 575.05 C 781.30 575.05 782.04 575.12 782.78 575.25 C 790.50 576.69 798.07 588.25 798.07 598.56 C 798.07 600.44 796.66 608.90 794.93 617.36 C 792.04 631.48 791.93 633.05 793.20 636.46 C 794.20 639.08 795.94 640.95 799.09 642.79 C 804.30 645.79 806.03 648.71 806.09 654.30 C 806.09 659.25 803.36 664.53 796.87 672.03 C 792.30 677.32 791.57 677.77 787.75 677.77 L 783.60 677.77 L 780.79 666.49 C 776.19 648.02 774.86 627.33 777.67 617.88 C 778.53 614.98 778.98 612.34 778.67 612.03 C 777.56 610.92 773.07 616.21 772.14 619.73 C 770.46 626.04 769.89 641.06 771.00 649.64 C 771.89 656.58 775.19 668.06 778.58 676.05 L 778.58 676.05 C 779.24 677.61 778.65 677.80 773.19 677.80 L 767.00 677.80 L 761.38 669.17 C 755.38 659.88 750.18 648.62 747.97 639.80 C 745.86 631.42 746.27 616.68 748.84 608.30 C 754.37 590.30 769.12 575.11 780.53 575.07 Z M 637.66 618.30 C 634.03 618.31 630.40 618.60 626.82 619.17 L 622.07 619.98 L 622.07 619.98 L 615.00 621.11 C 613.94 622.28 611.89 623.00 608.06 624.28 C 599.34 627.20 582.06 636.46 573.72 642.74 L 566.05 648.48 L 560.82 655.64 L 560.20 655.88 C 560.99 656.03 560.76 656.55 560.20 657.64 C 558.55 660.71 558.83 663.32 561.02 665.30 C 563.21 667.28 565.41 666.47 564.55 663.75 C 563.82 661.47 567.38 655.22 569.88 654.39 C 570.82 654.08 573.88 651.76 576.58 649.24 C 582.73 643.60 595.94 635.68 605.58 631.84 C 618.83 626.58 629.37 624.44 642.29 624.40 C 654.85 624.40 656.56 623.55 651.29 620.13 C 649.41 618.90 643.73 618.25 637.58 618.29 Z M 780.66 684.47 C 785.26 684.47 789.34 684.62 792.23 684.91 C 804.96 686.18 814.99 688.70 816.43 690.99 C 817.87 693.28 815.86 697.72 810.91 703.99 C 810.91 704.74 809.75 705.41 809.22 705.99 C 807.42 707.93 802.22 708.61 801.88 708.30 C 801.54 707.99 786.88 707.77 769.36 707.82 L 737.36 707.91 L 735.72 703.61 C 732.30 694.65 734.63 689.11 742.72 686.99 C 748.28 685.53 766.82 684.44 780.63 684.48 Z M 697.90 713.36 L 747.32 713.47 C 800.78 713.60 803.06 713.81 804.89 718.65 C 805.45 720.14 806.18 735.19 806.51 752.11 L 806.51 752.11 C 806.84 769.02 806.76 782.79 806.34 782.71 C 800.34 781.58 746.47 779.89 723.34 780.11 L 693.10 780.40 L 693.10 776.88 C 693.10 774.94 692.63 763.46 692.10 751.36 C 691.00 727.08 691.64 720.69 695.61 716.07 Z M 750.00 742.06 C 748.51 742.14 747.12 742.84 746.16 743.99 C 743.78 746.54 743.49 748.88 745.31 750.70 C 745.99 751.39 747.90 751.81 749.54 751.65 C 751.45 751.72 753.13 750.42 753.54 748.55 C 754.84 744.77 752.74 742.00 750.00 742.06 Z M 594.22 748.49 L 588.56 765.34 L 588.56 765.34 L 588.84 780.34 C 589.11 794.65 589.03 795.42 586.98 797.09 C 585.64 798.12 584.02 798.73 582.33 798.84 C 580.91 798.84 577.11 799.21 577.03 798.54 C 576.03 800.38 569.85 802.41 567.75 804.54 C 569.25 804.45 577.89 804.39 579.39 804.38 C 589.19 804.31 589.23 804.30 592.14 801.05 C 594.14 798.76 595.06 796.73 595.06 794.30 C 595.06 791.04 595.26 790.81 598.31 790.81 C 606.60 790.81 618.83 794.02 626.64 798.25 C 641.79 806.46 640.36 812.56 622.75 814.79 L 622.75 814.79 C 612.50 816.09 507.08 816.03 504.81 814.72 C 500.06 811.99 504.95 804.91 514.81 800.23 C 519.26 798.11 537.31 790.54 544.90 788.04 C 543.47 786.47 539.42 784.14 539.29 783.27 C 539.15 784.57 538.62 784.96 537.35 785.27 C 529.11 787.34 510.91 794.72 506.04 797.98 C 496.33 804.46 493.62 813.23 499.60 818.84 C 502.90 821.95 513.30 822.74 541.19 822.04 L 562.82 821.50 L 563.55 833.65 C 563.94 840.34 563.94 851.20 563.55 857.80 L 563.55 857.80 C 562.79 870.44 562.62 870.80 558.05 868.22 C 556.44 867.33 552.32 866.81 546.55 866.81 C 535.73 866.81 533.04 865.47 524.55 856.07 C 520.32 851.40 516.67 847.28 513.55 846.43 C 510.43 845.58 494.86 847.69 455.32 848.01 C 425.73 848.26 401.56 848.35 400.32 848.24 L 390.92 855.74 C 444.01 854.52 476.69 853.59 490.83 852.87 C 513.13 851.72 513.48 851.81 520.91 860.95 C 523.40 863.97 526.19 866.72 529.25 869.16 C 532.99 871.92 534.31 872.26 543.49 872.84 C 560.88 873.95 569.08 878.34 569.08 886.53 C 569.08 889.45 568.31 890.82 564.91 893.96 L 564.91 893.96 L 560.76 897.80 L 571.07 897.46 L 571.82 897.33 C 571.34 897.33 571.08 897.25 571.08 897.21 C 571.58 896.07 572.26 895.01 573.08 894.08 C 577.17 888.88 574.89 878.59 568.55 873.60 C 566.31 871.84 566.27 871.60 567.69 868.20 C 569.57 863.70 570.55 841.35 569.35 830.06 L 568.48 821.81 L 587.85 821.81 L 588.58 842.55 C 588.98 853.97 589.82 864.86 590.45 866.76 C 592.23 872.19 598.22 875.97 611.69 880.18 C 618.23 882.18 626.90 885.07 630.94 886.50 C 638.09 889.01 646.01 894.02 646.84 896.56 C 646.84 896.69 646.75 896.81 646.44 896.92 L 654.13 897.80 L 652.51 894.67 C 648.70 887.29 641.25 883.14 619.59 876.30 C 604.87 871.65 598.07 868.87 595.08 866.30 C 593.81 865.19 593.66 861.82 594.08 843.78 L 594.57 822.57 L 609.08 822.33 C 630.86 821.97 639.58 819.43 642.92 812.48 C 645.61 806.89 642.71 801.06 633.86 794.20 C 628.79 790.28 615.45 786.33 603.07 785.10 L 595.58 784.35 L 594.95 768.85 C 594.76 764.36 594.51 756.85 594.24 748.49 Z M 692.75 785.75 L 729.66 786.23 C 766.66 786.72 805.01 788.45 806.19 789.69 C 806.53 790.06 807.12 801.29 807.49 814.69 L 808.17 838.98 L 761.86 838.69 L 761.86 838.69 C 736.39 838.53 710.72 838.76 704.81 839.21 L 694.05 840.03 L 694.05 829.17 C 694.05 823.22 693.75 811.02 693.40 802.05 Z M 173.67 785.86 C 164.52 785.86 158.99 811.03 158.67 854.11 C 158.60 864.42 158.48 872.86 158.40 872.86 C 158.32 872.86 156.08 869.37 153.40 865.11 C 144.84 851.36 138.86 846.41 135.21 850.06 C 131.56 853.71 138.03 872.86 149.15 890.45 C 150.55 892.56 151.83 894.75 153.00 897.00 L 161.27 897.89 L 156.00 889.67 C 151.05 881.94 143.24 866.36 141.56 860.86 C 140.80 858.37 140.81 858.37 142.92 860.25 C 144.09 861.25 147.76 866.11 151.08 870.96 C 154.40 875.81 157.52 880.02 158.01 880.32 C 158.50 880.62 159.21 882.22 159.57 883.87 C 160.45 887.87 162.85 887.70 163.47 883.61 C 163.74 881.82 164.20 870.21 164.47 857.82 C 165.28 824.39 167.81 803.10 171.94 795.05 L 173.71 791.59 L 175.26 795.47 C 177.05 799.96 179.01 809.34 182.50 830.15 C 183.87 838.29 186.10 849.88 187.50 855.92 C 189.78 866.03 189.86 867.22 188.50 871.00 C 187.65 873.61 187.16 876.32 187.06 879.06 C 187.06 885.00 189.86 883.75 191.99 876.85 C 193.54 872.38 195.43 868.04 197.62 863.85 L 201.56 856.35 L 201.84 867.05 C 202.12 877.44 199.91 890.51 196.95 896.05 C 196.60 896.68 195.99 897.12 195.28 897.24 L 201.28 897.50 L 202.06 897.08 C 202.20 896.41 202.99 893.86 203.98 890.92 C 206.24 884.23 208.67 859.17 207.61 853.53 C 206.29 846.53 201.20 846.83 196.25 854.30 L 193.18 858.92 L 192.62 856.14 C 192.30 854.60 190.62 844.35 188.97 833.35 C 183.23 796.08 179.97 785.85 173.61 785.85 Z M 749.10 808.15 C 748.80 808.17 748.50 808.22 748.21 808.31 C 744.67 809.44 744.45 814.31 747.91 815.12 C 750.38 815.69 753.07 814.04 753.07 811.94 C 753.06 810.91 752.64 809.92 751.89 809.20 C 751.14 808.49 750.13 808.11 749.10 808.15 Z M 931.00 819.86 C 925.16 819.86 910.92 839.56 905.00 855.86 C 903.39 860.27 902.07 864.97 902.07 866.30 C 902.07 869.73 900.87 870.03 898.19 867.25 C 895.19 864.13 890.74 864.04 888.63 867.05 C 886.20 870.52 886.63 880.64 889.57 889.42 C 890.95 893.52 892.07 897.09 892.07 897.35 L 892.02 897.35 L 901.38 897.54 L 901.60 897.43 C 900.32 897.33 899.18 896.57 898.60 895.43 C 894.60 889.33 891.15 873.43 893.34 871.23 C 893.75 870.83 895.10 871.80 896.34 873.40 C 901.89 880.53 904.81 883.13 906.53 882.47 C 908.03 881.89 908.18 880.94 907.53 875.35 C 906.44 865.12 910.95 852.25 920.68 837.80 C 923.09 834.23 926.23 829.95 927.68 828.30 L 930.28 825.30 L 929.79 833.30 C 929.52 837.72 927.41 850.77 925.09 862.30 C 921.64 879.42 920.33 884.08 917.97 887.69 C 914.76 892.61 914.51 893.61 916.34 894.31 C 917.02 894.58 920.65 891.86 924.34 888.31 C 930.57 882.31 937.77 877.31 936.90 879.55 C 936.70 880.06 934.74 884.37 932.54 889.13 L 932.54 889.13 L 928.54 897.77 L 934.54 897.44 L 934.92 897.23 L 934.73 897.23 C 934.40 896.90 935.44 894.51 937.04 891.90 C 947.04 875.70 945.31 868.09 933.11 874.27 C 930.29 875.70 927.99 876.65 927.99 876.40 C 927.99 876.15 929.56 868.11 931.49 858.55 C 937.41 829.11 937.28 819.83 930.95 819.83 Z M 750.13 860.26 C 749.57 860.31 749.01 860.45 748.50 860.69 C 745.62 862.00 745.23 865.29 747.78 866.78 C 749.98 868.05 749.78 868.05 752.10 866.78 C 755.91 864.78 753.76 860.00 750.10 860.22 Z M 753.31 883.14 C 734.00 883.14 713.07 884.77 708.46 886.97 C 706.85 887.74 704.18 890.48 702.53 893.06 L 702.53 893.06 C 700.18 896.73 698.93 897.76 696.78 897.80 L 694.13 897.85 C 694.44 897.85 702.05 898.54 704.93 898.17 C 705.86 898.05 707.93 897.68 710.22 897.25 C 705.50 896.68 706.59 895.56 709.02 893.37 C 712.36 890.37 734.46 888.59 760.26 889.30 C 772.26 889.63 782.60 890.13 783.34 890.42 C 784.08 890.71 785.45 892.50 786.34 894.42 L 787.99 897.86 L 787.99 897.86 L 793.68 897.36 L 792.31 893.26 C 791.47 890.85 790.14 888.64 788.41 886.76 C 785.98 884.49 784.92 884.33 766.19 883.45 C 762.13 883.25 757.76 883.16 753.30 883.16 Z M 837.31 886.86 C 830.60 886.86 827.81 888.86 826.60 894.61 L 826.60 894.61 C 826.01 897.38 825.75 897.79 822.47 897.85 L 854.35 897.85 C 851.00 897.78 850.75 897.27 849.10 893.43 C 846.75 887.95 844.79 886.86 837.31 886.86 Z M 837.52 891.86 C 841.31 891.86 842.77 892.77 843.22 895.34 C 843.53 897.13 842.94 897.34 837.82 897.65 C 832.70 897.96 832.07 897.71 832.07 896.09 C 832.07 893.39 834.07 891.83 837.52 891.86 Z" fill="#efca87" fill-rule="nonzero" id="path2694" node-id="24" stroke="none" target-height="754.06604" target-width="809.3129" target-x="134.21857" target-y="144.21"></path><path d="M 1041.14 903.26 C 1041.14 915.09 943.14 925.99 785.34 931.71 C 627.54 937.43 434.74 937.08 282.03 930.79 C 129.32 924.50 40.79 913.26 50.87 901.44 L 545.62 903.26 Z" fill="#f9f1cb" fill-rule="nonzero" id="path2708" node-id="25" stroke="none" target-height="34.31378" target-width="991.02136" target-x="50.118683" target-y="901.44"></path><path d="M 561.00 343.72 C 560.60 347.72 558.06 366.89 550.16 372.78 C 542.26 378.67 544.00 365.00 544.00 365.00 L 551.09 349.07 Z" fill="#f2d0b9" fill-rule="nonzero" id="path2725" node-id="26" stroke="none" target-height="30.512665" target-width="17.117737" target-x="543.88226" target-y="343.72"></path><path d="M 543.11 231.00 C 542.11 231.00 541.11 231.00 540.11 231.11 C 535.96 231.41 530.89 232.37 528.84 233.24 C 526.79 234.11 518.93 243.24 512.98 239.77 C 510.41 238.27 507.56 237.34 504.60 237.04 C 500.15 236.67 499.04 236.97 496.28 239.29 C 490.96 243.77 490.18 251.44 494.28 259.23 C 495.75 262.02 495.69 262.23 492.69 264.89 C 489.69 267.55 489.59 267.89 489.64 276.00 C 489.57 281.38 490.41 286.73 492.13 291.83 C 494.36 298.63 494.60 300.96 494.60 316.88 C 494.60 331.74 494.86 334.88 496.31 337.04 C 498.54 340.44 508.71 346.04 513.49 346.04 C 515.56 346.04 519.01 349.62 523.09 353.70 L 527.43 356.24 C 529.92 357.74 532.74 358.62 535.64 358.79 L 539.51 358.79 L 535.00 363.41 C 532.81 365.71 530.33 367.72 527.64 369.41 L 527.64 369.41 C 526.12 370.16 513.48 378.53 507.32 382.48 C 501.41 386.26 494.75 390.75 492.51 392.48 C 491.87 392.98 491.21 393.43 490.51 393.84 L 486.13 399.12 L 483.73 403.25 C 479.73 410.17 472.26 429.90 469.11 441.97 C 465.84 454.51 460.63 480.19 459.56 488.97 C 458.89 494.49 458.94 494.87 451.99 499.73 L 444.78 504.73 C 444.78 504.73 446.97 510.40 447.03 510.38 C 448.03 510.04 458.52 502.38 460.90 500.08 C 461.63 499.38 463.82 491.50 465.76 482.57 C 467.70 473.64 470.76 459.57 472.55 451.33 C 475.92 435.62 481.24 420.39 488.40 406.00 C 492.55 397.90 493.16 397.83 499.82 393.70 L 506.27 389.70 L 506.09 393.10 C 504.77 398.32 504.95 411.65 504.95 419.10 C 504.95 436.28 520.26 454.40 530.83 459.57 C 538.83 463.48 552.02 464.07 561.40 460.95 C 584.67 453.21 600.70 432.08 605.66 402.62 C 606.76 396.08 607.89 392.03 608.52 392.31 C 609.15 392.59 613.61 394.54 618.52 396.70 C 631.32 402.29 635.17 406.16 649.65 428.05 C 656.51 438.42 664.32 449.10 667.01 451.79 C 670.69 455.47 671.75 457.20 671.34 458.79 C 671.00 460.09 671.26 460.90 672.02 460.90 C 674.10 460.90 679.70 454.04 689.77 439.15 C 695.07 431.31 699.66 424.91 699.96 424.93 C 700.26 424.95 701.42 426.86 702.52 429.18 C 704.04 432.05 706.21 434.52 708.86 436.39 C 712.65 439.01 714.07 439.39 720.00 439.39 L 726.81 439.39 L 724.50 443.95 C 718.96 454.87 700.50 476.56 690.22 484.12 C 682.39 489.91 677.32 491.41 670.76 489.86 C 662.12 487.86 654.97 483.56 641.92 472.68 C 635.10 466.99 626.73 460.16 623.31 457.50 L 617.09 452.66 L 618.58 449.10 C 620.28 445.03 619.30 443.10 616.32 444.74 C 611.70 447.21 602.02 474.74 598.65 494.90 C 596.00 510.77 594.85 526.81 595.56 538.07 C 596.39 551.33 595.31 555.46 590.44 557.49 L 590.44 557.49 C 588.03 558.49 582.95 558.86 572.30 558.78 C 564.17 558.72 556.84 558.48 556.02 558.26 C 555.20 558.04 553.77 556.35 552.68 554.42 L 552.68 554.42 C 554.28 557.38 554.28 560.96 552.68 563.92 L 552.68 563.92 L 552.68 563.92 L 564.08 565.00 C 576.69 566.20 588.98 565.52 593.28 563.38 C 595.40 562.33 596.18 562.28 596.46 563.19 C 596.66 563.85 597.39 566.19 598.06 568.38 C 598.73 570.57 602.88 580.26 607.28 589.89 C 614.00 604.59 615.35 608.43 615.75 613.89 C 616.04 617.89 616.13 619.79 614.92 621.12 L 621.99 619.98 L 621.99 619.98 L 621.99 614.59 C 621.99 608.53 619.85 601.59 614.88 591.59 L 611.52 584.79 L 611.52 584.79 L 608.22 577.88 L 608.22 577.88 L 604.57 569.37 C 600.57 560.11 600.27 558.00 601.71 550.26 C 602.30 546.12 602.31 541.91 601.76 537.76 C 600.76 529.32 602.00 511.51 605.07 491.40 C 606.18 483.28 608.22 475.31 611.16 467.66 L 615.26 456.93 L 622.26 463.16 C 626.09 466.59 632.26 471.87 635.95 474.90 C 639.64 477.93 645.57 482.83 649.11 485.81 C 657.19 492.63 664.47 495.88 673.24 496.62 C 679.50 497.14 680.56 496.93 686.32 494.01 C 694.27 490.01 703.02 482.18 713.32 470.01 C 723.74 457.65 728.54 450.17 735.54 435.41 C 740.48 424.98 741.16 422.83 740.74 418.95 C 740.30 414.82 740.55 414.19 744.10 410.64 C 752.10 402.64 754.83 391.55 751.59 380.30 C 748.59 370.05 743.90 364.17 736.30 361.30 C 731.55 359.49 731.48 359.30 730.64 347.95 C 729.46 331.90 725.15 325.95 719.85 333.03 C 717.08 336.75 716.12 342.03 716.09 353.70 C 716.09 359.34 715.80 363.95 715.47 363.95 C 714.23 363.44 713.07 362.77 712.01 361.95 C 707.01 358.36 703.37 357.56 700.55 359.40 C 696.24 362.22 697.66 368.40 704.96 378.57 C 707.65 382.29 709.54 386.52 710.50 391.01 C 712.80 401.14 712.64 402.17 708.36 404.49 C 705.85 406.06 703.72 408.16 702.12 410.65 C 700.71 412.94 695.70 420.59 690.97 427.65 C 686.24 434.71 680.60 443.31 678.42 446.76 L 674.42 453.03 L 666.34 441.76 C 661.91 435.56 655.18 425.55 651.40 419.52 C 641.06 403.03 636.47 398.92 618.52 390.08 C 610.27 386.02 601.16 381.19 598.27 379.35 C 593.67 376.42 593.02 375.60 593.02 372.69 C 593.02 368.11 588.02 360.63 583.11 357.80 L 579.11 355.49 L 579.73 346.99 C 580.07 342.31 580.44 338.37 580.55 338.23 C 582.44 338.32 584.32 338.58 586.16 339.02 C 598.37 341.38 612.32 336.60 618.34 328.02 C 622.47 322.13 619.21 312.45 606.77 293.74 L 601.30 285.50 L 600.90 274.50 C 600.57 265.30 600.09 262.58 597.90 257.91 C 593.24 247.84 584.55 241.46 572.05 238.91 C 568.95 238.27 565.93 237.29 563.05 235.99 C 556.87 232.78 550.01 231.13 543.05 231.17 Z M 537.57 236.76 L 544.75 237.23 C 557.86 238.28 569.49 246.02 575.51 257.71 C 577.66 261.95 581.04 272.26 582.51 278.99 C 583.07 281.61 582.98 281.66 577.24 281.99 L 571.40 282.33 L 570.22 275.39 C 568.40 265.73 563.89 256.79 557.22 249.57 C 551.86 243.78 549.41 242.05 541.62 238.57 Z M 503.52 242.76 C 505.81 242.83 508.52 244.13 511.76 246.31 C 514.37 248.29 517.96 248.39 520.68 246.56 C 525.06 244.00 526.39 243.34 532.05 243.34 C 540.43 243.34 546.47 246.34 553.34 253.82 C 559.52 260.58 563.62 268.97 565.16 278.00 C 566.38 284.84 566.37 285.00 563.82 287.65 C 561.83 290.00 560.15 292.60 558.82 295.38 C 556.55 300.17 556.28 300.38 552.48 300.30 C 546.98 300.20 542.12 297.63 536.24 291.72 C 532.24 287.72 530.58 284.92 528.02 278.03 C 526.26 273.27 524.42 268.37 523.94 267.13 C 523.07 264.90 520.02 263.94 520.02 265.90 C 520.02 266.46 518.82 268.74 517.35 270.96 C 514.12 275.84 507.18 280.16 503.35 279.71 C 499.65 279.27 498.90 282.40 502.35 283.96 C 504.64 285.01 504.80 285.65 505.35 296.32 C 506.15 311.12 508.69 326.82 511.61 334.84 C 512.48 337.00 513.19 339.23 513.75 341.49 C 513.25 341.96 502.29 335.87 501.14 334.49 C 500.24 333.41 499.95 330.03 500.14 323.17 C 500.63 306.92 500.14 300.89 497.62 291.42 C 494.33 279.11 493.75 274.77 494.96 271.58 C 495.66 269.75 496.72 268.87 498.26 268.87 C 503.26 268.87 503.53 267.55 500.17 260.66 C 496.66 253.44 496.17 248.10 498.79 245.05 C 499.90 243.58 501.65 242.74 503.49 242.80 Z M 575.52 245.59 C 576.11 245.53 577.42 245.96 579.37 246.95 C 586.37 250.50 588.59 252.45 591.43 257.66 C 595.01 264.24 596.35 271.72 595.54 280.59 C 595.18 284.59 594.60 287.82 594.25 287.79 C 593.22 287.39 592.25 286.84 591.37 286.16 C 589.73 285.02 589.12 283.60 589.12 280.94 C 589.12 272.75 581.57 252.37 577.01 248.24 C 575.15 246.61 574.71 245.70 575.47 245.61 Z M 521.92 276.74 C 521.98 276.74 522.03 276.76 522.07 276.80 C 522.11 276.84 522.13 276.90 522.12 276.96 C 522.12 280.21 528.46 291.32 533.12 296.27 C 539.24 302.74 546.40 306.17 552.72 305.67 C 556.83 305.35 557.08 305.48 557.72 308.33 C 558.70 312.60 560.74 316.56 563.65 319.84 C 565.05 321.35 566.37 324.60 567.00 328.06 C 568.30 335.18 570.68 339.91 573.30 340.59 C 574.86 341.00 575.18 341.69 574.73 343.73 C 574.42 345.17 573.86 351.29 573.48 357.34 L 572.81 368.34 L 563.72 374.86 C 553.12 382.46 551.72 384.57 553.03 391.41 C 553.87 395.87 553.71 396.58 551.03 400.53 C 549.41 402.88 547.23 405.26 546.19 405.82 C 543.57 407.22 541.62 407.09 540.19 405.42 C 538.51 403.42 538.69 401.12 541.02 394.84 C 543.35 388.56 543.59 385.57 541.96 382.96 C 541.02 381.44 541.48 379.41 544.46 371.96 C 546.46 366.96 548.12 361.64 548.12 360.19 C 548.12 358.33 549.36 356.49 552.32 353.95 C 559.32 347.95 562.12 344.73 562.12 342.73 C 562.12 339.86 560.74 340.36 552.27 346.29 C 540.02 354.88 533.74 355.23 526.27 347.73 C 518.49 339.95 514.55 328.73 512.27 307.84 C 509.87 285.84 509.81 283.84 511.57 283.84 C 512.46 283.84 515.21 281.98 517.67 279.71 C 519.67 277.86 521.38 276.71 521.95 276.71 Z M 576.48 287.86 C 582.30 287.86 588.40 290.93 590.96 295.09 C 595.28 302.09 592.50 313.46 585.28 318.37 C 576.49 324.37 565.47 318.15 563.55 306.15 C 562.68 300.72 564.33 296.09 568.74 291.55 C 571.72 288.45 573.00 287.85 576.43 287.88 Z M 598.78 291.86 C 600.04 291.86 612.78 313.81 613.87 317.86 C 614.40 319.70 614.46 321.63 614.05 323.50 C 612.96 326.50 607.53 330.32 601.83 332.23 L 601.83 332.23 C 597.39 333.72 588.64 334.15 583.37 333.13 C 581.66 332.80 581.11 332.01 581.11 329.84 C 581.11 327.51 581.71 326.84 584.40 325.91 C 586.98 324.80 589.33 323.23 591.34 321.28 C 598.20 314.61 600.70 306.13 598.76 296.09 C 598.32 293.75 598.33 291.84 598.76 291.86 Z M 577.97 299.86 C 575.83 299.86 574.61 302.08 575.48 304.36 L 575.48 304.36 C 576.25 306.36 580.75 306.27 581.53 304.23 C 582.31 302.19 580.45 299.85 577.97 299.85 Z M 526.84 311.31 C 525.36 311.59 523.94 312.14 522.66 312.94 C 518.99 314.89 518.12 315.87 518.12 318.05 C 518.14 319.74 518.96 321.32 520.34 322.30 C 523.41 324.45 524.81 324.30 527.78 321.30 C 529.85 319.23 530.22 318.13 529.71 315.58 C 529.05 312.51 528.41 311.21 526.79 311.31 Z M 572.00 326.20 C 572.62 326.21 573.23 326.31 573.82 326.49 C 577.39 327.34 577.27 327.12 576.49 331.26 C 575.49 336.72 574.32 335.85 571.66 327.60 C 571.39 326.67 571.41 326.25 572.00 326.20 Z M 723.49 339.76 C 723.91 339.70 724.29 341.42 725.04 345.86 C 725.74 349.98 726.59 355.58 726.93 358.29 C 727.53 363.13 727.65 363.29 733.53 366.29 C 740.34 369.78 743.31 373.54 745.68 381.69 C 748.68 392.08 745.50 402.37 736.30 411.91 C 732.30 416.03 730.94 416.85 727.92 416.85 C 720.63 416.85 715.65 409.94 716.68 401.22 C 717.48 393.57 715.72 385.87 711.68 379.33 C 707.25 372.65 703.79 365.80 704.49 365.10 C 705.49 364.10 711.99 368.24 717.63 373.62 C 723.89 379.62 729.10 388.97 729.85 395.62 C 730.37 400.27 732.67 403.30 733.56 400.50 C 733.84 399.61 734.29 398.20 734.56 397.35 C 735.32 394.94 733.07 385.86 730.40 380.56 C 729.04 377.85 726.67 375.00 725.00 374.06 C 723.37 373.16 722.10 371.73 721.40 370.00 C 720.56 366.74 721.71 344.00 722.87 340.90 C 723.12 340.19 723.32 339.79 723.52 339.76 Z M 578.49 361.21 C 578.87 361.34 579.21 361.56 579.49 361.85 C 580.31 362.53 580.73 363.48 580.43 363.97 C 579.43 365.60 578.00 364.88 578.00 362.74 C 578.00 361.63 578.10 361.16 578.47 361.21 Z M 540.66 366.21 C 540.83 366.38 540.22 368.85 539.30 371.71 C 538.38 374.57 537.30 376.91 536.99 376.91 C 535.99 376.41 535.11 375.69 534.43 374.80 C 532.53 372.70 532.55 372.66 536.43 369.30 C 538.64 367.38 540.54 366.00 540.71 366.16 Z M 585.37 368.87 C 586.52 369.01 586.96 370.60 587.54 374.04 C 588.09 377.29 587.54 378.70 582.54 386.56 C 579.60 391.19 576.32 395.60 572.72 399.74 C 570.59 401.98 568.31 404.07 565.90 406.00 L 563.22 407.93 L 561.70 402.66 C 556.47 384.57 556.37 385.00 567.32 379.03 C 572.41 376.26 578.58 372.64 581.04 370.98 C 583.19 369.48 584.52 368.71 585.42 368.82 Z M 529.06 377.87 C 530.58 377.87 537.06 386.54 537.06 388.59 C 537.06 389.69 535.48 393.70 533.55 397.48 L 533.55 397.48 C 531.83 400.94 529.82 404.25 527.55 407.37 L 525.07 410.37 L 525.07 402.87 C 525.07 394.67 527.78 377.86 529.11 377.86 Z M 521.63 380.29 C 521.71 380.29 521.77 380.29 521.79 380.29 C 521.99 380.48 521.59 382.60 520.90 385.00 C 520.21 387.40 519.61 394.62 519.58 401.06 C 519.55 407.50 519.58 410.56 520.11 412.38 C 520.64 414.20 523.11 416.09 526.54 414.27 C 528.61 413.14 530.52 411.75 532.22 410.13 L 534.31 407.91 L 537.24 410.38 C 542.24 414.61 548.86 412.92 553.40 406.24 L 555.84 402.65 L 557.77 407.00 C 560.70 413.60 562.09 414.37 566.69 412.00 C 573.53 408.42 582.34 398.75 588.02 388.59 C 589.80 385.41 591.54 382.93 591.89 383.10 C 592.24 383.27 594.89 384.74 597.73 386.39 C 602.89 389.39 602.94 389.39 602.38 393.39 C 601.28 401.08 595.85 418.45 592.22 425.86 C 586.07 438.44 573.41 450.27 561.14 454.93 C 555.14 457.22 544.87 458.14 539.76 456.85 C 529.99 454.41 522.33 447.84 516.76 437.15 C 510.23 424.59 508.51 412.84 511.10 398.38 C 511.69 395.09 512.30 390.88 512.46 389.04 C 512.70 386.36 513.61 385.14 517.09 382.83 C 518.50 381.82 520.02 380.97 521.62 380.31 Z M 710.52 410.42 C 711.45 410.28 712.21 411.42 713.36 413.90 C 715.98 419.59 722.36 423.17 729.02 422.71 C 731.77 422.52 734.02 422.71 734.02 423.07 C 734.02 424.92 731.53 428.61 728.80 430.80 C 724.59 434.17 716.72 434.73 712.32 431.97 C 706.13 428.08 703.79 418.33 707.77 412.97 C 709.00 411.39 709.84 410.52 710.57 410.41 Z M 495.48 429.12 C 494.48 428.99 493.32 432.12 492.03 438.66 C 490.34 447.24 491.32 456.81 495.03 467.81 C 496.28 471.28 497.31 474.83 498.09 478.44 C 498.09 481.00 482.43 512.57 479.70 515.52 C 478.64 516.52 477.76 517.70 477.09 518.99 C 477.09 521.06 455.54 529.85 455.54 529.85 L 458.16 534.55 L 464.38 532.45 C 478.70 527.62 484.44 521.38 495.31 498.85 C 500.95 487.16 500.87 487.30 501.66 488.09 C 503.77 490.19 507.42 531.85 506.35 541.60 C 506.18 542.99 506.18 544.41 506.35 545.80 L 512.35 545.61 L 511.80 525.00 C 511.16 499.92 509.73 491.56 502.90 472.71 L 497.70 458.37 L 497.61 445.37 C 497.53 434.86 496.71 429.32 495.48 429.14 Z M 488.72 572.45 C 488.27 572.45 480.32 578.31 470.29 585.03 C 448.72 599.50 439.29 612.03 437.16 616.03 C 432.83 624.14 429.38 634.47 426.16 648.85 C 423.77 659.67 411.44 725.85 406.52 754.35 C 404.71 764.80 402.52 775.03 401.63 777.07 C 400.65 779.69 400.11 782.45 400.04 785.24 C 400.04 791.76 390.38 814.07 381.34 828.46 C 377.42 834.70 376.13 835.92 370.84 838.46 C 363.55 841.94 358.33 849.32 360.12 854.28 C 362.87 854.54 384.94 855.94 390.88 855.80 C 390.88 855.80 405.33 844.36 411.80 839.80 C 418.27 835.24 426.47 829.21 430.05 826.36 C 432.05 824.76 434.05 823.25 435.59 822.18 C 436.81 821.32 439.28 819.18 439.44 814.27 C 439.56 810.66 439.56 805.02 439.50 796.20 C 439.31 767.59 438.73 769.93 453.37 739.32 C 464.83 715.32 467.37 704.00 469.05 697.92 C 469.58 696.02 470.15 694.23 471.05 694.92 C 472.88 696.28 476.15 698.84 479.77 701.74 C 492.70 712.14 509.54 724.32 526.27 735.38 C 533.76 740.33 539.93 745.06 539.97 745.90 C 540.13 749.00 545.14 754.90 548.08 755.53 L 550.99 756.12 L 547.55 760.32 C 542.27 766.76 538.79 775.13 539.21 780.38 C 539.31 781.72 539.27 782.64 539.27 783.33 C 539.27 791.03 546.27 789.08 547.48 785.80 C 549.38 785.80 543.17 796.41 540.13 798.18 C 536.64 800.18 535.99 803.77 538.70 806.01 C 540.81 807.75 560.43 807.57 565.84 805.76 C 579.23 803.93 580.26 797.26 580.43 796.63 C 580.78 795.39 582.75 787.85 584.80 779.88 L 588.53 765.39 L 588.53 765.39 L 594.20 748.54 C 595.53 743.54 593.95 737.27 587.69 736.33 L 581.36 734.86 C 581.36 734.86 563.98 727.63 562.08 726.28 C 559.69 724.70 557.06 723.51 554.30 722.74 C 550.42 721.74 549.72 721.10 547.46 716.34 C 545.27 712.00 542.84 707.78 540.19 703.71 C 537.57 699.71 535.07 695.80 534.62 695.07 C 534.37 694.66 534.36 694.38 534.70 694.23 L 529.55 687.12 C 529.40 687.07 529.25 687.01 529.11 686.94 C 527.68 686.18 514.60 668.61 509.71 660.94 L 508.13 658.44 L 516.99 658.79 C 524.83 659.10 536.38 658.34 555.40 656.27 C 556.98 656.01 558.57 655.91 560.17 655.97 L 560.79 655.72 L 566.02 648.57 L 566.02 648.57 L 550.28 650.49 C 539.99 651.68 529.64 652.33 519.28 652.42 C 502.73 652.42 502.66 652.42 501.41 646.66 C 500.64 643.14 499.28 642.30 497.41 644.18 C 493.91 647.68 500.15 658.99 521.56 687.91 C 535.11 706.20 540.99 715.33 545.25 724.66 C 548.64 732.10 548.75 734.13 546.00 738.57 C 544.86 740.42 543.62 741.89 543.26 741.82 C 542.90 741.75 536.26 736.92 528.47 731.07 C 520.68 725.22 508.55 716.16 501.47 710.94 C 485.84 699.41 466.89 683.73 461.98 678.26 C 453.12 668.39 445.35 654.26 443.21 644.14 C 438.93 624.00 447.00 608.35 464.52 603.00 C 473.28 600.30 503.84 595.23 522.57 593.39 C 538.79 591.79 562.95 587.58 566.34 585.77 C 567.82 584.98 567.95 584.48 567.01 583.34 C 565.51 581.54 562.49 581.55 550.31 583.34 C 544.95 584.14 533.14 585.53 524.07 586.42 C 510.35 587.76 485.44 591.42 470.07 594.42 C 467.13 594.99 468.26 593.92 477.07 587.83 C 482.84 583.83 490.21 578.53 493.43 576.05 L 498.14 572.45 Z M 435.43 634.36 L 436.77 642.36 C 439.07 656.16 448.52 673.19 460.29 684.77 L 465.72 690.10 L 463.00 700.23 C 460.00 711.32 456.85 718.95 446.33 740.86 C 442.50 748.86 438.07 758.70 436.48 762.78 C 433.48 770.48 429.90 774.25 422.55 777.41 C 416.31 780.09 414.41 780.16 412.05 777.81 C 410.05 775.81 409.89 774.90 410.39 768.47 C 411.10 759.54 429.16 660.19 432.78 645.36 Z M 552.30 726.86 L 557.17 729.50 C 559.84 730.96 562.29 732.97 562.61 733.98 C 563.42 736.51 559.96 743.71 556.08 747.61 C 552.46 751.24 550.30 751.61 547.84 749.20 C 546.30 747.66 546.43 747.26 549.72 743.45 C 553.01 739.64 553.25 739.12 552.78 733.11 Z M 569.05 736.86 C 571.26 737.40 573.44 738.07 575.57 738.86 C 578.77 739.96 588.76 743.45 588.65 744.01 C 587.40 750.50 579.75 782.45 573.47 796.01 C 572.65 796.92 569.38 798.39 566.21 799.28 C 562.11 800.29 557.90 800.83 553.68 800.90 L 546.93 800.90 L 549.00 798.20 C 551.10 795.53 555.18 783.20 556.73 774.86 L 557.56 770.36 L 559.77 774.11 C 561.20 776.37 563.17 778.23 565.50 779.53 C 568.82 781.12 569.12 781.11 571.03 779.38 C 573.80 776.87 573.62 771.93 570.51 765.38 C 567.89 759.84 562.15 753.88 559.44 753.88 C 558.37 753.88 558.99 752.60 561.44 749.73 C 563.57 747.16 565.33 744.30 566.65 741.23 C 567.59 738.81 568.66 736.86 569.05 736.86 Z M 558.48 758.15 C 559.22 758.03 563.48 763.81 565.48 767.67 C 568.26 773.07 566.96 775.09 563.84 770.23 C 560.95 765.71 557.84 758.77 558.42 758.18 C 558.44 758.17 558.46 758.17 558.48 758.18 Z M 551.00 765.44 C 552.00 765.23 551.34 771.92 550.00 775.55 C 549.42 776.92 548.42 778.06 547.15 778.83 C 545.44 779.75 545.15 779.63 545.15 778.14 C 545.15 775.95 549.56 766.33 550.94 765.48 C 550.97 765.47 551.01 765.47 551.04 765.48 Z M 433.72 778.44 C 434.06 778.44 434.10 778.93 434.10 779.74 C 434.10 785.26 428.99 792.13 423.69 793.74 C 418.15 795.42 415.69 795.64 412.48 794.74 C 408.40 793.58 407.48 792.32 406.76 786.60 C 406.13 781.78 406.90 780.67 409.05 783.28 C 412.13 787.00 422.76 785.53 430.35 780.34 C 432.31 779.00 433.25 778.39 433.69 778.45 Z M 432.90 796.25 L 433.56 804.80 C 433.93 809.50 433.78 814.39 434.05 815.32 C 434.40 816.53 433.56 817.76 429.40 820.41 C 423.54 824.13 397.71 842.24 393.10 845.86 C 391.73 846.94 387.00 848.72 382.60 849.86 C 378.20 851.00 368.66 849.94 368.14 848.96 C 367.32 847.42 368.22 846.60 374.36 843.28 C 382.07 839.10 383.82 837.07 390.88 824.05 L 394.88 816.72 L 396.75 820.49 C 397.88 822.68 399.43 824.64 401.31 826.23 C 403.83 828.07 404.17 828.09 406.47 826.58 C 411.89 823.03 410.55 811.49 403.88 804.19 C 402.57 803.01 402.04 801.18 402.51 799.48 L 403.14 796.96 L 406.88 799.18 C 412.16 802.30 421.13 802.12 427.88 798.77 Z M 399.45 806.85 C 399.79 806.85 401.00 808.68 402.14 810.92 C 403.33 813.15 403.92 815.65 403.86 818.17 L 403.50 821.35 L 401.71 817.41 C 399.76 813.21 398.41 806.86 399.42 806.86 Z M 153.00 897.00 C 153.04 897.08 153.06 897.17 153.08 897.26 C 153.08 897.62 126.36 897.91 93.70 897.91 C 42.14 897.91 34.16 898.10 33.08 899.40 C 32.00 900.70 32.08 901.21 33.08 902.40 C 34.08 903.59 91.80 903.90 540.60 903.90 C 989.70 903.90 1046.93 903.73 1047.45 902.40 C 1047.76 901.42 1047.76 900.38 1047.45 899.40 C 1046.94 898.09 1039.76 897.90 991.14 897.90 C 961.55 897.90 936.97 897.65 935.01 897.33 L 934.63 897.55 L 928.63 897.88 L 914.35 897.88 C 907.14 897.88 903.59 897.88 901.61 897.53 L 901.38 897.63 L 892.03 897.45 C 891.52 897.69 886.38 897.89 880.16 897.89 L 868.24 897.89 L 868.24 897.89 L 816.36 897.89 L 810.36 897.98 L 810.36 897.98 L 802.04 897.69 L 793.72 897.39 L 793.72 897.39 L 788.03 897.89 L 747.57 897.89 C 725.91 897.89 715.08 897.89 710.27 897.29 C 707.97 897.72 705.91 898.09 704.98 898.21 C 702.10 898.58 694.49 897.92 694.19 897.89 L 654.14 897.89 L 646.45 897.02 C 644.52 897.71 635.04 897.90 609.18 897.90 C 590.76 897.90 575.29 897.70 571.83 897.42 L 571.08 897.55 L 560.77 897.90 L 560.77 897.90 L 410.69 897.90 L 260.60 897.90 L 260.60 897.90 L 249.21 897.95 L 249.21 897.95 L 249.21 897.95 L 225.64 897.95 C 212.69 897.95 202.09 897.71 202.09 897.42 C 202.09 897.42 202.09 897.24 202.09 897.18 L 201.31 897.60 L 195.26 897.34 C 193.31 897.87 189.05 897.95 178.60 897.95 L 161.28 897.95 L 161.28 897.95 Z" fill="#483613" fill-rule="nonzero" id="path1443" node-id="27" stroke="none" target-height="672.9" target-width="1015.3803" target-x="32.300003" target-y="231"></path><path d="M 550.29 320.22 C 550.29 324.39 546.91 327.77 542.74 327.77 L 542.74 327.77 C 538.57 327.77 535.19 324.39 535.19 320.22 C 535.19 316.05 538.57 312.67 542.74 312.67 C 546.91 312.67 550.29 316.05 550.29 320.22 Z" fill="#e8a1a4" fill-rule="nonzero" id="path7004-5-5-1-7-6-7-12-0-1-2" node-id="28" stroke="none" target-height="15.099976" target-width="15.099976" target-x="535.19" target-y="312.67"></path></svg>